{
    "asset": {
        "generator": "Khronos glTF Blender I/O v5.0.21",
        "version": "2.0",
        "extras": {
            "Author": "hello@controllerarts.com",
            "Source": "https://www.controllerarts.com/",
            "License": "Proprietary License. No AI/ML training permitted. No redistribution."
        },
        "copyright": "2026-07-10 - https://www.controllerarts.com/"
    },
    "scene": 0,
    "scenes": [
        {
            "name": "Scene",
            "nodes": [
                23
            ]
        }
    ],
    "nodes": [
        {
            "name": "TailEnd",
            "rotation": [
                -0.04155886545777321,
                6.770816352030806e-09,
                2.81593554030124e-10,
                0.9991360902786255
            ],
            "scale": [
                1,
                0.9999999403953552,
                1
            ],
            "translation": [
                -6.439293542825908e-15,
                1.2041596174240112,
                7.4505588365525455e-09
            ]
        },
        {
            "children": [
                0
            ],
            "name": "TailStart",
            "rotation": [
                -0.02937384694814682,
                -1.0439451081367679e-08,
                9.13024864046541e-11,
                0.9995684623718262
            ],
            "scale": [
                1,
                0.9999998807907104,
                0.9999998807907104
            ],
            "translation": [
                -1.482147737874584e-13,
                0.7071066498756409,
                7.450568606515162e-09
            ]
        },
        {
            "children": [
                1
            ],
            "name": "Abdomen",
            "rotation": [
                4.621067084542574e-09,
                -0.07088881731033325,
                -0.9974842071533203,
                1.3802677223395676e-08
            ],
            "scale": [
                1,
                0.9999998807907104,
                0.9999944567680359
            ],
            "translation": [
                2.7152964321430773e-09,
                -0.10000002384185791,
                -6.208820124697922e-10
            ]
        },
        {
            "name": "TeethTop",
            "rotation": [
                1.5026611777102516e-07,
                0.9925075769424438,
                0.12218330055475235,
                1.376409500153386e-06
            ],
            "scale": [
                1,
                0.9999997019767761,
                1
            ],
            "translation": [
                2.9355099684380548e-08,
                0.6999999284744263,
                -0.20000001788139343
            ]
        },
        {
            "name": "Jaw",
            "rotation": [
                1.0182543697112578e-08,
                1,
                -1.1723376447132089e-14,
                1.148381556959066e-06
            ],
            "translation": [
                1.0614617451665254e-07,
                0.10000002384185791,
                -0.30000001192092896
            ]
        },
        {
            "children": [
                3,
                4
            ],
            "name": "Head",
            "rotation": [
                5.432712946173979e-09,
                1.1920928955078125e-07,
                2.3759270106893382e-08,
                1
            ],
            "translation": [
                0,
                1.2000000476837158,
                1.6653345369377348e-16
            ]
        },
        {
            "name": "PectoralFin_R",
            "rotation": [
                -0.09115476906299591,
                0.16370272636413574,
                -0.8452084064483643,
                0.5005146861076355
            ],
            "scale": [
                1.0000001192092896,
                1.0000001192092896,
                1
            ],
            "translation": [
                0.38000020384788513,
                0.5656852722167969,
                -0.1499999761581421
            ]
        },
        {
            "name": "PectoralFin_L",
            "rotation": [
                -0.0911547988653183,
                -0.16370266675949097,
                0.8452082872390747,
                0.5005149245262146
            ],
            "scale": [
                1,
                0.9999998807907104,
                0.9999999403953552
            ],
            "translation": [
                -0.3799997866153717,
                0.565685510635376,
                -0.1499999761581421
            ]
        },
        {
            "name": "Mouth",
            "rotation": [
                -5.732087100438453e-15,
                8.561319339923836e-22,
                -1,
                1.7794739335853836e-23
            ],
            "translation": [
                -2.9868804318766706e-08,
                1.100000023841858,
                1
            ]
        },
        {
            "name": "Control",
            "rotation": [
                -1.011544321544741e-15,
                1.511672569440658e-22,
                1,
                3.1402468071906433e-24
            ],
            "translation": [
                1.1183233701063389e-13,
                4.78078618471045e-07,
                1
            ]
        },
        {
            "name": "Tail_IK_Pole",
            "rotation": [
                5.338507591545749e-08,
                0.7071067690849304,
                0.7071067690849304,
                5.338507591545749e-08
            ],
            "translation": [
                3.2312601661033113e-07,
                -1.0999999046325684,
                3
            ]
        },
        {
            "children": [
                2,
                5,
                6,
                7,
                8,
                9,
                10
            ],
            "name": "Torso",
            "rotation": [
                -3.1044085080367267e-09,
                4.636246483499438e-16,
                1.49343961197701e-07,
                1
            ],
            "translation": [
                2.9325724426598754e-07,
                -0.5000001192092896,
                0.09999996423721313
            ]
        },
        {
            "name": "Tail_IK",
            "rotation": [
                0,
                0,
                -1,
                0
            ],
            "translation": [
                1.3685337307833834e-06,
                -3.8000004291534424,
                0.2999999523162842
            ]
        },
        {
            "children": [
                11,
                12
            ],
            "name": "Root",
            "rotation": [
                0,
                0.7071067690849304,
                0.7071067690849304,
                0
            ],
            "translation": [
                -6.516827397717861e-07,
                -0.09999996423721313,
                0.6000001430511475
            ]
        },
        {
            "mesh": 0,
            "name": "Abdomen",
            "skin": 0
        },
        {
            "mesh": 1,
            "name": "Head",
            "skin": 0
        },
        {
            "mesh": 2,
            "name": "Jaw",
            "skin": 0
        },
        {
            "mesh": 3,
            "name": "PectoralFin_L",
            "skin": 0
        },
        {
            "mesh": 4,
            "name": "PectoralFin_R",
            "skin": 0
        },
        {
            "mesh": 5,
            "name": "TailEnd",
            "skin": 0
        },
        {
            "mesh": 6,
            "name": "TailStart",
            "skin": 0
        },
        {
            "mesh": 7,
            "name": "TeethTop",
            "skin": 0
        },
        {
            "mesh": 8,
            "name": "Torso",
            "skin": 0
        },
        {
            "children": [
                14,
                15,
                16,
                17,
                18,
                19,
                20,
                21,
                22,
                13
            ],
            "name": "SK_Great_White_Shark"
        }
    ],
    "animations": [
        {
            "channels": [
                {
                    "sampler": 0,
                    "target": {
                        "node": 13,
                        "path": "translation"
                    }
                },
                {
                    "sampler": 1,
                    "target": {
                        "node": 13,
                        "path": "rotation"
                    }
                },
                {
                    "sampler": 2,
                    "target": {
                        "node": 13,
                        "path": "scale"
                    }
                },
                {
                    "sampler": 3,
                    "target": {
                        "node": 11,
                        "path": "translation"
                    }
                },
                {
                    "sampler": 4,
                    "target": {
                        "node": 11,
                        "path": "rotation"
                    }
                },
                {
                    "sampler": 5,
                    "target": {
                        "node": 11,
                        "path": "scale"
                    }
                },
                {
                    "sampler": 6,
                    "target": {
                        "node": 2,
                        "path": "translation"
                    }
                },
                {
                    "sampler": 7,
                    "target": {
                        "node": 2,
                        "path": "rotation"
                    }
                },
                {
                    "sampler": 8,
                    "target": {
                        "node": 2,
                        "path": "scale"
                    }
                },
                {
                    "sampler": 9,
                    "target": {
                        "node": 1,
                        "path": "translation"
                    }
                },
                {
                    "sampler": 10,
                    "target": {
                        "node": 1,
                        "path": "rotation"
                    }
                },
                {
                    "sampler": 11,
                    "target": {
                        "node": 1,
                        "path": "scale"
                    }
                },
                {
                    "sampler": 12,
                    "target": {
                        "node": 0,
                        "path": "translation"
                    }
                },
                {
                    "sampler": 13,
                    "target": {
                        "node": 0,
                        "path": "rotation"
                    }
                },
                {
                    "sampler": 14,
                    "target": {
                        "node": 0,
                        "path": "scale"
                    }
                },
                {
                    "sampler": 15,
                    "target": {
                        "node": 5,
                        "path": "translation"
                    }
                },
                {
                    "sampler": 16,
                    "target": {
                        "node": 5,
                        "path": "rotation"
                    }
                },
                {
                    "sampler": 17,
                    "target": {
                        "node": 5,
                        "path": "scale"
                    }
                },
                {
                    "sampler": 18,
                    "target": {
                        "node": 3,
                        "path": "translation"
                    }
                },
                {
                    "sampler": 19,
                    "target": {
                        "node": 3,
                        "path": "rotation"
                    }
                },
                {
                    "sampler": 20,
                    "target": {
                        "node": 3,
                        "path": "scale"
                    }
                },
                {
                    "sampler": 21,
                    "target": {
                        "node": 4,
                        "path": "translation"
                    }
                },
                {
                    "sampler": 22,
                    "target": {
                        "node": 4,
                        "path": "rotation"
                    }
                },
                {
                    "sampler": 23,
                    "target": {
                        "node": 4,
                        "path": "scale"
                    }
                },
                {
                    "sampler": 24,
                    "target": {
                        "node": 6,
                        "path": "translation"
                    }
                },
                {
                    "sampler": 25,
                    "target": {
                        "node": 6,
                        "path": "rotation"
                    }
                },
                {
                    "sampler": 26,
                    "target": {
                        "node": 6,
                        "path": "scale"
                    }
                },
                {
                    "sampler": 27,
                    "target": {
                        "node": 7,
                        "path": "translation"
                    }
                },
                {
                    "sampler": 28,
                    "target": {
                        "node": 7,
                        "path": "rotation"
                    }
                },
                {
                    "sampler": 29,
                    "target": {
                        "node": 7,
                        "path": "scale"
                    }
                },
                {
                    "sampler": 30,
                    "target": {
                        "node": 8,
                        "path": "translation"
                    }
                },
                {
                    "sampler": 31,
                    "target": {
                        "node": 8,
                        "path": "rotation"
                    }
                },
                {
                    "sampler": 32,
                    "target": {
                        "node": 8,
                        "path": "scale"
                    }
                },
                {
                    "sampler": 33,
                    "target": {
                        "node": 9,
                        "path": "translation"
                    }
                },
                {
                    "sampler": 34,
                    "target": {
                        "node": 9,
                        "path": "rotation"
                    }
                },
                {
                    "sampler": 35,
                    "target": {
                        "node": 9,
                        "path": "scale"
                    }
                },
                {
                    "sampler": 36,
                    "target": {
                        "node": 10,
                        "path": "translation"
                    }
                },
                {
                    "sampler": 37,
                    "target": {
                        "node": 10,
                        "path": "rotation"
                    }
                },
                {
                    "sampler": 38,
                    "target": {
                        "node": 10,
                        "path": "scale"
                    }
                },
                {
                    "sampler": 39,
                    "target": {
                        "node": 12,
                        "path": "translation"
                    }
                },
                {
                    "sampler": 40,
                    "target": {
                        "node": 12,
                        "path": "rotation"
                    }
                },
                {
                    "sampler": 41,
                    "target": {
                        "node": 12,
                        "path": "scale"
                    }
                }
            ],
            "name": "SwimmingAction",
            "samplers": [
                {
                    "input": 55,
                    "interpolation": "STEP",
                    "output": 56
                },
                {
                    "input": 55,
                    "interpolation": "STEP",
                    "output": 57
                },
                {
                    "input": 55,
                    "interpolation": "STEP",
                    "output": 58
                },
                {
                    "input": 55,
                    "interpolation": "STEP",
                    "output": 59
                },
                {
                    "input": 60,
                    "interpolation": "LINEAR",
                    "output": 61
                },
                {
                    "input": 55,
                    "interpolation": "STEP",
                    "output": 62
                },
                {
                    "input": 55,
                    "interpolation": "STEP",
                    "output": 63
                },
                {
                    "input": 60,
                    "interpolation": "LINEAR",
                    "output": 64
                },
                {
                    "input": 55,
                    "interpolation": "STEP",
                    "output": 65
                },
                {
                    "input": 55,
                    "interpolation": "STEP",
                    "output": 66
                },
                {
                    "input": 60,
                    "interpolation": "LINEAR",
                    "output": 67
                },
                {
                    "input": 55,
                    "interpolation": "STEP",
                    "output": 68
                },
                {
                    "input": 55,
                    "interpolation": "STEP",
                    "output": 69
                },
                {
                    "input": 60,
                    "interpolation": "LINEAR",
                    "output": 70
                },
                {
                    "input": 55,
                    "interpolation": "STEP",
                    "output": 71
                },
                {
                    "input": 55,
                    "interpolation": "STEP",
                    "output": 72
                },
                {
                    "input": 60,
                    "interpolation": "LINEAR",
                    "output": 73
                },
                {
                    "input": 55,
                    "interpolation": "STEP",
                    "output": 74
                },
                {
                    "input": 55,
                    "interpolation": "STEP",
                    "output": 75
                },
                {
                    "input": 55,
                    "interpolation": "STEP",
                    "output": 76
                },
                {
                    "input": 55,
                    "interpolation": "STEP",
                    "output": 77
                },
                {
                    "input": 55,
                    "interpolation": "STEP",
                    "output": 78
                },
                {
                    "input": 55,
                    "interpolation": "STEP",
                    "output": 79
                },
                {
                    "input": 55,
                    "interpolation": "STEP",
                    "output": 80
                },
                {
                    "input": 55,
                    "interpolation": "STEP",
                    "output": 81
                },
                {
                    "input": 55,
                    "interpolation": "STEP",
                    "output": 82
                },
                {
                    "input": 55,
                    "interpolation": "STEP",
                    "output": 83
                },
                {
                    "input": 55,
                    "interpolation": "STEP",
                    "output": 84
                },
                {
                    "input": 55,
                    "interpolation": "STEP",
                    "output": 85
                },
                {
                    "input": 55,
                    "interpolation": "STEP",
                    "output": 86
                },
                {
                    "input": 55,
                    "interpolation": "STEP",
                    "output": 87
                },
                {
                    "input": 60,
                    "interpolation": "LINEAR",
                    "output": 88
                },
                {
                    "input": 55,
                    "interpolation": "STEP",
                    "output": 58
                },
                {
                    "input": 55,
                    "interpolation": "STEP",
                    "output": 89
                },
                {
                    "input": 60,
                    "interpolation": "LINEAR",
                    "output": 90
                },
                {
                    "input": 55,
                    "interpolation": "STEP",
                    "output": 58
                },
                {
                    "input": 55,
                    "interpolation": "STEP",
                    "output": 91
                },
                {
                    "input": 55,
                    "interpolation": "STEP",
                    "output": 92
                },
                {
                    "input": 55,
                    "interpolation": "STEP",
                    "output": 58
                },
                {
                    "input": 55,
                    "interpolation": "STEP",
                    "output": 93
                },
                {
                    "input": 55,
                    "interpolation": "STEP",
                    "output": 94
                },
                {
                    "input": 55,
                    "interpolation": "STEP",
                    "output": 58
                }
            ]
        },
        {
            "channels": [
                {
                    "sampler": 0,
                    "target": {
                        "node": 13,
                        "path": "translation"
                    }
                },
                {
                    "sampler": 1,
                    "target": {
                        "node": 13,
                        "path": "rotation"
                    }
                },
                {
                    "sampler": 2,
                    "target": {
                        "node": 13,
                        "path": "scale"
                    }
                },
                {
                    "sampler": 3,
                    "target": {
                        "node": 11,
                        "path": "translation"
                    }
                },
                {
                    "sampler": 4,
                    "target": {
                        "node": 11,
                        "path": "rotation"
                    }
                },
                {
                    "sampler": 5,
                    "target": {
                        "node": 11,
                        "path": "scale"
                    }
                },
                {
                    "sampler": 6,
                    "target": {
                        "node": 2,
                        "path": "translation"
                    }
                },
                {
                    "sampler": 7,
                    "target": {
                        "node": 2,
                        "path": "rotation"
                    }
                },
                {
                    "sampler": 8,
                    "target": {
                        "node": 2,
                        "path": "scale"
                    }
                },
                {
                    "sampler": 9,
                    "target": {
                        "node": 1,
                        "path": "translation"
                    }
                },
                {
                    "sampler": 10,
                    "target": {
                        "node": 1,
                        "path": "rotation"
                    }
                },
                {
                    "sampler": 11,
                    "target": {
                        "node": 1,
                        "path": "scale"
                    }
                },
                {
                    "sampler": 12,
                    "target": {
                        "node": 0,
                        "path": "translation"
                    }
                },
                {
                    "sampler": 13,
                    "target": {
                        "node": 0,
                        "path": "rotation"
                    }
                },
                {
                    "sampler": 14,
                    "target": {
                        "node": 0,
                        "path": "scale"
                    }
                },
                {
                    "sampler": 15,
                    "target": {
                        "node": 5,
                        "path": "translation"
                    }
                },
                {
                    "sampler": 16,
                    "target": {
                        "node": 5,
                        "path": "rotation"
                    }
                },
                {
                    "sampler": 17,
                    "target": {
                        "node": 5,
                        "path": "scale"
                    }
                },
                {
                    "sampler": 18,
                    "target": {
                        "node": 3,
                        "path": "translation"
                    }
                },
                {
                    "sampler": 19,
                    "target": {
                        "node": 3,
                        "path": "rotation"
                    }
                },
                {
                    "sampler": 20,
                    "target": {
                        "node": 3,
                        "path": "scale"
                    }
                },
                {
                    "sampler": 21,
                    "target": {
                        "node": 4,
                        "path": "translation"
                    }
                },
                {
                    "sampler": 22,
                    "target": {
                        "node": 4,
                        "path": "rotation"
                    }
                },
                {
                    "sampler": 23,
                    "target": {
                        "node": 4,
                        "path": "scale"
                    }
                },
                {
                    "sampler": 24,
                    "target": {
                        "node": 6,
                        "path": "translation"
                    }
                },
                {
                    "sampler": 25,
                    "target": {
                        "node": 6,
                        "path": "rotation"
                    }
                },
                {
                    "sampler": 26,
                    "target": {
                        "node": 6,
                        "path": "scale"
                    }
                },
                {
                    "sampler": 27,
                    "target": {
                        "node": 7,
                        "path": "translation"
                    }
                },
                {
                    "sampler": 28,
                    "target": {
                        "node": 7,
                        "path": "rotation"
                    }
                },
                {
                    "sampler": 29,
                    "target": {
                        "node": 7,
                        "path": "scale"
                    }
                },
                {
                    "sampler": 30,
                    "target": {
                        "node": 8,
                        "path": "translation"
                    }
                },
                {
                    "sampler": 31,
                    "target": {
                        "node": 8,
                        "path": "rotation"
                    }
                },
                {
                    "sampler": 32,
                    "target": {
                        "node": 8,
                        "path": "scale"
                    }
                },
                {
                    "sampler": 33,
                    "target": {
                        "node": 9,
                        "path": "translation"
                    }
                },
                {
                    "sampler": 34,
                    "target": {
                        "node": 9,
                        "path": "rotation"
                    }
                },
                {
                    "sampler": 35,
                    "target": {
                        "node": 9,
                        "path": "scale"
                    }
                },
                {
                    "sampler": 36,
                    "target": {
                        "node": 10,
                        "path": "translation"
                    }
                },
                {
                    "sampler": 37,
                    "target": {
                        "node": 10,
                        "path": "rotation"
                    }
                },
                {
                    "sampler": 38,
                    "target": {
                        "node": 10,
                        "path": "scale"
                    }
                },
                {
                    "sampler": 39,
                    "target": {
                        "node": 12,
                        "path": "translation"
                    }
                },
                {
                    "sampler": 40,
                    "target": {
                        "node": 12,
                        "path": "rotation"
                    }
                },
                {
                    "sampler": 41,
                    "target": {
                        "node": 12,
                        "path": "scale"
                    }
                }
            ],
            "name": "JumpAction",
            "samplers": [
                {
                    "input": 95,
                    "interpolation": "STEP",
                    "output": 56
                },
                {
                    "input": 95,
                    "interpolation": "STEP",
                    "output": 57
                },
                {
                    "input": 95,
                    "interpolation": "STEP",
                    "output": 58
                },
                {
                    "input": 96,
                    "interpolation": "LINEAR",
                    "output": 97
                },
                {
                    "input": 96,
                    "interpolation": "LINEAR",
                    "output": 98
                },
                {
                    "input": 95,
                    "interpolation": "STEP",
                    "output": 58
                },
                {
                    "input": 95,
                    "interpolation": "STEP",
                    "output": 99
                },
                {
                    "input": 96,
                    "interpolation": "LINEAR",
                    "output": 100
                },
                {
                    "input": 95,
                    "interpolation": "STEP",
                    "output": 101
                },
                {
                    "input": 95,
                    "interpolation": "STEP",
                    "output": 102
                },
                {
                    "input": 96,
                    "interpolation": "LINEAR",
                    "output": 103
                },
                {
                    "input": 95,
                    "interpolation": "STEP",
                    "output": 104
                },
                {
                    "input": 95,
                    "interpolation": "STEP",
                    "output": 105
                },
                {
                    "input": 96,
                    "interpolation": "LINEAR",
                    "output": 106
                },
                {
                    "input": 95,
                    "interpolation": "STEP",
                    "output": 107
                },
                {
                    "input": 95,
                    "interpolation": "STEP",
                    "output": 108
                },
                {
                    "input": 96,
                    "interpolation": "LINEAR",
                    "output": 109
                },
                {
                    "input": 95,
                    "interpolation": "STEP",
                    "output": 110
                },
                {
                    "input": 96,
                    "interpolation": "LINEAR",
                    "output": 111
                },
                {
                    "input": 95,
                    "interpolation": "STEP",
                    "output": 112
                },
                {
                    "input": 95,
                    "interpolation": "STEP",
                    "output": 77
                },
                {
                    "input": 95,
                    "interpolation": "STEP",
                    "output": 113
                },
                {
                    "input": 96,
                    "interpolation": "LINEAR",
                    "output": 114
                },
                {
                    "input": 95,
                    "interpolation": "STEP",
                    "output": 58
                },
                {
                    "input": 95,
                    "interpolation": "STEP",
                    "output": 115
                },
                {
                    "input": 96,
                    "interpolation": "LINEAR",
                    "output": 116
                },
                {
                    "input": 95,
                    "interpolation": "STEP",
                    "output": 58
                },
                {
                    "input": 95,
                    "interpolation": "STEP",
                    "output": 117
                },
                {
                    "input": 96,
                    "interpolation": "LINEAR",
                    "output": 118
                },
                {
                    "input": 95,
                    "interpolation": "STEP",
                    "output": 119
                },
                {
                    "input": 95,
                    "interpolation": "STEP",
                    "output": 120
                },
                {
                    "input": 96,
                    "interpolation": "LINEAR",
                    "output": 121
                },
                {
                    "input": 95,
                    "interpolation": "STEP",
                    "output": 122
                },
                {
                    "input": 95,
                    "interpolation": "STEP",
                    "output": 123
                },
                {
                    "input": 96,
                    "interpolation": "LINEAR",
                    "output": 124
                },
                {
                    "input": 95,
                    "interpolation": "STEP",
                    "output": 122
                },
                {
                    "input": 96,
                    "interpolation": "LINEAR",
                    "output": 125
                },
                {
                    "input": 95,
                    "interpolation": "STEP",
                    "output": 126
                },
                {
                    "input": 95,
                    "interpolation": "STEP",
                    "output": 127
                },
                {
                    "input": 96,
                    "interpolation": "LINEAR",
                    "output": 128
                },
                {
                    "input": 95,
                    "interpolation": "STEP",
                    "output": 94
                },
                {
                    "input": 95,
                    "interpolation": "STEP",
                    "output": 58
                }
            ]
        }
    ],
    "materials": [
        {
            "alphaMode": "BLEND",
            "doubleSided": true,
            "name": "M_WhiteShark",
            "pbrMetallicRoughness": {
                "baseColorTexture": {
                    "index": 0
                },
                "metallicFactor": 0,
                "roughnessFactor": 0.800000011920929
            }
        }
    ],
    "meshes": [
        {
            "name": "Abdomen_Mesh",
            "primitives": [
                {
                    "attributes": {
                        "POSITION": 0,
                        "NORMAL": 1,
                        "TEXCOORD_0": 2,
                        "JOINTS_0": 3,
                        "WEIGHTS_0": 4
                    },
                    "indices": 5,
                    "material": 0
                }
            ]
        },
        {
            "name": "Head_Mesh",
            "primitives": [
                {
                    "attributes": {
                        "POSITION": 7,
                        "NORMAL": 8,
                        "TEXCOORD_0": 9,
                        "JOINTS_0": 10,
                        "WEIGHTS_0": 11
                    },
                    "indices": 12,
                    "material": 0
                }
            ]
        },
        {
            "name": "Jaw_Mesh",
            "primitives": [
                {
                    "attributes": {
                        "POSITION": 13,
                        "NORMAL": 14,
                        "TEXCOORD_0": 15,
                        "JOINTS_0": 16,
                        "WEIGHTS_0": 17
                    },
                    "indices": 18,
                    "material": 0
                }
            ]
        },
        {
            "name": "PectoralFin_L_Mesh",
            "primitives": [
                {
                    "attributes": {
                        "POSITION": 19,
                        "NORMAL": 20,
                        "TEXCOORD_0": 21,
                        "JOINTS_0": 22,
                        "WEIGHTS_0": 23
                    },
                    "indices": 24,
                    "material": 0
                }
            ]
        },
        {
            "name": "PectoralFin_R_Mesh",
            "primitives": [
                {
                    "attributes": {
                        "POSITION": 25,
                        "NORMAL": 26,
                        "TEXCOORD_0": 27,
                        "JOINTS_0": 28,
                        "WEIGHTS_0": 29
                    },
                    "indices": 30,
                    "material": 0
                }
            ]
        },
        {
            "name": "TailEnd_Mesh",
            "primitives": [
                {
                    "attributes": {
                        "POSITION": 31,
                        "NORMAL": 32,
                        "TEXCOORD_0": 33,
                        "JOINTS_0": 34,
                        "WEIGHTS_0": 35
                    },
                    "indices": 36,
                    "material": 0
                }
            ]
        },
        {
            "name": "TailStart_Mesh",
            "primitives": [
                {
                    "attributes": {
                        "POSITION": 37,
                        "NORMAL": 38,
                        "TEXCOORD_0": 39,
                        "JOINTS_0": 40,
                        "WEIGHTS_0": 41
                    },
                    "indices": 42,
                    "material": 0
                }
            ]
        },
        {
            "name": "TeethTop_Mesh",
            "primitives": [
                {
                    "attributes": {
                        "POSITION": 43,
                        "NORMAL": 44,
                        "TEXCOORD_0": 45,
                        "JOINTS_0": 46,
                        "WEIGHTS_0": 47
                    },
                    "indices": 48,
                    "material": 0
                }
            ]
        },
        {
            "name": "Torso_Mesh",
            "primitives": [
                {
                    "attributes": {
                        "POSITION": 49,
                        "NORMAL": 50,
                        "TEXCOORD_0": 51,
                        "JOINTS_0": 52,
                        "WEIGHTS_0": 53
                    },
                    "indices": 54,
                    "material": 0
                }
            ]
        }
    ],
    "textures": [
        {
            "sampler": 0,
            "source": 0
        }
    ],
    "images": [
        {
            "mimeType": "image/png",
            "name": "T_Great_White_Shark",
            "uri": "T_Great_White_Shark.png"
        }
    ],
    "skins": [
        {
            "inverseBindMatrices": 6,
            "joints": [
                13,
                11,
                2,
                1,
                0,
                5,
                3,
                4,
                6,
                7,
                8,
                9,
                10,
                12
            ],
            "name": "SK_Great_White_Shark"
        }
    ],
    "accessors": [
        {
            "bufferView": 0,
            "componentType": 5126,
            "count": 77,
            "max": [
                0.5857373476028442,
                1.1781891584396362,
                0.6589189767837524
            ],
            "min": [
                -0.5857372283935547,
                -0.6110074520111084,
                -1.0808415412902832
            ],
            "type": "VEC3"
        },
        {
            "bufferView": 1,
            "componentType": 5126,
            "count": 77,
            "type": "VEC3"
        },
        {
            "bufferView": 2,
            "componentType": 5126,
            "count": 77,
            "type": "VEC2"
        },
        {
            "bufferView": 3,
            "componentType": 5121,
            "count": 77,
            "type": "VEC4"
        },
        {
            "bufferView": 4,
            "componentType": 5126,
            "count": 77,
            "type": "VEC4"
        },
        {
            "bufferView": 5,
            "componentType": 5123,
            "count": 81,
            "type": "SCALAR"
        },
        {
            "bufferView": 6,
            "componentType": 5126,
            "count": 14,
            "type": "MAT4"
        },
        {
            "bufferView": 7,
            "componentType": 5126,
            "count": 92,
            "max": [
                0.6457172632217407,
                0.5339885354042053,
                2.964186906814575
            ],
            "min": [
                -0.6457161903381348,
                -0.33186328411102295,
                0.6561959981918335
            ],
            "type": "VEC3"
        },
        {
            "bufferView": 8,
            "componentType": 5126,
            "count": 92,
            "type": "VEC3"
        },
        {
            "bufferView": 9,
            "componentType": 5126,
            "count": 92,
            "type": "VEC2"
        },
        {
            "bufferView": 10,
            "componentType": 5121,
            "count": 92,
            "type": "VEC4"
        },
        {
            "bufferView": 11,
            "componentType": 5126,
            "count": 92,
            "type": "VEC4"
        },
        {
            "bufferView": 12,
            "componentType": 5123,
            "count": 96,
            "type": "SCALAR"
        },
        {
            "bufferView": 13,
            "componentType": 5126,
            "count": 70,
            "max": [
                0.5100180506706238,
                -0.010462522506713867,
                2.350398540496826
            ],
            "min": [
                -0.5100169777870178,
                -0.5788066983222961,
                1.3035166263580322
            ],
            "type": "VEC3"
        },
        {
            "bufferView": 14,
            "componentType": 5126,
            "count": 70,
            "type": "VEC3"
        },
        {
            "bufferView": 15,
            "componentType": 5126,
            "count": 70,
            "type": "VEC2"
        },
        {
            "bufferView": 16,
            "componentType": 5121,
            "count": 70,
            "type": "VEC4"
        },
        {
            "bufferView": 17,
            "componentType": 5126,
            "count": 70,
            "type": "VEC4"
        },
        {
            "bufferView": 18,
            "componentType": 5123,
            "count": 90,
            "type": "SCALAR"
        },
        {
            "bufferView": 19,
            "componentType": 5126,
            "count": 9,
            "max": [
                1.6745823621749878,
                -0.14487729966640472,
                0.9695147275924683
            ],
            "min": [
                0.37823420763015747,
                -0.7488484382629395,
                -0.06564885377883911
            ],
            "type": "VEC3"
        },
        {
            "bufferView": 20,
            "componentType": 5126,
            "count": 9,
            "type": "VEC3"
        },
        {
            "bufferView": 21,
            "componentType": 5126,
            "count": 9,
            "type": "VEC2"
        },
        {
            "bufferView": 22,
            "componentType": 5121,
            "count": 9,
            "type": "VEC4"
        },
        {
            "bufferView": 23,
            "componentType": 5126,
            "count": 9,
            "type": "VEC4"
        },
        {
            "bufferView": 24,
            "componentType": 5123,
            "count": 9,
            "type": "SCALAR"
        },
        {
            "bufferView": 25,
            "componentType": 5126,
            "count": 9,
            "max": [
                -0.3782339096069336,
                -0.14487729966640472,
                0.9695150852203369
            ],
            "min": [
                -1.6745823621749878,
                -0.7488484382629395,
                -0.06564754247665405
            ],
            "type": "VEC3"
        },
        {
            "bufferView": 26,
            "componentType": 5126,
            "count": 9,
            "type": "VEC3"
        },
        {
            "bufferView": 27,
            "componentType": 5126,
            "count": 9,
            "type": "VEC2"
        },
        {
            "bufferView": 28,
            "componentType": 5121,
            "count": 9,
            "type": "VEC4"
        },
        {
            "bufferView": 29,
            "componentType": 5126,
            "count": 9,
            "type": "VEC4"
        },
        {
            "bufferView": 30,
            "componentType": 5123,
            "count": 9,
            "type": "SCALAR"
        },
        {
            "bufferView": 31,
            "componentType": 5126,
            "count": 69,
            "max": [
                0.19471591711044312,
                0.9945120811462402,
                -1.7081209421157837
            ],
            "min": [
                -0.1947173774242401,
                -0.5051578283309937,
                -3.8621666431427
            ],
            "type": "VEC3"
        },
        {
            "bufferView": 32,
            "componentType": 5126,
            "count": 69,
            "type": "VEC3"
        },
        {
            "bufferView": 33,
            "componentType": 5126,
            "count": 69,
            "type": "VEC2"
        },
        {
            "bufferView": 34,
            "componentType": 5121,
            "count": 69,
            "type": "VEC4"
        },
        {
            "bufferView": 35,
            "componentType": 5126,
            "count": 69,
            "type": "VEC4"
        },
        {
            "bufferView": 36,
            "componentType": 5123,
            "count": 87,
            "type": "SCALAR"
        },
        {
            "bufferView": 37,
            "componentType": 5126,
            "count": 70,
            "max": [
                0.42946672439575195,
                0.42773064970970154,
                -0.04582946002483368
            ],
            "min": [
                -0.42946720123291016,
                -0.5274969339370728,
                -2.1030240058898926
            ],
            "type": "VEC3"
        },
        {
            "bufferView": 38,
            "componentType": 5126,
            "count": 70,
            "type": "VEC3"
        },
        {
            "bufferView": 39,
            "componentType": 5126,
            "count": 70,
            "type": "VEC2"
        },
        {
            "bufferView": 40,
            "componentType": 5121,
            "count": 70,
            "type": "VEC4"
        },
        {
            "bufferView": 41,
            "componentType": 5126,
            "count": 70,
            "type": "VEC4"
        },
        {
            "bufferView": 42,
            "componentType": 5123,
            "count": 78,
            "type": "SCALAR"
        },
        {
            "bufferView": 43,
            "componentType": 5126,
            "count": 16,
            "max": [
                0.5243195295333862,
                -0.01276850700378418,
                2.5594770908355713
            ],
            "min": [
                -0.5243183374404907,
                -0.2998623251914978,
                1.5069470405578613
            ],
            "type": "VEC3"
        },
        {
            "bufferView": 44,
            "componentType": 5126,
            "count": 16,
            "type": "VEC3"
        },
        {
            "bufferView": 45,
            "componentType": 5126,
            "count": 16,
            "type": "VEC2"
        },
        {
            "bufferView": 46,
            "componentType": 5121,
            "count": 16,
            "type": "VEC4"
        },
        {
            "bufferView": 47,
            "componentType": 5126,
            "count": 16,
            "type": "VEC4"
        },
        {
            "bufferView": 48,
            "componentType": 5123,
            "count": 24,
            "type": "SCALAR"
        },
        {
            "bufferView": 49,
            "componentType": 5126,
            "count": 72,
            "max": [
                0.6187415719032288,
                0.5417206287384033,
                1.4573724269866943
            ],
            "min": [
                -0.6187404990196228,
                -0.6252559423446655,
                -0.3792645335197449
            ],
            "type": "VEC3"
        },
        {
            "bufferView": 50,
            "componentType": 5126,
            "count": 72,
            "type": "VEC3"
        },
        {
            "bufferView": 51,
            "componentType": 5126,
            "count": 72,
            "type": "VEC2"
        },
        {
            "bufferView": 52,
            "componentType": 5121,
            "count": 72,
            "type": "VEC4"
        },
        {
            "bufferView": 53,
            "componentType": 5126,
            "count": 72,
            "type": "VEC4"
        },
        {
            "bufferView": 54,
            "componentType": 5123,
            "count": 72,
            "type": "SCALAR"
        },
        {
            "bufferView": 55,
            "componentType": 5126,
            "count": 2,
            "max": [
                1.9583333333333333
            ],
            "min": [
                0
            ],
            "type": "SCALAR"
        },
        {
            "bufferView": 56,
            "componentType": 5126,
            "count": 2,
            "type": "VEC3"
        },
        {
            "bufferView": 57,
            "componentType": 5126,
            "count": 2,
            "type": "VEC4"
        },
        {
            "bufferView": 58,
            "componentType": 5126,
            "count": 2,
            "type": "VEC3"
        },
        {
            "bufferView": 59,
            "componentType": 5126,
            "count": 2,
            "type": "VEC3"
        },
        {
            "bufferView": 60,
            "componentType": 5126,
            "count": 48,
            "max": [
                1.9583333333333333
            ],
            "min": [
                0
            ],
            "type": "SCALAR"
        },
        {
            "bufferView": 61,
            "componentType": 5126,
            "count": 48,
            "type": "VEC4"
        },
        {
            "bufferView": 62,
            "componentType": 5126,
            "count": 2,
            "type": "VEC3"
        },
        {
            "bufferView": 63,
            "componentType": 5126,
            "count": 2,
            "type": "VEC3"
        },
        {
            "bufferView": 64,
            "componentType": 5126,
            "count": 48,
            "type": "VEC4"
        },
        {
            "bufferView": 65,
            "componentType": 5126,
            "count": 2,
            "type": "VEC3"
        },
        {
            "bufferView": 66,
            "componentType": 5126,
            "count": 2,
            "type": "VEC3"
        },
        {
            "bufferView": 67,
            "componentType": 5126,
            "count": 48,
            "type": "VEC4"
        },
        {
            "bufferView": 68,
            "componentType": 5126,
            "count": 2,
            "type": "VEC3"
        },
        {
            "bufferView": 69,
            "componentType": 5126,
            "count": 2,
            "type": "VEC3"
        },
        {
            "bufferView": 70,
            "componentType": 5126,
            "count": 48,
            "type": "VEC4"
        },
        {
            "bufferView": 71,
            "componentType": 5126,
            "count": 2,
            "type": "VEC3"
        },
        {
            "bufferView": 72,
            "componentType": 5126,
            "count": 2,
            "type": "VEC3"
        },
        {
            "bufferView": 73,
            "componentType": 5126,
            "count": 48,
            "type": "VEC4"
        },
        {
            "bufferView": 74,
            "componentType": 5126,
            "count": 2,
            "type": "VEC3"
        },
        {
            "bufferView": 75,
            "componentType": 5126,
            "count": 2,
            "type": "VEC3"
        },
        {
            "bufferView": 76,
            "componentType": 5126,
            "count": 2,
            "type": "VEC4"
        },
        {
            "bufferView": 77,
            "componentType": 5126,
            "count": 2,
            "type": "VEC3"
        },
        {
            "bufferView": 78,
            "componentType": 5126,
            "count": 2,
            "type": "VEC3"
        },
        {
            "bufferView": 79,
            "componentType": 5126,
            "count": 2,
            "type": "VEC4"
        },
        {
            "bufferView": 80,
            "componentType": 5126,
            "count": 2,
            "type": "VEC3"
        },
        {
            "bufferView": 81,
            "componentType": 5126,
            "count": 2,
            "type": "VEC3"
        },
        {
            "bufferView": 82,
            "componentType": 5126,
            "count": 2,
            "type": "VEC4"
        },
        {
            "bufferView": 83,
            "componentType": 5126,
            "count": 2,
            "type": "VEC3"
        },
        {
            "bufferView": 84,
            "componentType": 5126,
            "count": 2,
            "type": "VEC3"
        },
        {
            "bufferView": 85,
            "componentType": 5126,
            "count": 2,
            "type": "VEC4"
        },
        {
            "bufferView": 86,
            "componentType": 5126,
            "count": 2,
            "type": "VEC3"
        },
        {
            "bufferView": 87,
            "componentType": 5126,
            "count": 2,
            "type": "VEC3"
        },
        {
            "bufferView": 88,
            "componentType": 5126,
            "count": 48,
            "type": "VEC4"
        },
        {
            "bufferView": 89,
            "componentType": 5126,
            "count": 2,
            "type": "VEC3"
        },
        {
            "bufferView": 90,
            "componentType": 5126,
            "count": 48,
            "type": "VEC4"
        },
        {
            "bufferView": 91,
            "componentType": 5126,
            "count": 2,
            "type": "VEC3"
        },
        {
            "bufferView": 92,
            "componentType": 5126,
            "count": 2,
            "type": "VEC4"
        },
        {
            "bufferView": 93,
            "componentType": 5126,
            "count": 2,
            "type": "VEC3"
        },
        {
            "bufferView": 94,
            "componentType": 5126,
            "count": 2,
            "type": "VEC4"
        },
        {
            "bufferView": 95,
            "componentType": 5126,
            "count": 2,
            "max": [
                1.75
            ],
            "min": [
                0
            ],
            "type": "SCALAR"
        },
        {
            "bufferView": 96,
            "componentType": 5126,
            "count": 43,
            "max": [
                1.75
            ],
            "min": [
                0
            ],
            "type": "SCALAR"
        },
        {
            "bufferView": 97,
            "componentType": 5126,
            "count": 43,
            "type": "VEC3"
        },
        {
            "bufferView": 98,
            "componentType": 5126,
            "count": 43,
            "type": "VEC4"
        },
        {
            "bufferView": 99,
            "componentType": 5126,
            "count": 2,
            "type": "VEC3"
        },
        {
            "bufferView": 100,
            "componentType": 5126,
            "count": 43,
            "type": "VEC4"
        },
        {
            "bufferView": 101,
            "componentType": 5126,
            "count": 2,
            "type": "VEC3"
        },
        {
            "bufferView": 102,
            "componentType": 5126,
            "count": 2,
            "type": "VEC3"
        },
        {
            "bufferView": 103,
            "componentType": 5126,
            "count": 43,
            "type": "VEC4"
        },
        {
            "bufferView": 104,
            "componentType": 5126,
            "count": 2,
            "type": "VEC3"
        },
        {
            "bufferView": 105,
            "componentType": 5126,
            "count": 2,
            "type": "VEC3"
        },
        {
            "bufferView": 106,
            "componentType": 5126,
            "count": 43,
            "type": "VEC4"
        },
        {
            "bufferView": 107,
            "componentType": 5126,
            "count": 2,
            "type": "VEC3"
        },
        {
            "bufferView": 108,
            "componentType": 5126,
            "count": 2,
            "type": "VEC3"
        },
        {
            "bufferView": 109,
            "componentType": 5126,
            "count": 43,
            "type": "VEC4"
        },
        {
            "bufferView": 110,
            "componentType": 5126,
            "count": 2,
            "type": "VEC3"
        },
        {
            "bufferView": 111,
            "componentType": 5126,
            "count": 43,
            "type": "VEC3"
        },
        {
            "bufferView": 112,
            "componentType": 5126,
            "count": 2,
            "type": "VEC4"
        },
        {
            "bufferView": 113,
            "componentType": 5126,
            "count": 2,
            "type": "VEC3"
        },
        {
            "bufferView": 114,
            "componentType": 5126,
            "count": 43,
            "type": "VEC4"
        },
        {
            "bufferView": 115,
            "componentType": 5126,
            "count": 2,
            "type": "VEC3"
        },
        {
            "bufferView": 116,
            "componentType": 5126,
            "count": 43,
            "type": "VEC4"
        },
        {
            "bufferView": 117,
            "componentType": 5126,
            "count": 2,
            "type": "VEC3"
        },
        {
            "bufferView": 118,
            "componentType": 5126,
            "count": 43,
            "type": "VEC4"
        },
        {
            "bufferView": 119,
            "componentType": 5126,
            "count": 2,
            "type": "VEC3"
        },
        {
            "bufferView": 120,
            "componentType": 5126,
            "count": 2,
            "type": "VEC3"
        },
        {
            "bufferView": 121,
            "componentType": 5126,
            "count": 43,
            "type": "VEC4"
        },
        {
            "bufferView": 122,
            "componentType": 5126,
            "count": 2,
            "type": "VEC3"
        },
        {
            "bufferView": 123,
            "componentType": 5126,
            "count": 2,
            "type": "VEC3"
        },
        {
            "bufferView": 124,
            "componentType": 5126,
            "count": 43,
            "type": "VEC4"
        },
        {
            "bufferView": 125,
            "componentType": 5126,
            "count": 43,
            "type": "VEC3"
        },
        {
            "bufferView": 126,
            "componentType": 5126,
            "count": 2,
            "type": "VEC4"
        },
        {
            "bufferView": 127,
            "componentType": 5126,
            "count": 2,
            "type": "VEC3"
        },
        {
            "bufferView": 128,
            "componentType": 5126,
            "count": 43,
            "type": "VEC3"
        }
    ],
    "bufferViews": [
        {
            "buffer": 0,
            "byteLength": 924,
            "byteOffset": 0,
            "target": 34962
        },
        {
            "buffer": 0,
            "byteLength": 924,
            "byteOffset": 924,
            "target": 34962
        },
        {
            "buffer": 0,
            "byteLength": 616,
            "byteOffset": 1848,
            "target": 34962
        },
        {
            "buffer": 0,
            "byteLength": 308,
            "byteOffset": 2464,
            "target": 34962
        },
        {
            "buffer": 0,
            "byteLength": 1232,
            "byteOffset": 2772,
            "target": 34962
        },
        {
            "buffer": 0,
            "byteLength": 162,
            "byteOffset": 4004,
            "target": 34963
        },
        {
            "buffer": 0,
            "byteLength": 896,
            "byteOffset": 4168
        },
        {
            "buffer": 0,
            "byteLength": 1104,
            "byteOffset": 5064,
            "target": 34962
        },
        {
            "buffer": 0,
            "byteLength": 1104,
            "byteOffset": 6168,
            "target": 34962
        },
        {
            "buffer": 0,
            "byteLength": 736,
            "byteOffset": 7272,
            "target": 34962
        },
        {
            "buffer": 0,
            "byteLength": 368,
            "byteOffset": 8008,
            "target": 34962
        },
        {
            "buffer": 0,
            "byteLength": 1472,
            "byteOffset": 8376,
            "target": 34962
        },
        {
            "buffer": 0,
            "byteLength": 192,
            "byteOffset": 9848,
            "target": 34963
        },
        {
            "buffer": 0,
            "byteLength": 840,
            "byteOffset": 10040,
            "target": 34962
        },
        {
            "buffer": 0,
            "byteLength": 840,
            "byteOffset": 10880,
            "target": 34962
        },
        {
            "buffer": 0,
            "byteLength": 560,
            "byteOffset": 11720,
            "target": 34962
        },
        {
            "buffer": 0,
            "byteLength": 280,
            "byteOffset": 12280,
            "target": 34962
        },
        {
            "buffer": 0,
            "byteLength": 1120,
            "byteOffset": 12560,
            "target": 34962
        },
        {
            "buffer": 0,
            "byteLength": 180,
            "byteOffset": 13680,
            "target": 34963
        },
        {
            "buffer": 0,
            "byteLength": 108,
            "byteOffset": 13860,
            "target": 34962
        },
        {
            "buffer": 0,
            "byteLength": 108,
            "byteOffset": 13968,
            "target": 34962
        },
        {
            "buffer": 0,
            "byteLength": 72,
            "byteOffset": 14076,
            "target": 34962
        },
        {
            "buffer": 0,
            "byteLength": 36,
            "byteOffset": 14148,
            "target": 34962
        },
        {
            "buffer": 0,
            "byteLength": 144,
            "byteOffset": 14184,
            "target": 34962
        },
        {
            "buffer": 0,
            "byteLength": 18,
            "byteOffset": 14328,
            "target": 34963
        },
        {
            "buffer": 0,
            "byteLength": 108,
            "byteOffset": 14348,
            "target": 34962
        },
        {
            "buffer": 0,
            "byteLength": 108,
            "byteOffset": 14456,
            "target": 34962
        },
        {
            "buffer": 0,
            "byteLength": 72,
            "byteOffset": 14564,
            "target": 34962
        },
        {
            "buffer": 0,
            "byteLength": 36,
            "byteOffset": 14636,
            "target": 34962
        },
        {
            "buffer": 0,
            "byteLength": 144,
            "byteOffset": 14672,
            "target": 34962
        },
        {
            "buffer": 0,
            "byteLength": 18,
            "byteOffset": 14816,
            "target": 34963
        },
        {
            "buffer": 0,
            "byteLength": 828,
            "byteOffset": 14836,
            "target": 34962
        },
        {
            "buffer": 0,
            "byteLength": 828,
            "byteOffset": 15664,
            "target": 34962
        },
        {
            "buffer": 0,
            "byteLength": 552,
            "byteOffset": 16492,
            "target": 34962
        },
        {
            "buffer": 0,
            "byteLength": 276,
            "byteOffset": 17044,
            "target": 34962
        },
        {
            "buffer": 0,
            "byteLength": 1104,
            "byteOffset": 17320,
            "target": 34962
        },
        {
            "buffer": 0,
            "byteLength": 174,
            "byteOffset": 18424,
            "target": 34963
        },
        {
            "buffer": 0,
            "byteLength": 840,
            "byteOffset": 18600,
            "target": 34962
        },
        {
            "buffer": 0,
            "byteLength": 840,
            "byteOffset": 19440,
            "target": 34962
        },
        {
            "buffer": 0,
            "byteLength": 560,
            "byteOffset": 20280,
            "target": 34962
        },
        {
            "buffer": 0,
            "byteLength": 280,
            "byteOffset": 20840,
            "target": 34962
        },
        {
            "buffer": 0,
            "byteLength": 1120,
            "byteOffset": 21120,
            "target": 34962
        },
        {
            "buffer": 0,
            "byteLength": 156,
            "byteOffset": 22240,
            "target": 34963
        },
        {
            "buffer": 0,
            "byteLength": 192,
            "byteOffset": 22396,
            "target": 34962
        },
        {
            "buffer": 0,
            "byteLength": 192,
            "byteOffset": 22588,
            "target": 34962
        },
        {
            "buffer": 0,
            "byteLength": 128,
            "byteOffset": 22780,
            "target": 34962
        },
        {
            "buffer": 0,
            "byteLength": 64,
            "byteOffset": 22908,
            "target": 34962
        },
        {
            "buffer": 0,
            "byteLength": 256,
            "byteOffset": 22972,
            "target": 34962
        },
        {
            "buffer": 0,
            "byteLength": 48,
            "byteOffset": 23228,
            "target": 34963
        },
        {
            "buffer": 0,
            "byteLength": 864,
            "byteOffset": 23276,
            "target": 34962
        },
        {
            "buffer": 0,
            "byteLength": 864,
            "byteOffset": 24140,
            "target": 34962
        },
        {
            "buffer": 0,
            "byteLength": 576,
            "byteOffset": 25004,
            "target": 34962
        },
        {
            "buffer": 0,
            "byteLength": 288,
            "byteOffset": 25580,
            "target": 34962
        },
        {
            "buffer": 0,
            "byteLength": 1152,
            "byteOffset": 25868,
            "target": 34962
        },
        {
            "buffer": 0,
            "byteLength": 144,
            "byteOffset": 27020,
            "target": 34963
        },
        {
            "buffer": 0,
            "byteLength": 8,
            "byteOffset": 27164
        },
        {
            "buffer": 0,
            "byteLength": 24,
            "byteOffset": 27172
        },
        {
            "buffer": 0,
            "byteLength": 32,
            "byteOffset": 27196
        },
        {
            "buffer": 0,
            "byteLength": 24,
            "byteOffset": 27228
        },
        {
            "buffer": 0,
            "byteLength": 24,
            "byteOffset": 27252
        },
        {
            "buffer": 0,
            "byteLength": 192,
            "byteOffset": 27276
        },
        {
            "buffer": 0,
            "byteLength": 768,
            "byteOffset": 27468
        },
        {
            "buffer": 0,
            "byteLength": 24,
            "byteOffset": 28236
        },
        {
            "buffer": 0,
            "byteLength": 24,
            "byteOffset": 28260
        },
        {
            "buffer": 0,
            "byteLength": 768,
            "byteOffset": 28284
        },
        {
            "buffer": 0,
            "byteLength": 24,
            "byteOffset": 29052
        },
        {
            "buffer": 0,
            "byteLength": 24,
            "byteOffset": 29076
        },
        {
            "buffer": 0,
            "byteLength": 768,
            "byteOffset": 29100
        },
        {
            "buffer": 0,
            "byteLength": 24,
            "byteOffset": 29868
        },
        {
            "buffer": 0,
            "byteLength": 24,
            "byteOffset": 29892
        },
        {
            "buffer": 0,
            "byteLength": 768,
            "byteOffset": 29916
        },
        {
            "buffer": 0,
            "byteLength": 24,
            "byteOffset": 30684
        },
        {
            "buffer": 0,
            "byteLength": 24,
            "byteOffset": 30708
        },
        {
            "buffer": 0,
            "byteLength": 768,
            "byteOffset": 30732
        },
        {
            "buffer": 0,
            "byteLength": 24,
            "byteOffset": 31500
        },
        {
            "buffer": 0,
            "byteLength": 24,
            "byteOffset": 31524
        },
        {
            "buffer": 0,
            "byteLength": 32,
            "byteOffset": 31548
        },
        {
            "buffer": 0,
            "byteLength": 24,
            "byteOffset": 31580
        },
        {
            "buffer": 0,
            "byteLength": 24,
            "byteOffset": 31604
        },
        {
            "buffer": 0,
            "byteLength": 32,
            "byteOffset": 31628
        },
        {
            "buffer": 0,
            "byteLength": 24,
            "byteOffset": 31660
        },
        {
            "buffer": 0,
            "byteLength": 24,
            "byteOffset": 31684
        },
        {
            "buffer": 0,
            "byteLength": 32,
            "byteOffset": 31708
        },
        {
            "buffer": 0,
            "byteLength": 24,
            "byteOffset": 31740
        },
        {
            "buffer": 0,
            "byteLength": 24,
            "byteOffset": 31764
        },
        {
            "buffer": 0,
            "byteLength": 32,
            "byteOffset": 31788
        },
        {
            "buffer": 0,
            "byteLength": 24,
            "byteOffset": 31820
        },
        {
            "buffer": 0,
            "byteLength": 24,
            "byteOffset": 31844
        },
        {
            "buffer": 0,
            "byteLength": 768,
            "byteOffset": 31868
        },
        {
            "buffer": 0,
            "byteLength": 24,
            "byteOffset": 32636
        },
        {
            "buffer": 0,
            "byteLength": 768,
            "byteOffset": 32660
        },
        {
            "buffer": 0,
            "byteLength": 24,
            "byteOffset": 33428
        },
        {
            "buffer": 0,
            "byteLength": 32,
            "byteOffset": 33452
        },
        {
            "buffer": 0,
            "byteLength": 24,
            "byteOffset": 33484
        },
        {
            "buffer": 0,
            "byteLength": 32,
            "byteOffset": 33508
        },
        {
            "buffer": 0,
            "byteLength": 8,
            "byteOffset": 33540
        },
        {
            "buffer": 0,
            "byteLength": 172,
            "byteOffset": 33548
        },
        {
            "buffer": 0,
            "byteLength": 516,
            "byteOffset": 33720
        },
        {
            "buffer": 0,
            "byteLength": 688,
            "byteOffset": 34236
        },
        {
            "buffer": 0,
            "byteLength": 24,
            "byteOffset": 34924
        },
        {
            "buffer": 0,
            "byteLength": 688,
            "byteOffset": 34948
        },
        {
            "buffer": 0,
            "byteLength": 24,
            "byteOffset": 35636
        },
        {
            "buffer": 0,
            "byteLength": 24,
            "byteOffset": 35660
        },
        {
            "buffer": 0,
            "byteLength": 688,
            "byteOffset": 35684
        },
        {
            "buffer": 0,
            "byteLength": 24,
            "byteOffset": 36372
        },
        {
            "buffer": 0,
            "byteLength": 24,
            "byteOffset": 36396
        },
        {
            "buffer": 0,
            "byteLength": 688,
            "byteOffset": 36420
        },
        {
            "buffer": 0,
            "byteLength": 24,
            "byteOffset": 37108
        },
        {
            "buffer": 0,
            "byteLength": 24,
            "byteOffset": 37132
        },
        {
            "buffer": 0,
            "byteLength": 688,
            "byteOffset": 37156
        },
        {
            "buffer": 0,
            "byteLength": 24,
            "byteOffset": 37844
        },
        {
            "buffer": 0,
            "byteLength": 516,
            "byteOffset": 37868
        },
        {
            "buffer": 0,
            "byteLength": 32,
            "byteOffset": 38384
        },
        {
            "buffer": 0,
            "byteLength": 24,
            "byteOffset": 38416
        },
        {
            "buffer": 0,
            "byteLength": 688,
            "byteOffset": 38440
        },
        {
            "buffer": 0,
            "byteLength": 24,
            "byteOffset": 39128
        },
        {
            "buffer": 0,
            "byteLength": 688,
            "byteOffset": 39152
        },
        {
            "buffer": 0,
            "byteLength": 24,
            "byteOffset": 39840
        },
        {
            "buffer": 0,
            "byteLength": 688,
            "byteOffset": 39864
        },
        {
            "buffer": 0,
            "byteLength": 24,
            "byteOffset": 40552
        },
        {
            "buffer": 0,
            "byteLength": 24,
            "byteOffset": 40576
        },
        {
            "buffer": 0,
            "byteLength": 688,
            "byteOffset": 40600
        },
        {
            "buffer": 0,
            "byteLength": 24,
            "byteOffset": 41288
        },
        {
            "buffer": 0,
            "byteLength": 24,
            "byteOffset": 41312
        },
        {
            "buffer": 0,
            "byteLength": 688,
            "byteOffset": 41336
        },
        {
            "buffer": 0,
            "byteLength": 516,
            "byteOffset": 42024
        },
        {
            "buffer": 0,
            "byteLength": 32,
            "byteOffset": 42540
        },
        {
            "buffer": 0,
            "byteLength": 24,
            "byteOffset": 42572
        },
        {
            "buffer": 0,
            "byteLength": 516,
            "byteOffset": 42596
        }
    ],
    "samplers": [
        {
            "magFilter": 9728,
            "minFilter": 9984
        }
    ],
    "buffers": [
        {
            "byteLength": 43112,
            "uri": "SK_Great_White_Shark.bin"
        }
    ]
}