# Blender 3.4.0
# www.blender.org
mtllib button_etx_blue_2.mtl
o button_etx_blue_2
v -0.036000 -0.063000 0.054000
v 0.063000 -0.072000 0.000000
v 0.045000 -0.090000 0.000000
v -0.045000 -0.090000 0.000000
v -0.063000 -0.072000 0.000000
v 0.036000 0.063000 0.054000
v -0.036000 0.063000 0.054000
v 0.045000 0.090000 0.000000
v 0.063000 0.072000 0.000000
v -0.063000 0.072000 0.000000
v -0.045000 0.090000 0.000000
v 0.063000 -0.072000 0.054000
v 0.045000 -0.090000 0.054000
v -0.045000 -0.090000 0.054000
v -0.063000 -0.072000 0.054000
v 0.045000 0.090000 0.054000
v 0.063000 0.072000 0.054000
v -0.063000 0.072000 0.054000
v -0.045000 0.090000 0.054000
v 0.028800 -0.055800 0.063000
v -0.028800 -0.055800 0.063000
v 0.036000 -0.063000 0.054000
v 0.028800 0.055800 0.063000
v -0.028800 0.055800 0.063000
v 0.036000 -0.063000 0.063000
v -0.036000 -0.063000 0.063000
v -0.036000 0.063000 0.063000
v 0.036000 0.063000 0.063000
v 0.028800 -0.055800 0.045000
v -0.028800 -0.055800 0.045000
v -0.028800 0.055800 0.045000
v 0.028800 0.055800 0.045000
vn -0.0000 1.0000 -0.0000
vn -1.0000 -0.0000 -0.0000
vn -0.0000 -1.0000 -0.0000
vn 0.7071 -0.7071 -0.0000
vn -0.7071 -0.7071 -0.0000
vn 0.7071 0.7071 -0.0000
vn -0.7071 0.7071 -0.0000
vn 1.0000 -0.0000 -0.0000
vn -0.0000 -0.0000 1.0000
vt 0.127095 0.119272
vt 0.171197 0.206992
vt 0.147197 0.193278
vt 0.181641 0.079668
vt 0.181641 0.125566
vt 0.181641 0.093828
vt 0.181641 0.089433
vt 0.181641 0.125566
vt 0.181641 0.065019
vt 0.181641 0.074785
vt 0.171655 0.093809
vt 0.171197 0.179564
vt 0.195197 0.193278
vt 0.171655 0.119272
vt 0.171197 0.206992
vt 0.195197 0.193278
vt 0.181641 0.106523
vt 0.181641 0.065019
vt 0.181641 0.074785
vt 0.181641 0.125566
vt 0.181641 0.065019
vt 0.181641 0.074785
vt 0.201172 0.079668
vt 0.201172 0.125566
vt 0.123912 0.084261
vt 0.201172 0.093828
vt 0.201172 0.089433
vt 0.117547 0.090626
vt 0.201172 0.125566
vt 0.201172 0.065019
vt 0.117547 0.122455
vt 0.201172 0.074785
vt 0.123912 0.128820
vt 0.201172 0.106523
vt 0.201172 0.065019
vt 0.181203 0.090626
vt 0.201172 0.074785
vt 0.174838 0.084261
vt 0.201172 0.125566
vt 0.201172 0.065019
vt 0.174838 0.128820
vt 0.201172 0.074785
vt 0.181203 0.122455
vt 0.149940 0.189849
vt 0.149940 0.182306
vt 0.167768 0.182306
vt 0.149940 0.204249
vt 0.167768 0.204249
vt 0.149940 0.189849
vt 0.127095 0.093809
vt 0.171197 0.179564
vt 0.147197 0.193278
vt 0.192454 0.189849
vt 0.192454 0.182306
vt 0.167768 0.182306
vt 0.192454 0.204249
vt 0.192454 0.189849
vt 0.167768 0.204249
vt 0.167768 0.179564
vt 0.147197 0.189849
vt 0.147197 0.179564
vt 0.167768 0.206992
vt 0.147197 0.189849
vt 0.147197 0.206992
vt 0.167768 0.206992
vt 0.195197 0.189849
vt 0.195197 0.206992
vt 0.167768 0.179564
vt 0.195197 0.189849
vt 0.195197 0.179564
vt 0.149940 0.196706
vt 0.174625 0.182306
vt 0.150391 0.179688
vt 0.174625 0.204249
vt 0.149940 0.196706
vt 0.150391 0.203125
vt 0.192454 0.196706
vt 0.174625 0.204249
vt 0.193359 0.203125
vt 0.192454 0.196706
vt 0.174625 0.182306
vt 0.193359 0.179688
s 0
usemtl electronics_etx_part_1
f 8/17/1 11/22/1 19/42/1 16/34/1
f 10/20/2 5/10/2 15/32/2 18/39/2
f 13/26/3 14/29/3 4/8/3 3/6/3
f 2/4/4 12/23/4 13/27/4 3/7/4
f 15/32/5 5/10/5 4/9/5 14/30/5
f 17/37/6 9/19/6 8/18/6 16/35/6
f 10/21/7 18/40/7 19/42/7 11/22/7
f 2/5/8 9/19/8 17/37/8 12/24/8
f 22/50/9 13/28/9 12/25/9
f 1/1/9 15/33/9 14/31/9
f 6/11/9 17/38/9 16/36/9
f 7/14/9 19/43/9 18/41/9
f 6/11/9 22/50/9 12/25/9 17/38/9
f 22/50/9 1/1/9 14/31/9 13/28/9
f 7/14/9 6/11/9 16/36/9 19/43/9
f 1/1/9 7/14/9 18/41/9 15/33/9
f 25/59/3 26/62/3 1/2/3 22/51/3
f 6/12/1 7/15/1 27/65/1 28/68/1
f 20/44/2 23/53/2 32/80/2 29/71/2
f 22/52/8 6/13/8 28/69/8 25/60/8
f 7/16/2 1/3/2 26/63/2 27/66/2
f 20/45/9 21/47/9 26/64/9 25/61/9
f 24/56/9 23/54/9 28/70/9 27/67/9
f 23/54/9 20/45/9 25/61/9 28/70/9
f 21/47/9 24/56/9 27/67/9 26/64/9
f 21/48/1 20/46/1 29/72/1 30/74/1
f 24/57/8 21/49/8 30/75/8 31/77/8
f 23/55/3 24/58/3 31/78/3 32/81/3
f 29/73/9 32/82/9 31/79/9 30/76/9
o button_etx_blue_2_child
v 0.026998 -0.035672 0.087784
v -0.027002 -0.035672 0.087784
v 0.026998 -0.054490 0.059283
v -0.027002 -0.054490 0.059283
v 0.026998 0.047784 0.065422
v -0.027002 0.047784 0.065422
v 0.026998 0.049830 0.031331
v -0.027002 0.049830 0.031331
v 0.026998 -0.002330 0.045307
v -0.027002 -0.002330 0.045307
v 0.026998 0.003261 0.066171
v -0.027002 0.003261 0.066171
vn -0.0000 -0.8345 0.5510
vn -0.0000 0.9982 0.0599
vn -0.0000 0.4854 0.8743
vn 1.0000 -0.0000 -0.0000
vn -1.0000 -0.0000 -0.0000
vn -0.0000 0.0168 0.9999
vt 0.087891 0.410156
vt 0.121094 0.412109
vt 0.091720 0.409948
vt 0.087891 0.390625
vt 0.121094 0.392578
vt 0.091716 0.409869
vt 0.099609 0.410156
vt 0.087776 0.399023
vt 0.099609 0.390625
vt 0.087778 0.399054
vt 0.087891 0.410156
vt 0.123801 0.409948
vt 0.136719 0.412109
vt 0.087891 0.390625
vt 0.123805 0.409869
vt 0.136719 0.392578
vt 0.099609 0.410156
vt 0.127745 0.399023
vt 0.099609 0.390625
vt 0.127743 0.399054
vt 0.107778 0.399056
vt 0.107741 0.399091
vt 0.136719 0.412109
vt 0.107733 0.406192
vt 0.121094 0.412109
vt 0.136719 0.392578
vt 0.107791 0.406139
vt 0.121094 0.392578
s 0
usemtl electronics_etx_part_1
f 33/83/10 34/86/10 36/91/10 35/89/10
f 39/99/11 40/101/11 38/96/11 37/93/11
f 43/105/12 44/108/12 34/87/12 33/84/12
f 41/103/13 39/100/13 37/94/13 43/106/13
f 42/104/14 36/92/14 34/88/14 44/109/14
f 40/102/14 42/104/14 44/109/14 38/97/14
f 35/90/13 41/103/13 43/106/13 33/85/13
f 37/95/15 38/98/15 44/110/15 43/107/15
