# Blender 3.4.0
# www.blender.org
mtllib cup_etx_1.mtl
o cup_etx_1
v -0.048824 0.140000 0.028188
v -0.045685 0.136500 0.026377
v -0.026377 0.136500 0.045686
v -0.028188 0.140000 0.048824
v -0.052753 0.136500 -0.000000
v -0.056377 0.140000 -0.000000
v -0.026377 0.136500 -0.045686
v -0.045685 0.136500 -0.026377
v 0.000000 0.136500 0.052753
v 0.028188 0.140000 0.048824
v 0.026377 0.136500 0.045686
v 0.045685 0.136500 0.026377
v 0.056377 0.140000 -0.000000
v 0.052753 0.136500 -0.000000
v 0.000000 0.136500 -0.052753
v 0.000000 0.140000 -0.056377
v 0.048824 0.140000 -0.028188
v 0.045685 0.136500 -0.026377
v 0.028188 0.140000 -0.048824
v 0.026377 0.136500 -0.045686
v 0.060000 0.136500 -0.000000
v 0.048824 0.140000 0.028188
v 0.051962 0.136500 0.030000
v -0.030000 0.136500 -0.051962
v -0.028188 0.140000 -0.048824
v 0.000000 0.136500 -0.060000
v -0.051962 0.136500 0.030000
v -0.060000 0.136500 -0.000000
v 0.000000 0.136500 0.060000
v 0.000000 0.140000 0.056377
v -0.030000 0.136500 0.051962
v -0.051962 0.136500 -0.030000
v -0.048824 0.140000 -0.028188
v 0.051962 0.136500 -0.030000
v 0.030000 0.136500 -0.051962
v 0.030000 0.136500 0.051962
v 0.052753 0.015000 -0.000000
v 0.032048 0.007000 0.000000
v 0.027754 0.007000 0.016024
v 0.045685 0.015000 0.026377
v -0.026377 0.015000 -0.045686
v -0.016024 0.007000 -0.027754
v -0.000000 0.007000 -0.032048
v 0.000000 0.015000 -0.052753
v -0.045685 0.015000 0.026377
v -0.027754 0.007000 0.016024
v -0.032048 0.007000 0.000000
v -0.052753 0.015000 -0.000000
v 0.000000 0.015000 0.052753
v -0.000000 0.007000 0.032048
v -0.016024 0.007000 0.027754
v -0.026377 0.015000 0.045686
v -0.045685 0.015000 -0.026377
v -0.027754 0.007000 -0.016024
v 0.045685 0.015000 -0.026377
v 0.027754 0.007000 -0.016024
v 0.026377 0.015000 -0.045686
v 0.016024 0.007000 -0.027754
v 0.026377 0.015000 0.045686
v 0.016024 0.007000 0.027754
v 0.056996 0.114912 0.009500
v 0.056996 0.110000 0.005550
v 0.056996 0.120000 0.005550
v 0.056996 0.040000 0.005550
v 0.056996 0.035053 0.009500
v 0.056996 0.030000 0.005550
v 0.071531 0.114914 0.009500
v 0.071547 0.110000 0.005550
v 0.064996 0.040000 0.005550
v 0.064978 0.035033 0.009500
v 0.106301 0.079965 0.005550
v 0.101547 0.079980 0.009500
v 0.071512 0.119986 0.005550
v 0.086591 0.107426 0.005550
v 0.088932 0.111523 0.009500
v 0.095729 0.098900 0.005550
v 0.096624 0.080000 0.005550
v 0.100200 0.101460 0.009500
v 0.104329 0.103824 0.005550
v 0.091512 0.116037 0.005550
v 0.064960 0.030014 0.005550
v 0.091001 0.061790 0.005550
v 0.080039 0.047662 0.005550
v 0.082589 0.043241 0.009500
v 0.084960 0.039050 0.005550
v 0.095137 0.059318 0.009500
v 0.099601 0.056866 0.005550
v 0.056996 0.110000 -0.005550
v 0.056996 0.114912 -0.009500
v 0.056996 0.120000 -0.005550
v 0.056996 0.035053 -0.009500
v 0.056996 0.040000 -0.005550
v 0.056996 0.030000 -0.005550
v 0.071547 0.110000 -0.005550
v 0.064996 0.040000 -0.005550
v 0.101547 0.079980 -0.009500
v 0.106301 0.079965 -0.005550
v 0.071512 0.119986 -0.005550
v 0.071528 0.114914 -0.009500
v 0.086591 0.107426 -0.005550
v 0.095729 0.098900 -0.005550
v 0.096624 0.080000 -0.005550
v 0.104329 0.103824 -0.005550
v 0.100200 0.101460 -0.009500
v 0.091512 0.116037 -0.005550
v 0.088934 0.111523 -0.009500
v 0.064978 0.035033 -0.009500
v 0.064960 0.030014 -0.005550
v 0.095137 0.059318 -0.009500
v 0.091001 0.061790 -0.005550
v 0.082589 0.043241 -0.009500
v 0.080039 0.047662 -0.005550
v 0.084960 0.039050 -0.005550
v 0.099601 0.056866 -0.005550
v -0.030000 0.005000 0.051962
v -0.027412 -0.000000 0.047479
v -0.047479 -0.000000 0.027412
v -0.051962 0.005000 0.030000
v -0.060000 0.005000 -0.000000
v -0.054824 -0.000000 0.000000
v -0.047479 -0.000000 -0.027412
v -0.051962 0.005000 -0.030000
v -0.027412 -0.000000 -0.047479
v -0.030000 0.005000 -0.051962
v 0.000000 -0.000000 0.054824
v 0.000000 0.005000 0.060000
v 0.051962 0.005000 0.030000
v 0.047479 -0.000000 0.027412
v 0.027412 -0.000000 0.047479
v 0.030000 0.005000 0.051962
v 0.000000 0.005000 -0.060000
v 0.000000 -0.000000 -0.054824
v 0.054824 -0.000000 0.000000
v 0.060000 0.005000 -0.000000
v 0.027412 -0.000000 -0.047479
v 0.030000 0.005000 -0.051962
v 0.047479 -0.000000 -0.027412
v 0.051962 0.005000 -0.030000
vn 0.5000 -0.0000 0.8660
vn 0.8660 -0.0000 0.5000
vn -0.0000 -0.0000 -1.0000
vn -0.5000 -0.0000 -0.8660
vn -0.8660 -0.0000 0.5000
vn -1.0000 -0.0000 -0.0000
vn -0.0000 -0.0000 1.0000
vn 0.8660 -0.0000 -0.5000
vn 0.5000 -0.0000 -0.8660
vn -0.8660 -0.0000 -0.5000
vn 1.0000 -0.0000 -0.0000
vn -0.5000 -0.0000 0.8660
vn 0.1144 0.9934 -0.0000
vn 0.0991 0.9934 0.0572
vn 0.6017 0.7193 0.3474
vn 0.6947 0.7193 -0.0000
vn -0.0572 0.9934 -0.0991
vn -0.0000 0.9934 -0.1144
vn -0.0000 0.7193 -0.6947
vn -0.3474 0.7193 -0.6017
vn -0.0991 0.9934 0.0572
vn -0.1144 0.9934 -0.0000
vn -0.6947 0.7193 -0.0000
vn -0.6017 0.7193 0.3474
vn -0.0000 0.9934 0.1144
vn -0.0572 0.9934 0.0991
vn -0.3474 0.7193 0.6017
vn -0.0000 0.7193 0.6947
vn -0.0991 0.9934 -0.0572
vn -0.6017 0.7193 -0.3474
vn 0.0991 0.9934 -0.0572
vn 0.6017 0.7193 -0.3474
vn 0.0572 0.9934 -0.0991
vn 0.3474 0.7193 -0.6017
vn 0.0572 0.9934 0.0991
vn 0.3474 0.7193 0.6017
vn -0.2125 0.9772 -0.0000
vn -0.1840 0.9772 -0.1062
vn -0.3121 0.9328 -0.1802
vn -0.3604 0.9328 -0.0000
vn 0.1062 0.9772 0.1840
vn -0.0000 0.9772 0.2125
vn -0.0000 0.9328 0.3604
vn 0.1802 0.9328 0.3121
vn 0.1840 0.9772 -0.1062
vn 0.2125 0.9772 -0.0000
vn 0.3604 0.9328 -0.0000
vn 0.3121 0.9328 -0.1802
vn -0.0000 0.9772 -0.2125
vn 0.1062 0.9772 -0.1840
vn 0.1802 0.9328 -0.3121
vn -0.0000 0.9328 -0.3604
vn 0.1840 0.9772 0.1062
vn 0.3121 0.9328 0.1802
vn -0.1840 0.9772 0.1062
vn -0.3121 0.9328 0.1802
vn -0.1062 0.9772 0.1840
vn -0.1802 0.9328 0.3121
vn -0.1062 0.9772 -0.1840
vn -0.1802 0.9328 -0.3121
vn -0.5693 0.6839 0.4563
vn -0.5693 0.6839 -0.4563
vn -0.2129 0.8606 -0.4626
vn -0.2129 0.8606 0.4626
vn -0.3902 -0.7949 0.4646
vn -0.3902 -0.7949 -0.4646
vn -0.7916 -0.3647 -0.4903
vn -0.7916 -0.3648 0.4903
vn 0.5529 -0.7274 0.4064
vn 0.5529 -0.7274 -0.4064
vn 0.8072 -0.4257 -0.4088
vn 0.8072 -0.4257 0.4088
vn 0.9098 -0.0901 0.4051
vn 0.9098 -0.0901 -0.4051
vn 0.8242 0.3985 -0.4024
vn 0.8242 0.3985 0.4024
vn 0.0004 0.9009 -0.4341
vn 0.0004 0.9009 0.4341
vn -0.0000 -0.9018 0.4321
vn -0.0000 -0.9018 -0.4321
vn -0.0803 -0.8966 -0.4356
vn -0.0803 -0.8966 0.4356
vn 0.0866 0.8999 0.4275
vn 0.0866 0.8999 -0.4275
vn 0.0007 0.8983 -0.4393
vn 0.0007 0.8983 0.4393
vn -0.8874 0.1151 -0.4463
vn -0.8875 0.1151 0.4463
vn 0.0008 -0.8993 0.4373
vn 0.0008 -0.8993 -0.4373
vn 0.1862 -0.8909 -0.4142
vn 0.1862 -0.8909 0.4142
vn -0.7943 0.4114 -0.4471
vn -0.7943 0.4114 0.4471
vn 0.4199 0.8094 0.4105
vn 0.4199 0.8094 -0.4105
vn 0.0085 0.0262 0.9996
vn 0.0002 -0.0082 1.0000
vn 0.0352 -0.0828 0.9959
vn 0.0003 0.0048 1.0000
vn 0.0770 -0.0103 0.9970
vn 0.1448 0.0565 0.9878
vn 0.0424 0.0861 0.9954
vn 0.0649 -0.0717 0.9953
vn 0.0633 -0.0316 0.9975
vn 0.0085 0.0262 -0.9996
vn 0.0002 -0.0082 -1.0000
vn 0.0352 -0.0828 -0.9959
vn 0.0003 0.0048 -1.0000
vn 0.0770 -0.0103 -0.9970
vn 0.1448 0.0565 -0.9878
vn 0.0424 0.0862 -0.9954
vn 0.0649 -0.0717 -0.9953
vn 0.0633 -0.0316 -0.9975
vn -0.3474 -0.7193 -0.6017
vn -0.0000 -0.7193 -0.6947
vn -0.0000 -0.7193 0.6947
vn -0.3474 -0.7193 0.6017
vn -0.6017 -0.7193 0.3474
vn -0.6947 -0.7193 -0.0000
vn 0.6947 -0.7193 -0.0000
vn 0.6017 -0.7193 0.3474
vn -0.6017 -0.7193 -0.3474
vn 0.6017 -0.7193 -0.3474
vn 0.3474 -0.7193 -0.6017
vn 0.3474 -0.7193 0.6017
vn -0.0000 -1.0000 -0.0000
vt 0.075512 0.815207
vt 0.076101 0.817436
vt 0.062517 0.987568
vt 0.088470 0.817455
vt 0.062517 0.975137
vt 0.089072 0.815231
vt 0.062517 0.925410
vt 0.062517 1.000000
vt 0.065373 0.823604
vt 0.063738 0.821962
vt 0.062517 0.950273
vt 0.059188 0.846690
vt 0.062517 0.937841
vt 0.059188 0.834320
vt 0.062517 0.962705
vt 0.099176 0.823650
vt 0.107581 0.833772
vt 0.062517 0.950273
vt 0.105355 0.834365
vt 0.062517 0.937841
vt 0.105353 0.846736
vt 0.100801 0.859093
vt 0.062517 0.925410
vt 0.062517 1.000000
vt 0.099166 0.857452
vt 0.062517 0.962705
vt 0.065364 0.857406
vt 0.063732 0.859031
vt 0.089029 0.865850
vt 0.062517 0.987568
vt 0.088440 0.863621
vt 0.075467 0.865826
vt 0.062517 0.975137
vt 0.076070 0.863603
vt 0.063037 1.000000
vt 0.063037 0.915291
vt 0.102479 0.860778
vt 0.107580 0.847334
vt 0.063037 0.929409
vt 0.109863 0.847947
vt 0.063037 0.943527
vt 0.054679 0.847892
vt 0.056962 0.847283
vt 0.063037 0.957645
vt 0.062058 0.860698
vt 0.074908 0.812921
vt 0.063037 0.985882
vt 0.063037 1.000000
vt 0.063037 0.915291
vt 0.062061 0.820278
vt 0.063037 0.957645
vt 0.102481 0.820357
vt 0.100808 0.822024
vt 0.089689 0.812951
vt 0.063037 0.971764
vt 0.063037 0.929409
vt 0.054678 0.833110
vt 0.056961 0.833723
vt 0.063037 0.985882
vt 0.089633 0.868136
vt 0.063037 0.971764
vt 0.074850 0.868106
vt 0.063037 0.943527
vt 0.109863 0.833164
vt 0.121084 0.925410
vt 0.121084 1.000000
vt 0.058709 0.863195
vt 0.051469 0.870394
vt 0.045004 0.866693
vt 0.121084 0.937841
vt 0.047667 0.856845
vt 0.121084 0.950273
vt 0.047704 0.904352
vt 0.045089 0.894495
vt 0.051528 0.890750
vt 0.121084 0.962705
vt 0.058718 0.897980
vt 0.121084 0.987568
vt 0.017568 0.886986
vt 0.027431 0.884378
vt 0.031174 0.890820
vt 0.121084 0.925410
vt 0.121084 1.000000
vt 0.023934 0.898019
vt 0.121084 0.962705
vt 0.023926 0.863236
vt 0.031116 0.870465
vt 0.027411 0.876928
vt 0.121084 0.975137
vt 0.017569 0.874258
vt 0.121084 0.937841
vt 0.034975 0.904370
vt 0.037639 0.894521
vt 0.121084 0.987568
vt 0.065076 0.874227
vt 0.055213 0.876836
vt 0.121084 0.975137
vt 0.065076 0.886957
vt 0.055234 0.884287
vt 0.121084 0.950273
vt 0.034939 0.856863
vt 0.037555 0.866720
vt 0.020289 0.903498
vt 0.128576 0.986108
vt 0.021337 0.900825
vt 0.123522 0.930086
vt 0.019220 0.906229
vt 0.128576 0.930086
vt 0.021337 0.860255
vt 0.020399 0.857530
vt 0.123522 1.000000
vt 0.019449 0.854769
vt 0.014124 0.901084
vt 0.128576 0.979483
vt 0.015166 0.898408
vt 0.128576 0.933728
vt 0.017893 0.861440
vt 0.016960 0.858705
vt 0.123522 0.964935
vt 0.000000 0.881634
vt 0.002812 0.881704
vt 0.123522 0.936695
vt 0.013066 0.903815
vt 0.128576 0.972535
vt 0.009089 0.895036
vt 0.007123 0.897039
vt 0.128576 0.966846
vt 0.005810 0.890387
vt 0.128576 0.958231
vt 0.005684 0.881774
vt 0.003070 0.891483
vt 0.123522 0.954036
vt 0.000457 0.892521
vt 0.123522 0.945976
vt 0.005032 0.899158
vt 0.123522 0.996374
vt 0.016022 0.855953
vt 0.128576 0.949555
vt 0.007853 0.873374
vt 0.128576 0.941414
vt 0.011993 0.866365
vt 0.010023 0.864188
vt 0.123522 0.986383
vt 0.008130 0.862079
vt 0.005284 0.872170
vt 0.123522 0.975884
vt 0.002593 0.870997
vt 0.133629 0.986108
vt 0.021337 0.900825
vt 0.020289 0.903498
vt 0.128576 0.930086
vt 0.019220 0.906229
vt 0.020399 0.857530
vt 0.133629 0.930086
vt 0.021337 0.860255
vt 0.128576 1.000000
vt 0.019449 0.854769
vt 0.133629 0.979483
vt 0.015166 0.898408
vt 0.133629 0.933728
vt 0.017893 0.861440
vt 0.002812 0.881704
vt 0.128576 0.964935
vt 0.000000 0.881634
vt 0.128576 0.936695
vt 0.013066 0.903815
vt 0.014125 0.901084
vt 0.133629 0.972535
vt 0.009089 0.895036
vt 0.133629 0.966846
vt 0.005810 0.890387
vt 0.133629 0.958231
vt 0.005684 0.881774
vt 0.128576 0.954036
vt 0.000457 0.892521
vt 0.003070 0.891483
vt 0.128576 0.945976
vt 0.005032 0.899158
vt 0.007123 0.897038
vt 0.016960 0.858705
vt 0.128576 0.996374
vt 0.016022 0.855952
vt 0.005284 0.872170
vt 0.133629 0.949555
vt 0.007853 0.873374
vt 0.010023 0.864188
vt 0.133629 0.941414
vt 0.011993 0.866365
vt 0.128576 0.986383
vt 0.008130 0.862079
vt 0.128576 0.975884
vt 0.002593 0.870997
vt 0.000000 0.971764
vt 0.098750 0.866809
vt 0.099936 0.868864
vt 0.090739 0.878061
vt 0.000000 0.985882
vt 0.088684 0.876875
vt 0.000000 1.000000
vt 0.000000 0.915291
vt 0.085000 0.890625
vt 0.087373 0.890625
vt 0.090739 0.903189
vt 0.000000 0.929409
vt 0.088684 0.904375
vt 0.099936 0.912386
vt 0.000000 0.943527
vt 0.098750 0.914441
vt 0.112500 0.865497
vt 0.000000 0.957645
vt 0.112500 0.863125
vt 0.000000 0.929409
vt 0.136316 0.876875
vt 0.134261 0.878061
vt 0.125064 0.868864
vt 0.000000 0.943527
vt 0.126250 0.866809
vt 0.000000 0.957645
vt 0.112500 0.918125
vt 0.112500 0.915753
vt 0.137628 0.890625
vt 0.000000 1.000000
vt 0.000000 0.915291
vt 0.140000 0.890625
vt 0.125064 0.912386
vt 0.000000 0.971763
vt 0.126250 0.914441
vt 0.134261 0.903189
vt 0.000000 0.985882
vt 0.136316 0.904375
s 1
usemtl misc_etx_part_1
f 7/11/1 8/13/2 53/91/2 41/72/1
f 36/63/1 130/216/1 127/212/2 23/39/2
f 26/44/3 131/218/3 124/207/4 24/41/4
f 118/197/5 27/47/5 28/48/6 119/199/6
f 29/51/7 126/210/7 130/216/1 36/63/1
f 34/59/8 138/229/8 136/226/9 35/61/9
f 32/56/10 122/204/10 119/200/6 28/49/6
f 21/35/11 134/222/11 138/229/8 34/59/8
f 24/41/4 124/207/4 122/204/10 32/56/10
f 23/39/2 127/212/2 134/223/11 21/36/11
f 126/210/7 29/51/7 31/55/12 115/193/12
f 12/20/10 14/23/6 37/65/6 40/70/10
f 20/33/12 15/26/7 44/76/7 57/97/12
f 8/13/2 5/7/11 48/82/11 53/91/2
f 9/15/3 11/18/4 59/100/4 49/85/3
f 18/30/5 20/33/12 57/97/12 55/94/5
f 3/5/9 9/15/3 49/85/3 52/89/9
f 5/8/11 2/3/8 45/78/8 48/83/11
f 35/61/9 136/226/9 131/218/3 26/44/3
f 15/26/7 7/11/1 41/72/1 44/76/7
f 11/18/4 12/20/10 40/70/10 59/100/4
f 14/24/6 18/30/5 55/94/5 37/66/6
f 13/22/13 22/38/14 23/40/15 21/37/16
f 25/43/17 16/28/18 26/45/19 24/42/20
f 1/1/21 6/10/22 28/50/23 27/46/24
f 30/53/25 4/6/26 31/54/27 29/52/28
f 4/6/26 1/1/21 27/46/24 31/54/27
f 33/58/29 25/43/17 24/42/20 32/57/30
f 6/10/22 33/58/29 32/57/30 28/50/23
f 17/29/31 13/22/13 21/37/16 34/60/32
f 19/32/33 17/29/31 34/60/32 35/62/34
f 16/28/18 19/32/33 35/62/34 26/45/19
f 10/17/35 30/53/25 29/52/28 36/64/36
f 22/38/14 10/17/35 36/64/36 23/40/15
f 14/25/23 12/21/30 22/38/14 13/22/13
f 7/12/36 15/27/28 16/28/18 25/43/17
f 2/2/32 5/9/16 6/10/22 1/1/21
f 9/16/19 3/4/34 4/6/26 30/53/25
f 3/4/34 2/2/32 1/1/21 4/6/26
f 8/14/15 7/12/36 25/43/17 33/58/29
f 5/9/16 8/14/15 33/58/29 6/10/22
f 18/31/24 14/25/23 13/22/13 17/29/31
f 20/34/27 18/31/24 17/29/31 19/32/33
f 15/27/28 20/34/27 19/32/33 16/28/18
f 11/19/20 9/16/19 30/53/25 10/17/35
f 12/21/30 11/19/20 10/17/35 22/38/14
f 2/3/8 3/5/9 52/89/9 45/78/8
f 38/68/37 39/69/38 40/71/39 37/67/40
f 42/74/41 43/75/42 44/77/43 41/73/44
f 46/80/45 47/81/46 48/84/47 45/79/48
f 50/87/49 51/88/50 52/90/51 49/86/52
f 51/88/50 46/80/45 45/79/48 52/90/51
f 54/93/53 42/74/41 41/73/44 53/92/54
f 47/81/46 54/93/53 53/92/54 48/84/47
f 56/96/55 38/68/37 37/67/40 55/95/56
f 58/99/57 56/96/55 55/95/56 57/98/58
f 43/75/42 58/99/57 57/98/58 44/77/43
f 60/102/59 50/87/49 49/86/52 59/101/60
f 39/69/38 60/102/59 59/101/60 40/71/39
f 38/68/37 56/96/55 58/99/57 43/75/42 42/74/41 54/93/53 47/81/46 46/80/45 51/88/50 50/87/49 60/102/59 39/69/38
f 83/140/61 112/187/62 95/160/63 69/116/64
f 74/124/65 100/168/66 101/170/67 76/127/68
f 85/143/69 113/189/70 114/191/71 87/146/72
f 71/119/73 97/163/74 103/174/75 79/132/76
f 69/116/64 95/160/63 92/154/77 64/108/78
f 62/104/79 88/148/80 94/158/81 68/114/82
f 73/122/83 98/165/84 90/151/85 63/106/86
f 76/127/68 101/170/67 102/172/87 77/129/88
f 66/111/89 93/156/90 108/181/91 81/136/92
f 77/129/88 102/172/87 110/184/93 82/138/94
f 87/146/72 114/191/71 97/163/74 71/119/73
f 82/138/94 110/184/93 112/187/62 83/140/61
f 80/134/95 105/177/96 98/165/84 73/122/83
f 68/114/82 94/158/81 100/168/66 74/124/65
f 81/136/92 108/181/91 113/189/70 85/143/69
f 79/132/76 103/174/75 105/177/96 80/134/95
f 68/115/82 67/113/97 61/103/98 62/105/79
f 70/118/99 69/117/64 64/109/78 65/110/100
f 72/121/101 71/120/73 79/133/76 78/131/102
f 78/131/102 79/133/76 80/135/95 75/126/103
f 75/126/103 80/135/95 73/123/83 67/113/97
f 84/142/104 83/141/61 69/117/64 70/118/99
f 75/126/103 74/125/65 76/128/68 78/131/102
f 78/131/102 76/128/68 77/130/88 72/121/101
f 70/118/99 81/137/92 85/144/69 84/142/104
f 84/142/104 85/144/69 87/147/72 86/145/105
f 67/113/97 68/115/82 74/125/65 75/126/103
f 86/145/105 82/139/94 83/141/61 84/142/104
f 67/113/97 73/123/83 63/107/86 61/103/98
f 81/137/92 70/118/99 65/110/100 66/112/89
f 72/121/101 77/130/88 82/139/94 86/145/105
f 99/167/106 94/159/81 88/149/80 89/150/107
f 95/161/63 107/180/108 91/153/109 92/155/77
f 97/164/74 96/162/110 104/176/111 103/175/75
f 103/175/75 104/176/111 106/179/112 105/178/96
f 105/178/96 106/179/112 99/167/106 98/166/84
f 112/188/62 111/186/113 107/180/108 95/161/63
f 100/169/66 106/179/112 104/176/111 101/171/67
f 101/171/67 104/176/111 96/162/110 102/173/87
f 108/182/91 107/180/108 111/186/113 113/190/70
f 113/190/70 111/186/113 109/183/114 114/192/71
f 94/159/81 99/167/106 106/179/112 100/169/66
f 110/185/93 109/183/114 111/186/113 112/188/62
f 98/166/84 99/167/106 89/150/107 90/152/85
f 107/180/108 108/182/91 93/157/90 91/153/109
f 102/173/87 96/162/110 109/183/114 110/185/93
f 86/145/105 87/147/72 71/120/73 72/121/101
f 114/192/71 109/183/114 96/162/110 97/164/74
f 115/193/12 31/55/12 27/47/5 118/197/5
f 124/208/115 131/219/116 132/220/116 123/206/115
f 126/211/117 115/194/118 116/195/118 125/209/117
f 118/198/119 119/201/120 120/202/120 117/196/119
f 134/224/121 127/213/122 128/214/122 133/221/121
f 115/194/118 118/198/119 117/196/119 116/195/118
f 122/205/123 124/208/115 123/206/115 121/203/123
f 119/201/120 122/205/123 121/203/123 120/202/120
f 138/230/124 134/224/121 133/221/121 137/228/124
f 136/227/125 138/230/124 137/228/124 135/225/125
f 131/219/116 136/227/125 135/225/125 132/220/116
f 130/217/126 126/211/117 125/209/117 129/215/126
f 127/213/122 130/217/126 129/215/126 128/214/122
f 123/206/127 132/220/127 135/225/127 137/228/127 133/221/127 128/214/127 129/215/127 125/209/127 116/195/127 117/196/127 120/202/127 121/203/127
