# Blender 3.4.0
# www.blender.org
mtllib gauge_etx_3_1.mtl
o gauge_etx_3_1
v -0.277647 0.280000 0.040000
v -0.265637 0.235176 0.040000
v -0.232824 0.202363 0.040000
v -0.232824 0.357637 0.040000
v -0.265637 0.324823 0.040000
v -0.288000 0.280000 -0.040000
v -0.238000 0.193397 -0.040000
v -0.274603 0.230000 -0.040000
v -0.274603 0.330000 -0.040000
v -0.238000 0.366602 -0.040000
v -0.188000 0.190353 0.040000
v -0.098353 0.280000 0.040000
v -0.143176 0.202363 0.040000
v -0.110363 0.235176 0.040000
v -0.188000 0.369647 0.040000
v -0.110363 0.324823 0.040000
v -0.143176 0.357637 0.040000
v -0.188000 0.180000 -0.040000
v -0.101397 0.230000 -0.040000
v -0.138000 0.193397 -0.040000
v -0.188000 0.380000 -0.040000
v -0.088000 0.280000 -0.040000
v -0.138000 0.366602 -0.040000
v -0.101397 0.330000 -0.040000
v -0.101397 0.330000 0.040000
v -0.088000 0.280000 0.040000
v -0.288000 0.280000 0.040000
v -0.274603 0.330000 0.040000
v -0.188000 0.180000 0.040000
v -0.238000 0.193397 0.040000
v -0.238000 0.366602 0.040000
v -0.188000 0.380000 0.040000
v -0.274603 0.230000 0.040000
v -0.138000 0.193397 0.040000
v -0.101397 0.230000 0.040000
v -0.138000 0.366602 0.040000
v -0.277647 0.280000 0.020000
v -0.188000 0.190353 0.020000
v -0.232824 0.357637 0.020000
v -0.143176 0.202363 0.020000
v -0.110363 0.235176 0.020000
v -0.110363 0.324824 0.020000
v -0.098353 0.280000 0.020000
v -0.265637 0.324824 0.020000
v -0.232824 0.202363 0.020000
v -0.188000 0.369647 0.020000
v -0.265637 0.235176 0.020000
v -0.143176 0.357637 0.020000
v -0.277647 0.280000 0.030000
v -0.188000 0.190353 0.030000
v -0.232824 0.357637 0.030000
v -0.143177 0.202363 0.030000
v -0.110363 0.235176 0.030000
v -0.110363 0.324824 0.030000
v -0.098353 0.280000 0.030000
v -0.265637 0.324824 0.030000
v -0.232824 0.202363 0.030000
v -0.188000 0.369647 0.030000
v -0.265637 0.235176 0.030000
v -0.143177 0.357637 0.030000
v -0.020000 0.014142 -0.014142
v -0.148000 0.014142 -0.014142
v -0.020000 0.020000 -0.000000
v -0.020000 0.014142 0.014142
v -0.148000 0.020000 0.000000
v -0.148000 0.014142 0.014142
v -0.020000 0.000000 -0.020000
v -0.020000 -0.014142 -0.014142
v -0.148000 0.000000 -0.020000
v -0.148000 -0.014142 -0.014142
v -0.020000 0.000000 0.020000
v -0.020000 -0.020000 -0.000000
v -0.020000 -0.014142 0.014142
v -0.148000 -0.020000 0.000000
v -0.148000 0.000000 0.020000
v -0.148000 -0.014142 0.014142
v 0.000000 0.021213 -0.021213
v -0.020000 0.016971 -0.016971
v 0.000000 0.030000 0.000000
v 0.000000 0.021213 0.021213
v -0.020000 0.024000 0.000000
v -0.020000 0.016971 0.016971
v 0.000000 0.000000 -0.030000
v 0.000000 -0.021213 -0.021213
v -0.020000 0.000000 -0.024000
v -0.020000 -0.016971 -0.016971
v 0.000000 0.000000 0.030000
v 0.000000 -0.030000 0.000000
v 0.000000 -0.021213 0.021213
v -0.020000 -0.024000 0.000000
v -0.020000 0.000000 0.024000
v -0.020000 -0.016971 0.016971
v -0.202142 0.040000 -0.014142
v -0.208000 0.040000 0.000000
v -0.202142 0.040000 0.014142
v -0.188000 0.040000 -0.020000
v -0.173858 0.040000 -0.014142
v -0.168000 0.040000 0.000000
v -0.188000 0.040000 0.020000
v -0.173858 0.040000 0.014142
v -0.209213 0.188000 -0.021213
v -0.204971 0.168000 -0.016971
v -0.218000 0.188000 0.000000
v -0.209213 0.188000 0.021213
v -0.212000 0.168000 0.000000
v -0.204971 0.168000 0.016971
v -0.188000 0.188000 -0.030000
v -0.166787 0.188000 -0.021213
v -0.188000 0.168000 -0.024000
v -0.171029 0.168000 -0.016971
v -0.188000 0.188000 0.030000
v -0.158000 0.188000 0.000000
v -0.166787 0.188000 0.021213
v -0.164000 0.168000 0.000000
v -0.188000 0.168000 0.024000
v -0.171029 0.168000 0.016971
v -0.170389 0.026607 0.014142
v -0.161393 0.017611 0.014142
v -0.168427 0.005342 0.020000
v -0.182658 0.019573 0.020000
v -0.175461 -0.006927 0.014142
v -0.194927 0.012539 0.014142
v -0.178375 -0.012008 0.000000
v -0.200008 0.009625 0.000000
v -0.175461 -0.006927 -0.014142
v -0.194927 0.012539 -0.014142
v -0.168427 0.005342 -0.020000
v -0.182658 0.019573 -0.020000
v -0.161393 0.017611 -0.014142
v -0.170389 0.026607 -0.014142
v -0.158479 0.022693 0.000000
v -0.165307 0.029521 0.000000
v -0.202143 0.168000 -0.014142
v -0.202143 0.040000 -0.014142
v -0.208000 0.168000 -0.000000
v -0.202143 0.168000 0.014142
v -0.208000 0.040000 0.000000
v -0.202143 0.040000 0.014142
v -0.188000 0.168000 -0.020000
v -0.173858 0.168000 -0.014142
v -0.188000 0.040000 -0.020000
v -0.173858 0.040000 -0.014142
v -0.188000 0.168000 0.020000
v -0.168000 0.168000 -0.000000
v -0.173858 0.168000 0.014142
v -0.168000 0.040000 0.000000
v -0.188000 0.040000 0.020000
v -0.173858 0.040000 0.014142
v -0.202143 0.059600 -0.014142
v -0.209214 0.071800 -0.021213
v -0.209214 0.116200 -0.021213
v -0.202143 0.128400 -0.014142
v -0.202143 0.128400 0.014142
v -0.209214 0.116200 0.021213
v -0.209214 0.071800 0.021213
v -0.202143 0.059600 0.014142
v -0.208000 0.128400 0.000000
v -0.218000 0.116200 -0.000000
v -0.218000 0.071800 -0.000000
v -0.208000 0.059600 0.000000
v -0.168000 0.059600 0.000000
v -0.158000 0.071800 -0.000000
v -0.158000 0.116200 -0.000000
v -0.168000 0.128400 0.000000
v -0.173858 0.128400 0.014142
v -0.166787 0.116200 0.021213
v -0.166787 0.071800 0.021213
v -0.173858 0.059600 0.014142
v -0.188000 0.128400 0.020000
v -0.188000 0.116200 0.030000
v -0.188000 0.071800 0.030000
v -0.188000 0.059600 0.020000
v -0.188000 0.059600 -0.020000
v -0.188000 0.071800 -0.030000
v -0.188000 0.116200 -0.030000
v -0.188000 0.128400 -0.020000
v -0.173858 0.128400 -0.014142
v -0.166787 0.116200 -0.021213
v -0.166787 0.071800 -0.021213
v -0.173858 0.059600 -0.014142
vn -0.5000 0.8660 -0.0000
vn -0.8660 0.5000 -0.0000
vn -0.0000 -0.0000 -1.0000
vn -0.0000 -1.0000 -0.0000
vn -0.5000 -0.8660 -0.0000
vn -0.8660 -0.5000 -0.0000
vn -1.0000 -0.0000 -0.0000
vn -0.0000 1.0000 -0.0000
vn 0.5000 -0.8660 -0.0000
vn 0.8660 -0.5000 -0.0000
vn 1.0000 -0.0000 -0.0000
vn 0.5000 0.8660 -0.0000
vn 0.8660 0.5000 -0.0000
vn -0.0000 -0.0000 1.0000
vn -0.0083 -0.0310 -0.9995
vn 0.0882 0.6878 -0.7205
vn -0.0000 0.7071 -0.7071
vn 0.1300 0.9915 -0.0000
vn -0.0083 -0.0310 0.9995
vn -0.0000 0.7071 0.7071
vn 0.0882 0.6878 0.7205
vn -0.1244 -0.9922 -0.0000
vn -0.0000 -0.7071 0.7071
vn -0.0933 -0.7181 0.6897
vn -0.0000 -0.7071 -0.7071
vn -0.0933 -0.7181 -0.6897
vn -0.2873 -0.0000 -0.9578
vn -0.2873 0.6773 -0.6773
vn -0.2873 0.9578 -0.0000
vn -0.2873 -0.0000 0.9578
vn -0.2873 0.6773 0.6773
vn -0.2873 -0.9578 -0.0000
vn -0.2873 -0.6773 0.6773
vn -0.2873 -0.6773 -0.6773
vn -0.0000 -0.2873 -0.9578
vn -0.6773 -0.2873 -0.6773
vn -0.9578 -0.2873 -0.0000
vn -0.0000 -0.2873 0.9578
vn -0.6773 -0.2873 0.6773
vn 0.9578 -0.2873 -0.0000
vn 0.6773 -0.2873 0.6773
vn 0.6773 -0.2873 -0.6773
vn 0.6879 0.0882 0.7205
vn -0.0310 -0.0083 0.9995
vn -0.0557 -0.0321 0.9979
vn 0.5830 0.3334 0.7410
vn -0.7181 -0.0933 0.6897
vn -0.6385 -0.3666 0.6766
vn -0.9922 -0.1244 -0.0000
vn -0.8672 -0.4979 -0.0000
vn -0.7181 -0.0933 -0.6897
vn -0.6385 -0.3666 -0.6766
vn -0.0310 -0.0083 -0.9995
vn -0.0557 -0.0321 -0.9979
vn 0.6879 0.0882 -0.7205
vn 0.5830 0.3334 -0.7410
vn 0.9915 0.1300 -0.0000
vn 0.8684 0.4959 -0.0000
vn -0.0321 -0.0557 0.9979
vn 0.3334 0.5830 0.7410
vn -0.3666 -0.6385 0.6766
vn -0.4979 -0.8672 -0.0000
vn -0.3666 -0.6385 -0.6766
vn -0.0321 -0.0557 -0.9979
vn 0.3334 0.5830 -0.7410
vn 0.4959 0.8684 -0.0000
vn -0.7071 -0.0000 -0.7071
vn -0.7071 -0.0000 0.7071
vn 0.7071 -0.0000 0.7071
vn 0.7071 -0.0000 -0.7071
vn 0.5469 -0.6339 -0.5469
vn 0.7734 -0.6339 -0.0000
vn 0.5469 0.6339 -0.5469
vn 0.7734 0.6339 -0.0000
vn -0.0000 -0.6339 -0.7734
vn -0.0000 0.6339 -0.7734
vn 0.5469 -0.6339 0.5469
vn -0.0000 -0.6339 0.7734
vn 0.5469 0.6339 0.5469
vn -0.0000 0.6339 0.7734
vn -0.5469 -0.6339 0.5469
vn -0.7734 -0.6339 -0.0000
vn -0.5469 0.6339 0.5469
vn -0.7734 0.6339 -0.0000
vn -0.5469 0.6339 -0.5469
vn -0.5469 -0.6339 -0.5469
vt 0.164587 0.542188
vt 0.162109 0.560547
vt 0.162109 0.544922
vt 0.168454 0.527755
vt 0.162109 0.544922
vt 0.162109 0.560547
vt 0.179019 0.517190
vt 0.162109 0.560547
vt 0.162109 0.544922
vt 0.179019 0.567185
vt 0.162109 0.560547
vt 0.162109 0.544922
vt 0.168454 0.556620
vt 0.162109 0.544922
vt 0.162109 0.560547
vt 0.165567 0.558286
vt 0.152344 0.560547
vt 0.152344 0.544922
vt 0.193451 0.574385
vt 0.152344 0.560547
vt 0.152344 0.544922
vt 0.177352 0.570071
vt 0.152344 0.560547
vt 0.152344 0.544922
vt 0.161253 0.542188
vt 0.152344 0.544922
vt 0.152344 0.560547
vt 0.165567 0.526089
vt 0.152344 0.544922
vt 0.152344 0.560547
vt 0.193451 0.513323
vt 0.162109 0.544922
vt 0.162109 0.560547
vt 0.222315 0.542188
vt 0.162109 0.544922
vt 0.162109 0.560547
vt 0.162109 0.560547
vt 0.207883 0.517190
vt 0.162109 0.544922
vt 0.162109 0.544922
vt 0.218448 0.527755
vt 0.162109 0.560547
vt 0.193451 0.571052
vt 0.162109 0.560547
vt 0.162109 0.544922
vt 0.218448 0.556620
vt 0.162109 0.544922
vt 0.162109 0.560547
vt 0.207883 0.567185
vt 0.162109 0.560547
vt 0.162109 0.544922
vt 0.209550 0.570071
vt 0.152344 0.544922
vt 0.152344 0.560547
vt 0.225648 0.542188
vt 0.152344 0.544922
vt 0.152344 0.560547
vt 0.221335 0.558286
vt 0.152344 0.544922
vt 0.152344 0.560547
vt 0.177352 0.514304
vt 0.152344 0.560547
vt 0.152344 0.544922
vt 0.221335 0.526089
vt 0.152344 0.544922
vt 0.152344 0.560547
vt 0.193451 0.509990
vt 0.152344 0.560547
vt 0.152344 0.544922
vt 0.209550 0.514304
vt 0.152344 0.560547
vt 0.152344 0.544922
vt 0.179688 0.560547
vt 0.179688 0.544922
vt 0.221335 0.558286
vt 0.179688 0.544922
vt 0.179688 0.560547
vt 0.225648 0.542188
vt 0.179688 0.560547
vt 0.179688 0.544922
vt 0.161253 0.542188
vt 0.179688 0.544922
vt 0.179688 0.560547
vt 0.165567 0.558286
vt 0.179688 0.544922
vt 0.179688 0.560547
vt 0.193451 0.509990
vt 0.179688 0.560547
vt 0.179688 0.544922
vt 0.177352 0.514304
vt 0.179688 0.544922
vt 0.179688 0.560547
vt 0.177352 0.570071
vt 0.179688 0.560547
vt 0.179688 0.544922
vt 0.193451 0.574385
vt 0.179688 0.560547
vt 0.179688 0.544922
vt 0.165567 0.526089
vt 0.179688 0.544922
vt 0.179688 0.560547
vt 0.209550 0.514304
vt 0.179688 0.544922
vt 0.179688 0.560547
vt 0.221335 0.526089
vt 0.179688 0.560547
vt 0.179688 0.544922
vt 0.209550 0.570071
vt 0.169922 0.560547
vt 0.169922 0.544922
vt 0.000000 0.906134
vt 0.169922 0.544922
vt 0.169922 0.560547
vt 0.093367 0.812767
vt 0.169922 0.560547
vt 0.169922 0.544922
vt 0.046683 0.986992
vt 0.169922 0.560547
vt 0.169922 0.544922
vt 0.140051 0.825276
vt 0.169922 0.544922
vt 0.169922 0.560547
vt 0.174225 0.859450
vt 0.169922 0.544922
vt 0.169922 0.560547
vt 0.174225 0.952817
vt 0.169922 0.544922
vt 0.169922 0.560547
vt 0.186734 0.906134
vt 0.169922 0.544922
vt 0.169922 0.560547
vt 0.012509 0.952817
vt 0.169922 0.560547
vt 0.169922 0.544922
vt 0.046683 0.825276
vt 0.169922 0.560547
vt 0.169922 0.544922
vt 0.093367 0.999501
vt 0.169922 0.544922
vt 0.169922 0.560547
vt 0.012509 0.859450
vt 0.169922 0.560547
vt 0.169922 0.544922
vt 0.140051 0.986992
vt 0.375000 0.500000
vt 0.500000 0.375000
vt 0.437500 0.608253
vt 0.562500 0.391747
vt 0.608253 0.437500
vt 0.608253 0.562500
vt 0.625000 0.500000
vt 0.391747 0.562500
vt 0.437500 0.391747
vt 0.500000 0.625000
vt 0.391747 0.437500
vt 0.562500 0.608253
vt 0.175781 0.548828
vt 0.175781 0.504909
vt 0.180830 0.539207
vt 0.181641 0.548828
vt 0.169922 0.548828
vt 0.175781 0.548828
vt 0.181641 0.504909
vt 0.169922 0.504909
vt 0.180234 0.545353
vt 0.184331 0.521053
vt 0.175781 0.504909
vt 0.183735 0.527199
vt 0.169922 0.548828
vt 0.181641 0.548828
vt 0.175781 0.548828
vt 0.169922 0.504909
vt 0.181641 0.504909
vt 0.182240 0.533204
vt 0.175781 0.504909
vt 0.183651 0.527200
vt 0.181641 0.548828
vt 0.169922 0.548828
vt 0.181641 0.548828
vt 0.169922 0.548828
vt 0.175781 0.548828
vt 0.181641 0.504909
vt 0.169922 0.504909
vt 0.180329 0.545353
vt 0.184236 0.521053
vt 0.181641 0.504909
vt 0.169922 0.504909
vt 0.182325 0.533203
vt 0.175781 0.504909
vt 0.180914 0.539206
vt 0.871094 0.976562
vt 0.891549 0.969181
vt 0.878906 0.975781
vt 0.878906 0.977344
vt 0.871094 0.984375
vt 0.871094 0.968750
vt 0.871094 0.976562
vt 0.887223 0.973507
vt 0.878906 0.983594
vt 0.878906 0.969531
vt 0.887223 0.979625
vt 0.878906 0.977344
vt 0.878906 0.975781
vt 0.871094 0.968750
vt 0.871094 0.984375
vt 0.871094 0.976562
vt 0.897666 0.969181
vt 0.878906 0.969531
vt 0.878906 0.983594
vt 0.901992 0.973507
vt 0.878906 0.977344
vt 0.878906 0.975781
vt 0.871094 0.984375
vt 0.871094 0.968750
vt 0.871094 0.984375
vt 0.871094 0.968750
vt 0.871094 0.976562
vt 0.901992 0.979625
vt 0.878906 0.983594
vt 0.878906 0.969531
vt 0.891549 0.983951
vt 0.878906 0.983594
vt 0.878906 0.969531
vt 0.897666 0.983951
vt 0.878906 0.977344
vt 0.878906 0.975781
vt 0.180978 0.539206
vt 0.175821 0.545353
vt 0.180376 0.545353
vt 0.175236 0.539206
vt 0.182429 0.533203
vt 0.183879 0.527199
vt 0.184493 0.521053
vt 0.171819 0.521053
vt 0.173826 0.533203
vt 0.172415 0.527199
vt 0.871094 0.976562
vt 0.891549 0.969181
vt 0.878906 0.975781
vt 0.878906 0.977344
vt 0.871094 0.984375
vt 0.871094 0.968750
vt 0.871094 0.976562
vt 0.887223 0.973507
vt 0.878906 0.983594
vt 0.878906 0.969531
vt 0.887223 0.979625
vt 0.878906 0.977344
vt 0.878906 0.975781
vt 0.871094 0.968750
vt 0.871094 0.984375
vt 0.871094 0.976562
vt 0.897666 0.969181
vt 0.878906 0.969531
vt 0.878906 0.983594
vt 0.901992 0.973507
vt 0.878906 0.977344
vt 0.878906 0.975781
vt 0.871094 0.984375
vt 0.871094 0.968750
vt 0.871094 0.984375
vt 0.871094 0.968750
vt 0.871094 0.976562
vt 0.901992 0.979625
vt 0.878906 0.983594
vt 0.878906 0.969531
vt 0.891549 0.983951
vt 0.878906 0.983594
vt 0.878906 0.969531
vt 0.897666 0.983951
vt 0.878906 0.977344
vt 0.878906 0.975781
vt 0.166988 0.527218
vt 0.160105 0.527198
vt 0.154971 0.527198
vt 0.189491 0.527218
vt 0.153478 0.533192
vt 0.190936 0.533213
vt 0.165543 0.533213
vt 0.161598 0.533192
vt 0.151985 0.539185
vt 0.192381 0.539207
vt 0.164098 0.539207
vt 0.163092 0.539185
vt 0.151366 0.545330
vt 0.192979 0.545353
vt 0.184283 0.521076
vt 0.171915 0.521053
vt 0.163500 0.545353
vt 0.193049 0.545353
vt 0.163710 0.545330
vt 0.171938 0.521076
vt 0.183664 0.527222
vt 0.172513 0.527199
vt 0.192434 0.539207
vt 0.172557 0.527222
vt 0.182171 0.533215
vt 0.173958 0.533194
vt 0.190948 0.533213
vt 0.174050 0.533215
vt 0.180677 0.539208
vt 0.175403 0.539189
vt 0.189461 0.527218
vt 0.175544 0.539208
vt 0.180058 0.545353
vt 0.175990 0.545335
vt 0.155590 0.521053
vt 0.188905 0.521071
vt 0.188858 0.521071
vt 0.167575 0.521071
vt 0.176162 0.545353
vt 0.159486 0.521053
vt 0.332969 0.875882
vt 0.329480 0.875882
vt 0.332969 0.870320
vt 0.332969 0.864757
vt 0.329480 0.870320
vt 0.329480 0.864757
vt 0.332969 0.836944
vt 0.332969 0.881445
vt 0.332969 0.842507
vt 0.329480 0.881445
vt 0.329480 0.836944
vt 0.329480 0.842507
vt 0.332969 0.859194
vt 0.332969 0.848069
vt 0.332969 0.853632
vt 0.329480 0.848069
vt 0.329480 0.859195
vt 0.329480 0.853632
vt 0.336603 0.875882
vt 0.862101 0.985647
vt 0.861485 0.984791
vt 0.861896 0.983865
vt 0.857301 0.988452
vt 0.900389 0.967276
vt 0.861896 1.000000
vt 0.895589 0.964471
vt 0.318578 0.875882
vt 0.896205 0.963615
vt 0.318578 0.864757
vt 0.885868 0.971578
vt 0.884866 0.971905
vt 0.878583 1.000000
vt 0.887085 0.977003
vt 0.870605 0.998179
vt 0.878583 0.983865
vt 0.871822 0.992754
vt 0.336603 0.864757
vt 0.872824 0.993081
vt 0.890819 0.969041
vt 0.318578 0.870320
vt 0.891670 0.968419
vt 0.894511 0.973198
vt 0.870239 1.000000
vt 0.870239 0.983865
vt 0.863179 0.994374
vt 0.336603 0.870320
vt 0.866871 0.990217
vt 0.866020 0.989595
vt 0.891670 0.989595
vt 0.336603 0.848069
vt 0.890819 0.990217
vt 0.894511 0.994374
vt 0.903615 0.983865
vt 0.903615 1.000000
vt 0.863179 0.973198
vt 0.318578 0.848069
vt 0.866020 0.968419
vt 0.866871 0.969041
vt 0.318578 0.853632
vt 0.872824 0.971905
vt 0.871822 0.971578
vt 0.895271 1.000000
vt 0.870605 0.977003
vt 0.887085 0.998179
vt 0.895271 0.983865
vt 0.884866 0.993081
vt 0.336603 0.853632
vt 0.885868 0.992754
vt 0.318578 0.859194
vt 0.878318 0.972779
vt 0.879372 0.972779
vt 0.886927 1.000000
vt 0.878845 0.978314
vt 0.878845 0.999490
vt 0.886927 0.983865
vt 0.879372 0.993955
vt 0.336603 0.859195
vt 0.878318 0.993955
vt 0.336603 0.881445
vt 0.336603 0.836944
vt 0.898705 0.979822
vt 0.858986 0.979822
vt 0.904139 0.980998
vt 0.920303 0.983865
vt 0.853552 0.983865
vt 0.853552 0.980998
vt 0.920303 1.000000
vt 0.853552 0.959822
vt 0.904138 0.959822
vt 0.853552 1.000000
vt 0.318578 0.836944
vt 0.858986 0.958645
vt 0.318578 0.881445
vt 0.898705 0.958645
vt 0.318578 0.842507
vt 0.862101 0.964471
vt 0.861485 0.963615
vt 0.911959 1.000000
vt 0.857301 0.967276
vt 0.900389 0.988452
vt 0.911959 0.983865
vt 0.895589 0.985647
vt 0.336603 0.842507
vt 0.896205 0.984791
s 1
usemtl electronics_etx_part_1
f 13/37/1 14/40/2 41/121/2 40/118/1
f 18/52/3 7/19/3 8/22/3 6/16/3 9/25/3 10/28/3 21/61/3 23/67/3 24/70/3 22/64/3 19/55/3 20/58/3
f 18/53/4 29/85/4 30/88/5 7/20/5
f 7/21/5 30/89/5 33/97/6 8/23/6
f 8/24/6 33/98/6 27/79/7 6/17/7
f 32/94/8 21/62/8 10/29/1 31/91/1
f 31/92/1 10/30/1 9/26/2 28/82/2
f 28/83/2 9/27/2 6/18/7 27/80/7
f 29/86/4 18/54/4 20/59/9 34/100/9
f 34/101/9 20/60/9 19/56/10 35/103/10
f 35/104/10 19/57/10 22/65/11 26/76/11
f 21/63/8 32/95/8 36/106/12 23/68/12
f 23/69/12 36/107/12 25/73/13 24/71/13
f 24/72/13 25/74/13 26/77/11 22/66/11
f 16/46/14 12/34/14 26/78/14 25/75/14
f 1/1/14 5/13/14 28/84/14 27/81/14
f 11/31/14 3/7/14 30/90/14 29/87/14
f 4/10/14 15/43/14 32/96/14 31/93/14
f 3/7/14 2/4/14 33/99/14 30/90/14
f 2/4/14 1/1/14 27/81/14 33/99/14
f 5/13/14 4/10/14 31/93/14 28/84/14
f 13/38/14 11/31/14 29/87/14 34/102/14
f 14/41/14 13/38/14 34/102/14 35/105/14
f 12/34/14 14/41/14 35/105/14 26/78/14
f 15/43/14 17/49/14 36/108/14 32/96/14
f 17/49/14 16/46/14 25/75/14 36/108/14
f 1/2/11 2/5/13 47/139/13 37/109/11
f 3/8/12 11/32/8 38/112/8 45/133/12
f 14/42/2 12/35/7 43/127/7 41/122/2
f 4/11/9 5/14/10 44/130/10 39/115/9
f 15/44/4 4/12/9 39/116/9 46/136/4
f 17/50/5 15/45/4 46/137/4 48/142/5
f 12/36/7 16/47/6 42/124/6 43/128/7
f 11/33/8 13/39/1 40/119/1 38/113/8
f 2/6/13 3/9/12 45/134/12 47/140/13
f 16/48/6 17/51/5 48/143/5 42/125/6
f 5/15/10 1/3/11 37/110/11 44/131/10
f 67/169/3 69/172/15 62/158/16 61/157/17
f 61/157/17 62/158/16 65/163/18 63/160/8
f 75/186/19 71/177/14 64/162/20 66/167/21
f 66/167/21 64/162/20 63/161/8 65/164/18
f 74/182/22 72/179/4 73/181/23 76/189/24
f 76/189/24 73/181/23 71/178/14 75/187/19
f 69/173/15 67/170/3 68/171/25 70/175/26
f 70/175/26 68/171/25 72/180/4 74/183/22
f 90/218/7 92/224/7 91/221/7 82/201/7 81/198/7 78/192/7 85/207/7 86/210/7
f 83/204/27 85/208/27 78/193/28 77/191/28
f 77/191/28 78/194/28 81/199/29 79/195/29
f 91/222/30 87/213/30 80/197/31 82/202/31
f 82/203/31 80/197/31 79/196/29 81/200/29
f 90/219/32 88/215/32 89/217/33 92/225/33
f 92/226/33 89/217/33 87/214/30 91/223/30
f 85/209/27 83/205/27 84/206/34 86/211/34
f 86/212/34 84/206/34 88/216/32 90/220/32
f 114/264/4 116/270/4 115/267/4 106/247/4 105/244/4 102/238/4 109/253/4 110/256/4
f 107/250/35 109/254/35 102/239/36 101/237/36
f 101/237/36 102/240/36 105/245/37 103/241/37
f 115/268/38 111/259/38 104/243/39 106/248/39
f 106/249/39 104/243/39 103/242/37 105/246/37
f 114/265/40 112/261/40 113/263/41 116/271/41
f 116/272/41 113/263/41 111/260/38 115/269/38
f 109/255/35 107/251/35 108/252/42 110/257/42
f 110/258/42 108/252/42 112/262/40 114/266/40
f 100/236/43 99/235/44 120/279/45 117/273/46
f 99/235/44 95/230/47 122/283/48 120/279/45
f 95/230/47 94/228/49 124/289/50 122/283/48
f 94/229/49 93/227/51 126/295/52 124/290/50
f 93/227/51 96/231/53 128/299/54 126/295/52
f 96/231/53 97/232/55 130/303/56 128/299/54
f 97/232/55 98/233/57 132/309/58 130/303/56
f 98/234/57 100/236/43 117/273/46 132/310/58
f 117/274/46 120/280/45 119/277/59 118/275/60
f 118/276/60 119/278/59 75/188/19 66/168/21
f 120/280/45 122/284/48 121/281/61 119/277/59
f 119/278/59 121/282/61 76/190/24 75/188/19
f 122/284/48 124/291/50 123/285/62 121/281/61
f 121/282/61 123/286/62 74/184/22 76/190/24
f 124/292/50 126/296/52 125/293/63 123/287/62
f 123/288/62 125/294/63 70/176/26 74/185/22
f 126/296/52 128/300/54 127/297/64 125/293/63
f 125/294/63 127/298/64 69/174/15 70/176/26
f 128/300/54 130/304/56 129/301/65 127/297/64
f 127/298/64 129/302/65 62/159/16 69/174/15
f 130/304/56 132/311/58 131/305/66 129/301/65
f 129/302/65 131/306/66 65/165/18 62/159/16
f 132/312/58 117/274/46 118/275/60 131/307/66
f 131/308/66 118/276/60 66/168/21 65/166/18
f 173/391/3 141/322/3 134/314/67 149/331/67
f 149/331/67 134/314/67 137/317/7 160/358/7
f 169/381/14 143/325/14 136/316/68 153/341/68
f 153/341/68 136/316/68 135/315/7 157/352/7
f 164/368/11 144/326/11 145/327/69 165/371/69
f 165/371/69 145/327/69 143/325/14 169/381/14
f 176/403/3 139/319/3 140/321/70 177/407/70
f 177/407/70 140/321/70 144/326/11 164/368/11
f 142/324/70 180/415/70 161/362/11 146/328/11
f 180/414/71 179/412/71 162/364/72 161/361/72
f 179/413/70 178/410/70 163/366/11 162/365/11
f 178/411/73 177/408/73 164/369/74 163/367/74
f 141/323/3 173/392/3 180/415/70 142/324/70
f 173/393/75 174/395/75 179/412/71 180/416/71
f 174/396/3 175/399/3 178/410/70 179/413/70
f 175/400/76 176/404/76 177/409/73 178/411/73
f 148/330/69 168/379/69 172/389/14 147/329/14
f 168/378/77 167/376/77 171/386/78 172/388/78
f 167/377/69 166/374/69 170/384/14 171/387/14
f 166/375/79 165/372/79 169/382/80 170/385/80
f 146/328/11 161/362/11 168/379/69 148/330/69
f 161/363/72 162/364/72 167/376/77 168/380/77
f 162/365/11 163/366/11 166/374/69 167/377/69
f 163/367/74 164/370/74 165/373/79 166/375/79
f 138/318/68 156/349/68 160/358/7 137/317/7
f 156/348/81 155/346/81 159/357/82 160/359/82
f 155/347/68 154/344/68 158/355/7 159/356/7
f 154/345/83 153/342/83 157/351/84 158/354/84
f 147/329/14 172/389/14 156/349/68 138/318/68
f 172/390/78 171/386/78 155/346/81 156/350/81
f 171/387/14 170/384/14 154/344/68 155/347/68
f 170/385/80 169/383/80 153/343/83 154/345/83
f 133/313/67 152/339/67 157/352/7 135/315/7
f 152/338/85 151/336/85 158/354/84 157/353/84
f 151/337/67 150/334/67 159/356/7 158/355/7
f 150/335/86 149/332/86 160/360/82 159/357/82
f 139/320/3 176/405/3 152/339/67 133/313/67
f 176/406/76 175/401/76 151/336/85 152/340/85
f 175/402/3 174/397/3 150/334/67 151/337/67
f 174/398/75 173/394/75 149/333/86 150/335/86
usemtl electronics_etx_part_2
f 38/114/14 40/120/14 41/123/14 43/129/14 42/126/14 48/144/14 46/138/14 39/117/14 44/132/14 37/111/14 47/141/14 45/135/14
usemtl glass_etx_1
f 50/146/14 52/148/14 53/149/14 55/151/14 54/150/14 60/156/14 58/154/14 51/147/14 56/152/14 49/145/14 59/155/14 57/153/14
o gauge_pointer_etx_3_1_child
v -0.181927 0.273928 0.020000
v -0.179412 0.280000 0.020000
v -0.188000 0.271412 0.020000
v -0.181927 0.286073 0.020000
v -0.188000 0.288588 0.020000
v -0.194072 0.286073 0.020000
v -0.194072 0.273928 0.020000
v -0.196588 0.280000 0.020000
v -0.181927 0.273928 0.029000
v -0.188000 0.271412 0.029000
v -0.194072 0.286073 0.029000
v -0.188000 0.288588 0.029000
v -0.179412 0.280000 0.029000
v -0.196588 0.280000 0.029000
v -0.194072 0.273928 0.029000
v -0.181927 0.286073 0.029000
v -0.162544 0.313942 0.024000
v -0.154058 0.305456 0.024000
v -0.162544 0.313942 0.026000
v -0.154058 0.305456 0.026000
v -0.230426 0.234746 0.024000
v -0.233254 0.237574 0.024000
v -0.230426 0.234746 0.026000
v -0.233254 0.237574 0.026000
vn -0.9239 -0.3827 -0.0000
vn -0.0000 -0.0000 1.0000
vn -0.9239 0.3827 -0.0000
vn -0.3827 0.9239 -0.0000
vn 0.9239 0.3827 -0.0000
vn -0.3827 -0.9239 -0.0000
vn 0.9239 -0.3827 -0.0000
vn 0.3827 -0.9239 -0.0000
vn 0.3827 0.9239 -0.0000
vn 0.6794 -0.7338 -0.0000
vn -0.0000 -0.0000 -1.0000
vn -0.7338 0.6794 -0.0000
vn 0.7071 0.7071 -0.0000
vn -0.7071 -0.7071 -0.0000
vt 0.184572 0.186206
vt 0.185430 0.185848
vt 0.185430 0.188681
vt 0.187500 0.189250
vt 0.189570 0.185848
vt 0.190428 0.186206
vt 0.187500 0.191099
vt 0.189570 0.188681
vt 0.184572 0.186206
vt 0.185430 0.188681
vt 0.190428 0.186206
vt 0.189570 0.185848
vt 0.185430 0.185848
vt 0.189570 0.188681
vt 0.187500 0.191099
vt 0.187500 0.189250
vt 0.189705 0.179649
vt 0.187841 0.179652
vt 0.189620 0.195653
vt 0.187841 0.179652
vt 0.185295 0.179649
vt 0.185380 0.195653
vt 0.186989 0.179652
vt 0.189547 0.179649
vt 0.189620 0.194801
vt 0.186989 0.179652
vt 0.185453 0.179649
vt 0.185381 0.194801
vt 0.187841 0.215064
vt 0.186574 0.215062
vt 0.186389 0.195653
vt 0.188426 0.215062
vt 0.187841 0.215064
vt 0.188611 0.195653
vt 0.186989 0.215064
vt 0.186450 0.215064
vt 0.186389 0.194801
vt 0.186989 0.215064
vt 0.188550 0.215064
vt 0.188611 0.194801
s 0
usemtl electronics_etx_part_1
f 188/424/87 187/423/87 195/431/87 194/430/87
f 196/432/88 192/428/88 191/427/88 194/430/88 195/431/88 190/426/88 189/425/88 193/429/88
f 186/422/89 188/424/89 194/430/89 191/427/89
f 185/421/90 186/422/90 191/427/90 192/428/90
f 182/418/91 184/420/91 196/432/91 193/429/91
f 187/423/92 183/419/92 190/426/92 195/431/92
f 181/417/93 182/418/93 193/429/93 189/425/93
f 183/419/94 181/417/94 189/425/94 190/426/94
f 184/420/95 185/421/95 192/428/95 196/432/95
f 198/436/96 200/442/96 203/451/96 201/445/96
f 197/433/97 198/437/97 201/446/97 202/448/97
f 197/434/98 202/449/98 204/454/98 199/439/98
f 203/452/88 200/443/88 199/440/88 204/455/88
f 197/435/99 199/441/99 200/444/99 198/438/99
f 202/450/100 201/447/100 203/453/100 204/456/100
o gauge_etx_3_1_tiny_valve_child
v -0.207618 0.113502 0.051580
v -0.215737 0.093901 0.051580
v -0.188017 0.121621 0.051580
v -0.207618 0.074300 0.051580
v -0.188017 0.066181 0.051580
v -0.168416 0.074300 0.051580
v -0.168416 0.113502 0.051580
v -0.160296 0.093901 0.051580
v -0.178216 0.117561 0.051580
v -0.164356 0.103701 0.051580
v -0.211677 0.084100 0.051580
v -0.197817 0.070240 0.051580
v -0.178216 0.117561 0.065440
v -0.168416 0.113502 0.072370
v -0.197817 0.070240 0.065440
v -0.207618 0.074300 0.072370
v -0.164356 0.103701 0.065440
v -0.211677 0.084100 0.065440
v -0.168416 0.113502 0.037720
v -0.188017 0.121621 0.037720
v -0.215737 0.093901 0.037720
v -0.207618 0.074300 0.037720
v -0.207618 0.113502 0.037720
v -0.168416 0.074300 0.037720
v -0.160296 0.093901 0.037720
v -0.188017 0.066181 0.037720
v -0.200735 0.093901 0.037720
v -0.197010 0.102894 0.037720
v -0.188017 0.106619 0.037720
v -0.179024 0.084908 0.037720
v -0.197010 0.084908 0.037720
v -0.188016 0.081183 0.037720
v -0.179023 0.102894 0.037720
v -0.175298 0.093901 0.037720
v -0.179023 0.102894 0.019800
v -0.188017 0.106619 0.019800
v -0.200735 0.093901 0.019800
v -0.197010 0.084908 0.019800
v -0.197010 0.102894 0.019800
v -0.179024 0.084908 0.019800
v -0.175298 0.093901 0.019800
v -0.188016 0.081183 0.019800
vn 0.7071 -0.7071 -0.0000
vn -0.9239 -0.3827 -0.0000
vn -0.9239 0.3827 -0.0000
vn 0.3827 0.9239 -0.0000
vn -0.3827 0.9239 -0.0000
vn -0.3827 -0.9239 -0.0000
vn 0.3827 -0.9239 -0.0000
vn 0.9239 0.3827 -0.0000
vn 0.9239 -0.3827 -0.0000
vn -0.0000 -0.0000 1.0000
vn -0.4082 0.4082 0.8165
vn -0.7071 0.7071 -0.0000
vn 0.4082 -0.4082 0.8165
vn -0.0000 -0.0000 -1.0000
vt 0.297268 0.906250
vt 0.286208 0.906250
vt 0.289333 0.906643
vt 0.297268 0.898708
vt 0.289333 0.898708
vt 0.289333 0.906643
vt 0.297268 0.913792
vt 0.289333 0.913792
vt 0.296875 0.906643
vt 0.304417 0.906643
vt 0.297268 0.898708
vt 0.304417 0.898708
vt 0.297268 0.906250
vt 0.307542 0.906250
vt 0.296875 0.906643
vt 0.304417 0.906643
vt 0.297268 0.913792
vt 0.304417 0.913792
vt 0.293104 0.915355
vt 0.293104 0.906643
vt 0.297268 0.915355
vt 0.297268 0.915355
vt 0.300646 0.915355
vt 0.300646 0.906643
vt 0.293104 0.897145
vt 0.293104 0.906643
vt 0.297268 0.897145
vt 0.297268 0.897145
vt 0.300646 0.897145
vt 0.300646 0.906643
vt 0.293104 0.915355
vt 0.293104 0.901310
vt 0.291935 0.915355
vt 0.296875 0.898643
vt 0.296875 0.916917
vt 0.291935 0.897145
vt 0.300646 0.901310
vt 0.300646 0.897145
vt 0.296875 0.898643
vt 0.296875 0.895583
vt 0.291935 0.915355
vt 0.300646 0.901310
vt 0.300646 0.915355
vt 0.293104 0.897145
vt 0.293104 0.901310
vt 0.291935 0.897145
vt 0.296875 0.911976
vt 0.296875 0.916917
vt 0.289333 0.911976
vt 0.302601 0.913792
vt 0.289333 0.913792
vt 0.289333 0.911976
vt 0.302601 0.898708
vt 0.289333 0.898708
vt 0.296875 0.911976
vt 0.296875 0.895583
vt 0.302601 0.906250
vt 0.286208 0.906250
vt 0.302601 0.906250
vt 0.307542 0.906250
vt 0.304417 0.911976
vt 0.302601 0.913792
vt 0.304417 0.913792
vt 0.304417 0.911976
vt 0.302601 0.898708
vt 0.304417 0.898708
vt 0.293414 0.902790
vt 0.291981 0.906250
vt 0.293415 0.909711
vt 0.301769 0.906250
vt 0.296875 0.901356
vt 0.300336 0.902789
vt 0.296875 0.911144
vt 0.300336 0.909711
vt 0.296875 0.911144
vt 0.293415 0.909711
vt 0.293414 0.902790
vt 0.296875 0.901356
vt 0.291981 0.906250
vt 0.301769 0.906250
vt 0.300336 0.909711
vt 0.300336 0.902789
s 0
usemtl electronics_etx_part_1
f 216/484/101 214/478/101 221/497/101 219/492/101
f 226/511/102 208/465/102 215/482/102 206/459/102 225/508/102
f 225/509/103 206/460/103 205/457/103 227/513/103
f 211/471/104 223/503/104 224/505/104 207/462/104 213/476/104
f 207/463/105 224/506/105 227/513/105 205/457/105
f 208/465/106 226/511/106 230/520/106 209/466/106 216/486/106
f 209/467/107 230/521/107 228/515/107 210/469/107
f 223/503/108 211/471/108 214/480/108 212/472/108 229/517/108
f 229/518/109 212/473/109 210/469/109 228/515/109
f 215/481/110 213/475/110 207/464/110 205/458/110 206/461/110
f 220/496/111 218/491/111 217/487/111 222/500/111
f 216/485/110 209/468/110 210/470/110 212/474/110 214/479/110
f 211/471/104 213/476/104 217/488/104 218/490/104
f 215/482/102 208/465/102 220/495/102 222/501/102
f 208/465/106 216/486/106 219/493/106 220/495/106
f 214/480/108 211/471/108 218/490/108 221/498/108
f 213/477/112 215/483/112 222/502/112 217/489/112
f 219/494/113 221/499/113 218/491/113 220/496/113
f 229/519/114 228/516/114 230/522/114 226/512/114 225/510/114 227/514/114 224/507/114 223/504/114
f 233/525/104 237/529/104 239/531/104 240/532/104
f 237/529/108 238/530/108 245/537/108 239/531/108
f 236/528/106 235/527/106 242/534/106 246/538/106
f 238/530/109 234/526/109 244/536/109 245/537/109
f 235/527/102 231/523/102 241/533/102 242/534/102
f 234/526/107 236/528/107 246/538/107 244/536/107
f 232/524/105 233/525/105 240/532/105 243/535/105
f 231/523/103 232/524/103 243/535/103 241/533/103
