# Blender 3.4.0
# www.blender.org
mtllib lever_etx_2.mtl
o lever_etx_2
v -0.072000 -0.126000 0.072000
v -0.061200 -0.126000 0.072000
v -0.061200 0.126000 0.072000
v -0.072000 -0.126000 0.054000
v -0.072000 0.126000 0.054000
v -0.061200 0.126000 0.054000
v -0.061200 -0.126000 0.054000
v 0.061200 -0.126000 0.072000
v 0.061200 0.126000 0.072000
v 0.061200 -0.126000 0.054000
v 0.061200 0.126000 0.054000
v 0.072000 0.126000 0.054000
v 0.072000 -0.126000 0.054000
v -0.090000 -0.162000 0.000000
v -0.108000 -0.144000 0.000000
v -0.108000 0.144000 0.000000
v -0.090000 0.162000 0.000000
v -0.108000 -0.144000 0.072000
v -0.090000 -0.162000 0.072000
v -0.090000 0.162000 0.072000
v -0.108000 0.144000 0.072000
v -0.072000 0.126000 0.072000
v 0.108000 -0.144000 0.000000
v 0.090000 -0.162000 0.000000
v 0.090000 0.162000 0.000000
v 0.108000 0.144000 0.000000
v 0.108000 0.144000 0.072000
v 0.090000 0.162000 0.072000
v 0.072000 0.126000 0.072000
v 0.090000 -0.162000 0.072000
v 0.108000 -0.144000 0.072000
v 0.072000 -0.126000 0.072000
v -0.014319 0.122319 0.080100
v -0.020250 0.108000 0.080100
v -0.000000 0.128250 0.080100
v -0.014319 0.093681 0.080100
v -0.000000 0.087750 0.080100
v 0.014319 0.093681 0.080100
v 0.014319 0.122319 0.080100
v 0.020250 0.108000 0.080100
v -0.014319 0.122319 0.072000
v -0.020250 0.108000 0.072000
v -0.000000 0.128250 0.072000
v -0.014319 0.093681 0.072000
v -0.000000 0.087750 0.072000
v 0.014319 0.122319 0.072000
v 0.014319 0.093681 0.072000
v 0.020250 0.108000 0.072000
v -0.009546 0.117546 0.090900
v -0.013500 0.108000 0.090900
v -0.000000 0.121500 0.090900
v -0.009546 0.098454 0.090900
v -0.000000 0.094500 0.090900
v 0.009546 0.098454 0.090900
v 0.009546 0.117546 0.090900
v 0.013500 0.108000 0.090900
v -0.009546 0.117546 0.080100
v -0.013500 0.108000 0.080100
v -0.000000 0.121500 0.080100
v -0.009546 0.098454 0.080100
v -0.000000 0.094500 0.080100
v 0.009546 0.117546 0.080100
v 0.009546 0.098454 0.080100
v 0.013500 0.108000 0.080100
v -0.014319 -0.093681 0.080100
v -0.020250 -0.108000 0.080100
v 0.000000 -0.087750 0.080100
v -0.014319 -0.122319 0.080100
v 0.000000 -0.128250 0.080100
v 0.014319 -0.122319 0.080100
v 0.014319 -0.093681 0.080100
v 0.020250 -0.108000 0.080100
v -0.014319 -0.093681 0.072000
v -0.020250 -0.108000 0.072000
v 0.000000 -0.087750 0.072000
v -0.014319 -0.122319 0.072000
v 0.000000 -0.128250 0.072000
v 0.014319 -0.093681 0.072000
v 0.014319 -0.122319 0.072000
v 0.020250 -0.108000 0.072000
v -0.009546 -0.098454 0.090900
v -0.013500 -0.108000 0.090900
v 0.000000 -0.094500 0.090900
v -0.009546 -0.117546 0.090900
v 0.000000 -0.121500 0.090900
v 0.009546 -0.117546 0.090900
v 0.009546 -0.098454 0.090900
v 0.013500 -0.108000 0.090900
v -0.009546 -0.098454 0.080100
v -0.013500 -0.108000 0.080100
v 0.000000 -0.094500 0.080100
v -0.009546 -0.117546 0.080100
v 0.000000 -0.121500 0.080100
v 0.009546 -0.098454 0.080100
v 0.009546 -0.117546 0.080100
v 0.013500 -0.108000 0.080100
v -0.121500 0.014319 0.021681
v -0.121500 -0.000000 0.015750
v -0.121500 0.020250 0.036000
v -0.121500 -0.014319 0.021681
v -0.121500 -0.020250 0.036000
v -0.121500 -0.014319 0.050319
v -0.121500 0.014319 0.050319
v -0.121500 -0.000000 0.056250
v -0.113400 0.014319 0.021681
v -0.113400 -0.000000 0.015750
v -0.113400 0.020250 0.036000
v -0.113400 -0.014319 0.021681
v -0.113400 -0.020250 0.036000
v -0.113400 0.014319 0.050319
v -0.113400 -0.014319 0.050319
v -0.113400 -0.000000 0.056250
v -0.132300 0.009546 0.026454
v -0.132300 -0.000000 0.022500
v -0.132300 0.013500 0.036000
v -0.132300 -0.009546 0.026454
v -0.132300 -0.013500 0.036000
v -0.132300 -0.009546 0.045546
v -0.132300 0.009546 0.045546
v -0.132300 -0.000000 0.049500
v -0.121500 0.009546 0.026454
v -0.121500 -0.000000 0.022500
v -0.121500 0.013500 0.036000
v -0.121500 -0.009546 0.026454
v -0.121500 -0.013500 0.036000
v -0.121500 0.009546 0.045546
v -0.121500 -0.009546 0.045546
v -0.121500 -0.000000 0.049500
v 0.121500 -0.014319 0.021681
v 0.121500 0.000000 0.015750
v 0.121500 -0.020250 0.036000
v 0.121500 0.014319 0.021681
v 0.121500 0.020250 0.036000
v 0.121500 0.014319 0.050319
v 0.121500 -0.014319 0.050319
v 0.121500 0.000000 0.056250
v 0.113400 -0.014319 0.021681
v 0.113400 0.000000 0.015750
v 0.113400 -0.020250 0.036000
v 0.113400 0.014319 0.021681
v 0.113400 0.020250 0.036000
v 0.113400 -0.014319 0.050319
v 0.113400 0.014319 0.050319
v 0.113400 0.000000 0.056250
v 0.132300 -0.009546 0.026454
v 0.132300 -0.000000 0.022500
v 0.132300 -0.013500 0.036000
v 0.132300 0.009546 0.026454
v 0.132300 0.013500 0.036000
v 0.132300 0.009546 0.045546
v 0.132300 -0.009546 0.045546
v 0.132300 -0.000000 0.049500
v 0.121500 -0.009546 0.026454
v 0.121500 -0.000000 0.022500
v 0.121500 -0.013500 0.036000
v 0.121500 0.009546 0.026454
v 0.121500 0.013500 0.036000
v 0.121500 -0.009546 0.045546
v 0.121500 0.009546 0.045546
v 0.121500 -0.000000 0.049500
v -0.113400 -0.072000 0.005400
v -0.113400 0.072000 0.005400
v -0.108000 -0.072000 0.000000
v -0.108000 0.072000 0.000000
v -0.108000 -0.072000 0.054000
v -0.108000 -0.063000 0.063000
v -0.108000 0.063000 0.063000
v -0.108000 0.072000 0.054000
v -0.113400 -0.063000 0.063000
v -0.113400 -0.072000 0.054000
v -0.113400 0.072000 0.054000
v -0.113400 0.063000 0.063000
v -0.144000 -0.072000 0.005400
v -0.153000 -0.063000 0.005400
v -0.153000 0.063000 0.005400
v -0.144000 0.072000 0.005400
v -0.153000 -0.063000 0.000000
v -0.144000 -0.072000 0.000000
v -0.144000 0.072000 0.000000
v -0.153000 0.063000 0.000000
v -0.124608 0.060791 0.010170
v -0.121050 0.052200 0.010170
v -0.133200 0.064350 0.010170
v -0.124608 0.043609 0.010170
v -0.133200 0.040050 0.010170
v -0.141791 0.043609 0.010170
v -0.141791 0.060791 0.010170
v -0.145350 0.052200 0.010170
v -0.124608 0.060791 0.005310
v -0.121050 0.052200 0.005310
v -0.133200 0.064350 0.005310
v -0.124608 0.043609 0.005310
v -0.133200 0.040050 0.005310
v -0.141791 0.060791 0.005310
v -0.141791 0.043609 0.005310
v -0.145350 0.052200 0.005310
v -0.127472 0.057928 0.016650
v -0.125100 0.052200 0.016650
v -0.133200 0.060300 0.016650
v -0.127472 0.046472 0.016650
v -0.133200 0.044100 0.016650
v -0.138927 0.046472 0.016650
v -0.138927 0.057928 0.016650
v -0.141300 0.052200 0.016650
v -0.127472 0.057928 0.010170
v -0.125100 0.052200 0.010170
v -0.133200 0.060300 0.010170
v -0.127472 0.046472 0.010170
v -0.133200 0.044100 0.010170
v -0.138927 0.057928 0.010170
v -0.138927 0.046472 0.010170
v -0.141300 0.052200 0.010170
v 0.113400 -0.072000 0.005400
v 0.113400 0.072000 0.005400
v 0.108000 -0.072000 0.000000
v 0.108000 0.072000 0.000000
v 0.108000 -0.072000 0.054000
v 0.108000 -0.063000 0.063000
v 0.108000 0.063000 0.063000
v 0.108000 0.072000 0.054000
v 0.113400 -0.063000 0.063000
v 0.113400 -0.072000 0.054000
v 0.113400 0.072000 0.054000
v 0.113400 0.063000 0.063000
v 0.144000 -0.072000 0.005400
v 0.153000 -0.063000 0.005400
v 0.153000 0.063000 0.005400
v 0.144000 0.072000 0.005400
v 0.153000 -0.063000 0.000000
v 0.144000 -0.072000 0.000000
v 0.144000 0.072000 0.000000
v 0.153000 0.063000 0.000000
v 0.124609 0.060791 0.010170
v 0.121050 0.052200 0.010170
v 0.133200 0.064350 0.010170
v 0.124609 0.043609 0.010170
v 0.133200 0.040050 0.010170
v 0.141791 0.043609 0.010170
v 0.141791 0.060791 0.010170
v 0.145350 0.052200 0.010170
v 0.124609 0.060791 0.005310
v 0.121050 0.052200 0.005310
v 0.133200 0.064350 0.005310
v 0.124609 0.043609 0.005310
v 0.133200 0.040050 0.005310
v 0.141791 0.060791 0.005310
v 0.141791 0.043609 0.005310
v 0.145350 0.052200 0.005310
v 0.127472 0.057928 0.016650
v 0.125100 0.052200 0.016650
v 0.133200 0.060300 0.016650
v 0.127472 0.046472 0.016650
v 0.133200 0.044100 0.016650
v 0.138927 0.046472 0.016650
v 0.138927 0.057928 0.016650
v 0.141300 0.052200 0.016650
v 0.127472 0.057928 0.010170
v 0.125100 0.052200 0.010170
v 0.133200 0.060300 0.010170
v 0.127472 0.046472 0.010170
v 0.133200 0.044100 0.010170
v 0.138927 0.057928 0.010170
v 0.138927 0.046472 0.010170
v 0.141300 0.052200 0.010170
v -0.124608 -0.043609 0.010170
v -0.121050 -0.052200 0.010170
v -0.133200 -0.040050 0.010170
v -0.124608 -0.060791 0.010170
v -0.133200 -0.064350 0.010170
v -0.141791 -0.060791 0.010170
v -0.141791 -0.043609 0.010170
v -0.145350 -0.052200 0.010170
v -0.124608 -0.043609 0.005310
v -0.121050 -0.052200 0.005310
v -0.133200 -0.040050 0.005310
v -0.124608 -0.060791 0.005310
v -0.133200 -0.064350 0.005310
v -0.141791 -0.043609 0.005310
v -0.141791 -0.060791 0.005310
v -0.145350 -0.052200 0.005310
v -0.127472 -0.046472 0.016650
v -0.125100 -0.052200 0.016650
v -0.133200 -0.044100 0.016650
v -0.127472 -0.057928 0.016650
v -0.133200 -0.060300 0.016650
v -0.138927 -0.057928 0.016650
v -0.138927 -0.046472 0.016650
v -0.141300 -0.052200 0.016650
v -0.127472 -0.046472 0.010170
v -0.125100 -0.052200 0.010170
v -0.133200 -0.044100 0.010170
v -0.127472 -0.057928 0.010170
v -0.133200 -0.060300 0.010170
v -0.138927 -0.046472 0.010170
v -0.138927 -0.057928 0.010170
v -0.141300 -0.052200 0.010170
v 0.124609 -0.043609 0.010170
v 0.121050 -0.052200 0.010170
v 0.133200 -0.040050 0.010170
v 0.124609 -0.060791 0.010170
v 0.133200 -0.064350 0.010170
v 0.141791 -0.060791 0.010170
v 0.141791 -0.043609 0.010170
v 0.145350 -0.052200 0.010170
v 0.124609 -0.043609 0.005310
v 0.121050 -0.052200 0.005310
v 0.133200 -0.040050 0.005310
v 0.124609 -0.060791 0.005310
v 0.133200 -0.064350 0.005310
v 0.141791 -0.043609 0.005310
v 0.141791 -0.060791 0.005310
v 0.145350 -0.052200 0.005310
v 0.127472 -0.046472 0.016650
v 0.125100 -0.052200 0.016650
v 0.133200 -0.044100 0.016650
v 0.127472 -0.057928 0.016650
v 0.133200 -0.060300 0.016650
v 0.138927 -0.057928 0.016650
v 0.138927 -0.046472 0.016650
v 0.141300 -0.052200 0.016650
v 0.127472 -0.046472 0.010170
v 0.125100 -0.052200 0.010170
v 0.133200 -0.044100 0.010170
v 0.127472 -0.057928 0.010170
v 0.133200 -0.060300 0.010170
v 0.138927 -0.046472 0.010170
v 0.138927 -0.057928 0.010170
v 0.141300 -0.052200 0.010170
v 0.113400 -0.032400 0.036000
v 0.113400 -0.027000 0.036000
v 0.113400 -0.032400 0.005400
v 0.113400 -0.027000 0.005400
v 0.144000 -0.032400 0.005400
v 0.144000 -0.027000 0.005400
v 0.113400 0.027000 0.036000
v 0.113400 0.032400 0.036000
v 0.113400 0.027000 0.005400
v 0.113400 0.032400 0.005400
v 0.144000 0.027000 0.005400
v 0.144000 0.032400 0.005400
v -0.113400 -0.032400 0.036000
v -0.113400 -0.027000 0.036000
v -0.113400 -0.032400 0.005400
v -0.113400 -0.027000 0.005400
v -0.144000 -0.032400 0.005400
v -0.144000 -0.027000 0.005400
v -0.113400 0.027000 0.036000
v -0.113400 0.032400 0.036000
v -0.113400 0.027000 0.005400
v -0.113400 0.032400 0.005400
v -0.144000 0.027000 0.005400
v -0.144000 0.032400 0.005400
vn -1.0000 -0.0000 -0.0000
vn -0.0000 -0.0000 1.0000
vn -0.0000 1.0000 -0.0000
vn 1.0000 -0.0000 -0.0000
vn -0.0000 -1.0000 -0.0000
vn -0.7071 -0.7071 -0.0000
vn -0.7071 0.7071 -0.0000
vn 0.7071 -0.7071 -0.0000
vn 0.7071 0.7071 -0.0000
vn 0.9239 0.3827 -0.0000
vn 0.9239 -0.3827 -0.0000
vn 0.3827 0.9239 -0.0000
vn -0.3827 0.9239 -0.0000
vn 0.3827 -0.9239 -0.0000
vn -0.3827 -0.9239 -0.0000
vn -0.9239 0.3827 -0.0000
vn -0.9239 -0.3827 -0.0000
vn -0.0000 -0.0000 -1.0000
vn -0.0000 0.3827 0.9239
vn -0.0000 -0.3827 0.9239
vn -0.0000 0.9239 0.3827
vn -0.0000 0.9239 -0.3827
vn -0.0000 -0.9239 0.3827
vn -0.0000 -0.9239 -0.3827
vn -0.0000 0.3827 -0.9239
vn -0.0000 -0.3827 -0.9239
vn -0.0000 -0.7071 0.7071
vn -0.0000 0.7071 0.7071
vn 0.7071 -0.0000 0.7071
vn -0.7071 -0.0000 0.7071
vt 0.033203 0.205078
vt 0.033203 0.207031
vt 0.447142 0.013828
vt 0.033203 0.207031
vt 0.033203 0.201172
vt 0.451290 0.013828
vt 0.033203 0.308594
vt 0.033203 0.201172
vt 0.451290 0.110624
vt 0.029297 0.207031
vt 0.041016 0.205078
vt 0.041016 0.207031
vt 0.029297 0.308594
vt 0.041016 0.308594
vt 0.041016 0.205078
vt 0.041016 0.308594
vt 0.033203 0.308594
vt 0.041016 0.201172
vt 0.041016 0.207031
vt 0.033203 0.207031
vt 0.041016 0.201172
vt 0.033203 0.205078
vt 0.033203 0.207031
vt 0.498305 0.013828
vt 0.033203 0.308594
vt 0.033203 0.205078
vt 0.498305 0.110624
vt 0.029297 0.207031
vt 0.041016 0.205078
vt 0.041016 0.207031
vt 0.029297 0.308594
vt 0.041016 0.308594
vt 0.041016 0.205078
vt 0.041016 0.308594
vt 0.033203 0.308594
vt 0.041016 0.201172
vt 0.041016 0.207031
vt 0.033203 0.207031
vt 0.041016 0.201172
vt 0.431641 0.277344
vt 0.431641 0.000000
vt 0.431641 0.189453
vt 0.431641 0.267578
vt 0.431641 0.078125
vt 0.431641 0.277344
vt 0.431641 0.267578
vt 0.404297 0.189453
vt 0.433314 0.006914
vt 0.404297 0.267578
vt 0.404297 0.277344
vt 0.404297 0.000000
vt 0.440228 0.000000
vt 0.404297 0.267578
vt 0.440228 0.124452
vt 0.404297 0.078125
vt 0.433314 0.117538
vt 0.404297 0.277344
vt 0.033203 0.308594
vt 0.033203 0.205078
vt 0.447142 0.110624
vt 0.431641 0.078125
vt 0.431641 0.068359
vt 0.431641 0.199219
vt 0.431641 0.189453
vt 0.516282 0.117538
vt 0.404297 0.189453
vt 0.404297 0.199219
vt 0.509368 0.124452
vt 0.033203 0.308594
vt 0.033203 0.201172
vt 0.502454 0.110624
vt 0.404297 0.068359
vt 0.509368 0.000000
vt 0.516282 0.006914
vt 0.404297 0.078125
vt 0.033203 0.207031
vt 0.033203 0.201172
vt 0.502454 0.013828
vt 0.133094 0.199219
vt 0.121767 0.199219
vt 0.129579 0.190733
vt 0.121767 0.190733
vt 0.121767 0.207704
vt 0.129579 0.207704
vt 0.121767 0.207704
vt 0.121094 0.187219
vt 0.121767 0.199219
vt 0.112608 0.190733
vt 0.121767 0.190733
vt 0.109094 0.199219
vt 0.121767 0.199219
vt 0.121094 0.211219
vt 0.121767 0.199219
vt 0.112608 0.207704
vt 0.121767 0.190733
vt 0.121767 0.207704
vt 0.126567 0.199219
vt 0.126567 0.190733
vt 0.126567 0.207704
vt 0.126567 0.207704
vt 0.126567 0.199219
vt 0.126567 0.190733
vt 0.126567 0.199219
vt 0.126567 0.199219
vt 0.126567 0.190733
vt 0.126567 0.207704
vt 0.129094 0.199219
vt 0.115367 0.199219
vt 0.126751 0.193562
vt 0.115367 0.193562
vt 0.115367 0.204876
vt 0.126751 0.204876
vt 0.115367 0.204876
vt 0.121094 0.191219
vt 0.115367 0.199219
vt 0.115367 0.193562
vt 0.113094 0.199219
vt 0.115367 0.199219
vt 0.121094 0.207219
vt 0.115367 0.199219
vt 0.115367 0.193562
vt 0.115367 0.204876
vt 0.129094 0.199219
vt 0.121767 0.199219
vt 0.126751 0.193562
vt 0.121767 0.193562
vt 0.121767 0.204876
vt 0.126751 0.204876
vt 0.121767 0.204876
vt 0.121094 0.191219
vt 0.121767 0.199219
vt 0.115437 0.193562
vt 0.121767 0.193562
vt 0.121094 0.207219
vt 0.121767 0.199219
vt 0.113094 0.199219
vt 0.121767 0.199219
vt 0.115437 0.204876
vt 0.121767 0.193562
vt 0.121767 0.204876
vt 0.133094 0.199219
vt 0.121767 0.199219
vt 0.129579 0.190733
vt 0.121767 0.190733
vt 0.121767 0.207704
vt 0.129579 0.207704
vt 0.121767 0.207704
vt 0.121094 0.187219
vt 0.121767 0.199219
vt 0.112608 0.190733
vt 0.121767 0.190733
vt 0.109094 0.199219
vt 0.121767 0.199219
vt 0.121094 0.211219
vt 0.121767 0.199219
vt 0.112608 0.207704
vt 0.121767 0.190733
vt 0.121767 0.207704
vt 0.126567 0.199219
vt 0.126567 0.190733
vt 0.126567 0.207704
vt 0.126567 0.207704
vt 0.126567 0.199219
vt 0.126567 0.190733
vt 0.126567 0.199219
vt 0.126567 0.199219
vt 0.126567 0.190733
vt 0.126567 0.207704
vt 0.129094 0.199219
vt 0.115367 0.199219
vt 0.126751 0.193562
vt 0.115367 0.193562
vt 0.115367 0.204876
vt 0.126751 0.204876
vt 0.115367 0.204876
vt 0.121094 0.191219
vt 0.115367 0.199219
vt 0.115367 0.193562
vt 0.113094 0.199219
vt 0.115367 0.199219
vt 0.121094 0.207219
vt 0.115367 0.199219
vt 0.115367 0.193562
vt 0.115367 0.204876
vt 0.129094 0.199219
vt 0.121767 0.199219
vt 0.126751 0.193562
vt 0.121767 0.193562
vt 0.121767 0.204876
vt 0.126751 0.204876
vt 0.121767 0.204876
vt 0.121094 0.191219
vt 0.121767 0.199219
vt 0.115437 0.193562
vt 0.121767 0.193562
vt 0.121094 0.207219
vt 0.121767 0.199219
vt 0.113094 0.199219
vt 0.121767 0.199219
vt 0.115437 0.204876
vt 0.121767 0.193562
vt 0.121767 0.204876
vt 0.133094 0.199219
vt 0.121767 0.199219
vt 0.129579 0.190733
vt 0.121767 0.190733
vt 0.121767 0.207704
vt 0.129579 0.207704
vt 0.121767 0.207704
vt 0.121094 0.187219
vt 0.121767 0.199219
vt 0.112608 0.190733
vt 0.121767 0.190733
vt 0.109094 0.199219
vt 0.121767 0.199219
vt 0.121094 0.211219
vt 0.121767 0.199219
vt 0.112608 0.207704
vt 0.121767 0.190733
vt 0.121767 0.207704
vt 0.126567 0.199219
vt 0.126567 0.190733
vt 0.126567 0.207704
vt 0.126567 0.207704
vt 0.126567 0.199219
vt 0.126567 0.190733
vt 0.126567 0.199219
vt 0.126567 0.199219
vt 0.126567 0.190733
vt 0.126567 0.207704
vt 0.129094 0.199219
vt 0.115367 0.199219
vt 0.126751 0.193562
vt 0.115367 0.193562
vt 0.115367 0.204876
vt 0.126751 0.204876
vt 0.115367 0.204876
vt 0.121094 0.191219
vt 0.115367 0.199219
vt 0.115367 0.193562
vt 0.113094 0.199219
vt 0.115367 0.199219
vt 0.121094 0.207219
vt 0.115367 0.199219
vt 0.115367 0.193562
vt 0.115367 0.204876
vt 0.129094 0.199219
vt 0.121767 0.199219
vt 0.126751 0.193562
vt 0.121767 0.193562
vt 0.121767 0.204876
vt 0.126751 0.204876
vt 0.121767 0.204876
vt 0.121094 0.191219
vt 0.121767 0.199219
vt 0.115437 0.193562
vt 0.121767 0.193562
vt 0.121094 0.207219
vt 0.121767 0.199219
vt 0.113094 0.199219
vt 0.121767 0.199219
vt 0.115437 0.204876
vt 0.121767 0.193562
vt 0.121767 0.204876
vt 0.133094 0.199219
vt 0.121767 0.199219
vt 0.129579 0.190733
vt 0.121767 0.190733
vt 0.121767 0.207704
vt 0.129579 0.207704
vt 0.121767 0.207704
vt 0.121094 0.187219
vt 0.121767 0.199219
vt 0.112608 0.190733
vt 0.121767 0.190733
vt 0.109094 0.199219
vt 0.121767 0.199219
vt 0.121094 0.211219
vt 0.121767 0.199219
vt 0.112608 0.207704
vt 0.121767 0.190733
vt 0.121767 0.207704
vt 0.126567 0.199219
vt 0.126567 0.190733
vt 0.126567 0.207704
vt 0.126567 0.207704
vt 0.126567 0.199219
vt 0.126567 0.190733
vt 0.126567 0.199219
vt 0.126567 0.199219
vt 0.126567 0.190733
vt 0.126567 0.207704
vt 0.129094 0.199219
vt 0.115367 0.199219
vt 0.126751 0.193562
vt 0.115367 0.193562
vt 0.115367 0.204876
vt 0.126751 0.204876
vt 0.115367 0.204876
vt 0.121094 0.191219
vt 0.115367 0.199219
vt 0.115367 0.193562
vt 0.113094 0.199219
vt 0.115367 0.199219
vt 0.121094 0.207219
vt 0.115367 0.199219
vt 0.115367 0.193562
vt 0.115367 0.204876
vt 0.129094 0.199219
vt 0.121767 0.199219
vt 0.126751 0.193562
vt 0.121767 0.193562
vt 0.121767 0.204876
vt 0.126751 0.204876
vt 0.121767 0.204876
vt 0.121094 0.191219
vt 0.121767 0.199219
vt 0.115437 0.193562
vt 0.121767 0.193562
vt 0.121094 0.207219
vt 0.121767 0.199219
vt 0.113094 0.199219
vt 0.121767 0.199219
vt 0.115437 0.204876
vt 0.121767 0.193562
vt 0.121767 0.204876
vt 0.141799 0.229474
vt 0.141800 0.238140
vt 0.186671 0.238140
vt 0.186671 0.238140
vt 0.195133 0.229474
vt 0.195133 0.238140
vt 0.188671 0.240140
vt 0.188671 0.240140
vt 0.168671 0.240140
vt 0.188671 0.240141
vt 0.145671 0.240140
vt 0.185338 0.240141
vt 0.192338 0.240140
vt 0.172005 0.240140
vt 0.168671 0.240140
vt 0.175338 0.240140
vt 0.145133 0.250807
vt 0.145671 0.238140
vt 0.185338 0.238140
vt 0.168671 0.238140
vt 0.141800 0.247474
vt 0.188671 0.238140
vt 0.168671 0.238140
vt 0.195133 0.247474
vt 0.175338 0.238140
vt 0.191800 0.250807
vt 0.192338 0.238140
vt 0.172005 0.238140
vt 0.141800 0.226807
vt 0.186671 0.226807
vt 0.158670 0.240124
vt 0.145336 0.240124
vt 0.145133 0.223474
vt 0.162003 0.240124
vt 0.192002 0.240124
vt 0.191800 0.223474
vt 0.188669 0.240124
vt 0.186671 0.226807
vt 0.195133 0.226807
vt 0.192002 0.240124
vt 0.145336 0.238124
vt 0.162003 0.238124
vt 0.188671 0.226807
vt 0.158670 0.238124
vt 0.188671 0.226807
vt 0.192002 0.238124
vt 0.192002 0.238124
vt 0.188669 0.238124
vt 0.098790 0.199219
vt 0.094033 0.199219
vt 0.097314 0.195655
vt 0.094033 0.195655
vt 0.094033 0.202783
vt 0.097314 0.202783
vt 0.094033 0.202783
vt 0.093750 0.194179
vt 0.094033 0.199219
vt 0.090186 0.195655
vt 0.094033 0.195655
vt 0.088710 0.199219
vt 0.094033 0.199219
vt 0.093750 0.204259
vt 0.094033 0.199219
vt 0.090186 0.202783
vt 0.094033 0.195655
vt 0.094033 0.202783
vt 0.096049 0.199219
vt 0.096049 0.195655
vt 0.096049 0.202783
vt 0.096049 0.202783
vt 0.096049 0.199219
vt 0.096049 0.195655
vt 0.096049 0.199219
vt 0.096049 0.199219
vt 0.096049 0.195655
vt 0.096049 0.202783
vt 0.097110 0.199219
vt 0.091345 0.199219
vt 0.096126 0.196843
vt 0.091345 0.196843
vt 0.091345 0.201595
vt 0.096126 0.201595
vt 0.091345 0.201595
vt 0.093750 0.195859
vt 0.091345 0.199219
vt 0.091345 0.196843
vt 0.090390 0.199219
vt 0.091345 0.199219
vt 0.093750 0.202579
vt 0.091345 0.199219
vt 0.091345 0.196843
vt 0.091345 0.201595
vt 0.097110 0.199219
vt 0.094033 0.199219
vt 0.096126 0.196843
vt 0.094033 0.196843
vt 0.094033 0.201595
vt 0.096126 0.201595
vt 0.094033 0.201595
vt 0.093750 0.195859
vt 0.094033 0.199219
vt 0.091374 0.196843
vt 0.094033 0.196843
vt 0.093750 0.202579
vt 0.094033 0.199219
vt 0.090390 0.199219
vt 0.094033 0.199219
vt 0.091374 0.201595
vt 0.094033 0.196843
vt 0.094033 0.201595
vt 0.141800 0.229474
vt 0.141800 0.238141
vt 0.186671 0.238141
vt 0.186671 0.238141
vt 0.195133 0.229474
vt 0.195133 0.238141
vt 0.188671 0.240141
vt 0.188671 0.240141
vt 0.168671 0.240141
vt 0.188671 0.240140
vt 0.145671 0.240141
vt 0.185338 0.240140
vt 0.192338 0.240141
vt 0.172005 0.240141
vt 0.168671 0.240141
vt 0.175338 0.240141
vt 0.145133 0.250807
vt 0.145671 0.238141
vt 0.185338 0.238140
vt 0.168671 0.238141
vt 0.141800 0.247474
vt 0.188671 0.238140
vt 0.168671 0.238141
vt 0.195133 0.247474
vt 0.175338 0.238141
vt 0.191800 0.250807
vt 0.192338 0.238141
vt 0.172005 0.238141
vt 0.141800 0.226807
vt 0.186671 0.226807
vt 0.158669 0.240125
vt 0.145335 0.240125
vt 0.145133 0.223474
vt 0.162002 0.240125
vt 0.192002 0.240125
vt 0.191800 0.223474
vt 0.188669 0.240125
vt 0.186671 0.226807
vt 0.195133 0.226807
vt 0.192002 0.240125
vt 0.145335 0.238125
vt 0.162002 0.238125
vt 0.188671 0.226807
vt 0.158669 0.238125
vt 0.188671 0.226807
vt 0.192002 0.238125
vt 0.192002 0.238125
vt 0.188669 0.238125
vt 0.098790 0.199219
vt 0.094033 0.199219
vt 0.097314 0.195655
vt 0.094033 0.195655
vt 0.094033 0.202783
vt 0.097314 0.202783
vt 0.094033 0.202783
vt 0.093750 0.194179
vt 0.094033 0.199219
vt 0.090186 0.195655
vt 0.094033 0.195655
vt 0.088710 0.199219
vt 0.094033 0.199219
vt 0.093750 0.204259
vt 0.094033 0.199219
vt 0.090186 0.202783
vt 0.094033 0.195655
vt 0.094033 0.202783
vt 0.096049 0.199219
vt 0.096049 0.195655
vt 0.096049 0.202783
vt 0.096049 0.202783
vt 0.096049 0.199219
vt 0.096049 0.195655
vt 0.096049 0.199219
vt 0.096049 0.199219
vt 0.096049 0.195655
vt 0.096049 0.202783
vt 0.097110 0.199219
vt 0.091345 0.199219
vt 0.096126 0.196843
vt 0.091345 0.196843
vt 0.091345 0.201595
vt 0.096126 0.201595
vt 0.091345 0.201595
vt 0.093750 0.195859
vt 0.091345 0.199219
vt 0.091345 0.196843
vt 0.090390 0.199219
vt 0.091345 0.199219
vt 0.093750 0.202579
vt 0.091345 0.199219
vt 0.091345 0.196843
vt 0.091345 0.201595
vt 0.097110 0.199219
vt 0.094033 0.199219
vt 0.096126 0.196843
vt 0.094033 0.196843
vt 0.094033 0.201595
vt 0.096126 0.201595
vt 0.094033 0.201595
vt 0.093750 0.195859
vt 0.094033 0.199219
vt 0.091374 0.196843
vt 0.094033 0.196843
vt 0.093750 0.202579
vt 0.094033 0.199219
vt 0.090390 0.199219
vt 0.094033 0.199219
vt 0.091374 0.201595
vt 0.094033 0.196843
vt 0.094033 0.201595
vt 0.098790 0.199219
vt 0.094033 0.199219
vt 0.097314 0.195655
vt 0.094033 0.195655
vt 0.094033 0.202783
vt 0.097314 0.202783
vt 0.094033 0.202783
vt 0.093750 0.194179
vt 0.094033 0.199219
vt 0.090186 0.195655
vt 0.094033 0.195655
vt 0.088710 0.199219
vt 0.094033 0.199219
vt 0.093750 0.204259
vt 0.094033 0.199219
vt 0.090186 0.202783
vt 0.094033 0.195655
vt 0.094033 0.202783
vt 0.096049 0.199219
vt 0.096049 0.195655
vt 0.096049 0.202783
vt 0.096049 0.202783
vt 0.096049 0.199219
vt 0.096049 0.195655
vt 0.096049 0.199219
vt 0.096049 0.199219
vt 0.096049 0.195655
vt 0.096049 0.202783
vt 0.097110 0.199219
vt 0.091345 0.199219
vt 0.096126 0.196843
vt 0.091345 0.196843
vt 0.091345 0.201595
vt 0.096126 0.201595
vt 0.091345 0.201595
vt 0.093750 0.195859
vt 0.091345 0.199219
vt 0.091345 0.196843
vt 0.090390 0.199219
vt 0.091345 0.199219
vt 0.093750 0.202579
vt 0.091345 0.199219
vt 0.091345 0.196843
vt 0.091345 0.201595
vt 0.097110 0.199219
vt 0.094033 0.199219
vt 0.096126 0.196843
vt 0.094033 0.196843
vt 0.094033 0.201595
vt 0.096126 0.201595
vt 0.094033 0.201595
vt 0.093750 0.195859
vt 0.094033 0.199219
vt 0.091374 0.196843
vt 0.094033 0.196843
vt 0.093750 0.202579
vt 0.094033 0.199219
vt 0.090390 0.199219
vt 0.094033 0.199219
vt 0.091374 0.201595
vt 0.094033 0.196843
vt 0.094033 0.201595
vt 0.098790 0.199219
vt 0.094033 0.199219
vt 0.097314 0.195655
vt 0.094033 0.195655
vt 0.094033 0.202783
vt 0.097314 0.202783
vt 0.094033 0.202783
vt 0.093750 0.194179
vt 0.094033 0.199219
vt 0.090186 0.195655
vt 0.094033 0.195655
vt 0.088710 0.199219
vt 0.094033 0.199219
vt 0.093750 0.204259
vt 0.094033 0.199219
vt 0.090186 0.202783
vt 0.094033 0.195655
vt 0.094033 0.202783
vt 0.096049 0.199219
vt 0.096049 0.195655
vt 0.096049 0.202783
vt 0.096049 0.202783
vt 0.096049 0.199219
vt 0.096049 0.195655
vt 0.096049 0.199219
vt 0.096049 0.199219
vt 0.096049 0.195655
vt 0.096049 0.202783
vt 0.097110 0.199219
vt 0.091345 0.199219
vt 0.096126 0.196843
vt 0.091345 0.196843
vt 0.091345 0.201595
vt 0.096126 0.201595
vt 0.091345 0.201595
vt 0.093750 0.195859
vt 0.091345 0.199219
vt 0.091345 0.196843
vt 0.090390 0.199219
vt 0.091345 0.199219
vt 0.093750 0.202579
vt 0.091345 0.199219
vt 0.091345 0.196843
vt 0.091345 0.201595
vt 0.097110 0.199219
vt 0.094033 0.199219
vt 0.096126 0.196843
vt 0.094033 0.196843
vt 0.094033 0.201595
vt 0.096126 0.201595
vt 0.094033 0.201595
vt 0.093750 0.195859
vt 0.094033 0.199219
vt 0.091374 0.196843
vt 0.094033 0.196843
vt 0.093750 0.202579
vt 0.094033 0.199219
vt 0.090390 0.199219
vt 0.094033 0.199219
vt 0.091374 0.201595
vt 0.094033 0.196843
vt 0.094033 0.201595
vt 0.178870 0.158063
vt 0.178870 0.163922
vt 0.163245 0.158063
vt 0.178870 0.161969
vt 0.171057 0.165875
vt 0.171057 0.165875
vt 0.163245 0.158063
vt 0.163245 0.163922
vt 0.178870 0.158063
vt 0.163245 0.161969
vt 0.178870 0.158063
vt 0.178870 0.163922
vt 0.163245 0.158063
vt 0.178870 0.161969
vt 0.171057 0.165875
vt 0.171057 0.165875
vt 0.163245 0.158063
vt 0.163245 0.163922
vt 0.178870 0.158063
vt 0.163245 0.161969
vt 0.178870 0.158062
vt 0.178870 0.163922
vt 0.163245 0.158062
vt 0.178870 0.161969
vt 0.171058 0.165875
vt 0.171058 0.165875
vt 0.163245 0.158062
vt 0.163245 0.163922
vt 0.178870 0.158062
vt 0.163245 0.161969
vt 0.178870 0.158062
vt 0.178870 0.163922
vt 0.163245 0.158062
vt 0.178870 0.161969
vt 0.171058 0.165875
vt 0.171058 0.165875
vt 0.163245 0.158062
vt 0.163245 0.163922
vt 0.178870 0.158062
vt 0.163245 0.161969
s 0
usemtl electronics_etx_part_1
f 2/4/1 3/7/1 6/16/1 7/19/1
f 1/3/2 22/60/2 21/56/2 18/48/2
f 7/20/2 6/17/2 5/13/2 4/10/2
f 1/1/3 2/5/3 7/21/3 4/11/3
f 22/58/4 1/2/4 4/12/4 5/14/4
f 3/8/5 22/59/5 5/15/5 6/18/5
f 29/71/2 32/78/2 31/74/2 27/65/2
f 32/76/1 29/69/1 12/34/1 13/37/1
f 23/61/4 26/64/4 27/66/4 31/75/4
f 13/38/2 12/35/2 11/31/2 10/28/2
f 8/22/3 32/77/3 13/39/3 10/29/3
f 9/25/4 8/23/4 10/30/4 11/32/4
f 29/70/5 9/26/5 11/33/5 12/36/5
f 18/47/1 21/55/1 16/44/1 15/42/1
f 25/63/3 17/46/3 20/53/3 28/67/3
f 8/24/2 30/73/2 32/78/2
f 18/48/2 19/52/2 1/3/2
f 20/54/2 21/56/2 22/60/2
f 27/65/2 28/68/2 29/71/2
f 30/73/2 31/74/2 32/78/2
f 14/40/6 19/50/6 18/49/6 15/43/6
f 20/53/7 17/46/7 16/45/7 21/57/7
f 30/72/8 24/62/8 23/61/8 31/75/8
f 25/63/9 28/67/9 27/66/9 26/64/9
f 24/62/5 30/72/5 19/51/5 14/41/5
f 19/52/2 2/6/2 1/3/2
f 3/9/2 20/54/2 22/60/2
f 8/24/2 2/6/2 19/52/2 30/73/2
f 29/71/2 28/68/2 9/27/2
f 9/27/2 3/9/2 2/6/2 8/24/2
f 28/68/2 20/54/2 3/9/2 9/27/2
f 39/92/2 35/84/2 33/79/2 34/81/2 36/86/2 37/88/2 38/90/2 40/94/2
f 46/103/10 39/93/10 40/95/10 48/105/10
f 48/106/11 40/96/11 38/91/11 47/104/11
f 39/93/12 46/103/12 43/100/12 35/85/12
f 35/85/13 43/100/13 41/97/13 33/80/13
f 47/104/14 38/91/14 37/89/14 45/102/14
f 45/102/15 37/89/15 36/87/15 44/101/15
f 33/80/16 41/97/16 42/98/16 34/82/16
f 34/83/17 42/99/17 44/101/17 36/87/17
f 57/123/18 59/128/18 62/134/18 64/138/18 63/136/18 61/132/18 60/130/18 58/125/18
f 55/119/2 51/112/2 49/107/2 50/109/2 52/114/2 53/116/2 54/117/2 56/122/2
f 62/135/10 55/120/10 56/121/10 64/139/10
f 64/140/11 56/122/11 54/118/11 63/137/11
f 55/120/12 62/135/12 59/129/12 51/113/12
f 51/113/13 59/129/13 57/124/13 49/108/13
f 63/137/14 54/118/14 53/116/14 61/133/14
f 61/133/15 53/116/15 52/115/15 60/131/15
f 49/108/16 57/124/16 58/126/16 50/110/16
f 50/111/17 58/127/17 60/131/17 52/115/17
f 71/154/2 67/146/2 65/141/2 66/143/2 68/148/2 69/150/2 70/152/2 72/156/2
f 78/165/10 71/155/10 72/157/10 80/167/10
f 80/168/11 72/158/11 70/153/11 79/166/11
f 71/155/12 78/165/12 75/162/12 67/147/12
f 67/147/13 75/162/13 73/159/13 65/142/13
f 79/166/14 70/153/14 69/151/14 77/164/14
f 77/164/15 69/151/15 68/149/15 76/163/15
f 65/142/16 73/159/16 74/160/16 66/144/16
f 66/145/17 74/161/17 76/163/17 68/149/17
f 89/185/18 91/190/18 94/196/18 96/200/18 95/198/18 93/194/18 92/192/18 90/187/18
f 87/181/2 83/174/2 81/169/2 82/171/2 84/176/2 85/178/2 86/179/2 88/184/2
f 94/197/10 87/182/10 88/183/10 96/201/10
f 96/202/11 88/184/11 86/180/11 95/199/11
f 87/182/12 94/197/12 91/191/12 83/175/12
f 83/175/13 91/191/13 89/186/13 81/170/13
f 95/199/14 86/180/14 85/178/14 93/195/14
f 93/195/15 85/178/15 84/177/15 92/193/15
f 81/170/16 89/186/16 90/188/16 82/172/16
f 82/173/17 90/189/17 92/193/17 84/177/17
f 103/216/1 99/208/1 97/203/1 98/205/1 100/210/1 101/212/1 102/214/1 104/218/1
f 110/227/19 103/217/19 104/219/19 112/229/19
f 112/230/20 104/220/20 102/215/20 111/228/20
f 103/217/21 110/227/21 107/224/21 99/209/21
f 99/209/22 107/224/22 105/221/22 97/204/22
f 111/228/23 102/215/23 101/213/23 109/226/23
f 109/226/24 101/213/24 100/211/24 108/225/24
f 97/204/25 105/221/25 106/222/25 98/206/25
f 98/207/26 106/223/26 108/225/26 100/211/26
f 121/247/4 123/252/4 126/258/4 128/262/4 127/260/4 125/256/4 124/254/4 122/249/4
f 119/243/1 115/236/1 113/231/1 114/233/1 116/238/1 117/240/1 118/241/1 120/246/1
f 126/259/19 119/244/19 120/245/19 128/263/19
f 128/264/20 120/246/20 118/242/20 127/261/20
f 119/244/21 126/259/21 123/253/21 115/237/21
f 115/237/22 123/253/22 121/248/22 113/232/22
f 127/261/23 118/242/23 117/240/23 125/257/23
f 125/257/24 117/240/24 116/239/24 124/255/24
f 113/232/25 121/248/25 122/250/25 114/234/25
f 114/235/26 122/251/26 124/255/26 116/239/26
f 135/278/4 131/270/4 129/265/4 130/267/4 132/272/4 133/274/4 134/276/4 136/280/4
f 142/289/20 135/279/20 136/281/20 144/291/20
f 144/292/19 136/282/19 134/277/19 143/290/19
f 135/279/23 142/289/23 139/286/23 131/271/23
f 131/271/24 139/286/24 137/283/24 129/266/24
f 143/290/21 134/277/21 133/275/21 141/288/21
f 141/288/22 133/275/22 132/273/22 140/287/22
f 129/266/26 137/283/26 138/284/26 130/268/26
f 130/269/25 138/285/25 140/287/25 132/273/25
f 153/309/1 155/314/1 158/320/1 160/324/1 159/322/1 157/318/1 156/316/1 154/311/1
f 151/305/4 147/298/4 145/293/4 146/295/4 148/300/4 149/302/4 150/303/4 152/308/4
f 158/321/20 151/306/20 152/307/20 160/325/20
f 160/326/19 152/308/19 150/304/19 159/323/19
f 151/306/23 158/321/23 155/315/23 147/299/23
f 147/299/24 155/315/24 153/310/24 145/294/24
f 159/323/21 150/304/21 149/302/21 157/319/21
f 157/319/22 149/302/22 148/301/22 156/317/22
f 145/294/26 153/310/26 154/312/26 146/296/26
f 146/297/25 154/313/25 156/317/25 148/301/25
f 162/330/3 171/349/3 168/341/3 164/334/3
f 162/330/3 164/334/3 179/371/3 176/364/3
f 175/361/1 180/373/1 177/367/1 174/358/1
f 165/335/5 170/346/5 161/329/5 163/333/5
f 161/327/1 170/347/1 169/343/1 172/352/1 171/350/1 162/331/1
f 162/332/2 176/365/2 175/362/2 174/359/2 173/355/2 161/328/2
f 163/333/5 161/329/5 173/356/5 178/369/5
f 169/344/2 166/337/2 167/339/2 172/353/2
f 165/336/27 166/338/27 169/345/27 170/348/27
f 171/351/28 172/354/28 167/340/28 168/342/28
f 173/357/6 174/360/6 177/368/6 178/370/6
f 179/372/7 180/374/7 175/363/7 176/366/7
f 187/388/2 188/390/2 186/386/2 185/384/2 184/382/2 182/377/2 181/375/2 183/380/2
f 194/399/16 196/401/16 188/391/16 187/389/16
f 196/402/17 195/400/17 186/387/17 188/392/17
f 187/389/13 183/381/13 191/396/13 194/399/13
f 183/381/12 181/376/12 189/393/12 191/396/12
f 195/400/15 193/398/15 185/385/15 186/387/15
f 193/398/14 192/397/14 184/383/14 185/385/14
f 181/376/10 182/378/10 190/394/10 189/393/10
f 182/379/11 184/383/11 192/397/11 190/395/11
f 205/419/18 206/421/18 208/426/18 209/428/18 211/432/18 212/434/18 210/430/18 207/424/18
f 203/415/2 204/418/2 202/413/2 201/412/2 200/410/2 198/405/2 197/403/2 199/408/2
f 210/431/16 212/435/16 204/417/16 203/416/16
f 212/436/17 211/433/17 202/414/17 204/418/17
f 203/416/13 199/409/13 207/425/13 210/431/13
f 199/409/12 197/404/12 205/420/12 207/425/12
f 211/433/15 209/429/15 201/412/15 202/414/15
f 209/429/14 208/427/14 200/411/14 201/412/14
f 197/404/10 198/406/10 206/422/10 205/420/10
f 198/407/11 200/411/11 208/427/11 206/423/11
f 214/440/3 216/444/3 220/451/3 223/459/3
f 214/440/3 228/474/3 231/481/3 216/444/3
f 227/471/4 226/468/4 229/477/4 232/483/4
f 217/445/5 215/443/5 213/439/5 222/456/5
f 213/437/4 214/441/4 223/460/4 224/462/4 221/453/4 222/457/4
f 214/442/2 213/438/2 225/465/2 226/469/2 227/472/2 228/475/2
f 215/443/5 230/479/5 225/466/5 213/439/5
f 221/454/2 224/463/2 219/449/2 218/447/2
f 217/446/27 222/458/27 221/455/27 218/448/27
f 223/461/28 220/452/28 219/450/28 224/464/28
f 225/467/8 230/480/8 229/478/8 226/470/8
f 231/482/9 228/476/9 227/473/9 232/484/9
f 239/498/2 235/490/2 233/485/2 234/487/2 236/492/2 237/494/2 238/496/2 240/500/2
f 246/509/10 239/499/10 240/501/10 248/511/10
f 248/512/11 240/502/11 238/497/11 247/510/11
f 239/499/12 246/509/12 243/506/12 235/491/12
f 235/491/13 243/506/13 241/503/13 233/486/13
f 247/510/14 238/497/14 237/495/14 245/508/14
f 245/508/15 237/495/15 236/493/15 244/507/15
f 233/486/16 241/503/16 242/504/16 234/488/16
f 234/489/17 242/505/17 244/507/17 236/493/17
f 257/529/18 259/534/18 262/540/18 264/544/18 263/542/18 261/538/18 260/536/18 258/531/18
f 255/525/2 251/518/2 249/513/2 250/515/2 252/520/2 253/522/2 254/523/2 256/528/2
f 262/541/10 255/526/10 256/527/10 264/545/10
f 264/546/11 256/528/11 254/524/11 263/543/11
f 255/526/12 262/541/12 259/535/12 251/519/12
f 251/519/13 259/535/13 257/530/13 249/514/13
f 263/543/14 254/524/14 253/522/14 261/539/14
f 261/539/15 253/522/15 252/521/15 260/537/15
f 249/514/16 257/530/16 258/532/16 250/516/16
f 250/517/17 258/533/17 260/537/17 252/521/17
f 271/560/2 272/562/2 270/558/2 269/556/2 268/554/2 266/549/2 265/547/2 267/552/2
f 278/571/16 280/573/16 272/563/16 271/561/16
f 280/574/17 279/572/17 270/559/17 272/564/17
f 271/561/13 267/553/13 275/568/13 278/571/13
f 267/553/12 265/548/12 273/565/12 275/568/12
f 279/572/15 277/570/15 269/557/15 270/559/15
f 277/570/14 276/569/14 268/555/14 269/557/14
f 265/548/10 266/550/10 274/566/10 273/565/10
f 266/551/11 268/555/11 276/569/11 274/567/11
f 289/591/18 290/593/18 292/598/18 293/600/18 295/604/18 296/606/18 294/602/18 291/596/18
f 287/587/2 288/590/2 286/585/2 285/584/2 284/582/2 282/577/2 281/575/2 283/580/2
f 294/603/16 296/607/16 288/589/16 287/588/16
f 296/608/17 295/605/17 286/586/17 288/590/17
f 287/588/13 283/581/13 291/597/13 294/603/13
f 283/581/12 281/576/12 289/592/12 291/597/12
f 295/605/15 293/601/15 285/584/15 286/586/15
f 293/601/14 292/599/14 284/583/14 285/584/14
f 281/576/10 282/578/10 290/594/10 289/592/10
f 282/579/11 284/583/11 292/599/11 290/595/11
f 303/622/2 299/614/2 297/609/2 298/611/2 300/616/2 301/618/2 302/620/2 304/624/2
f 310/633/10 303/623/10 304/625/10 312/635/10
f 312/636/11 304/626/11 302/621/11 311/634/11
f 303/623/12 310/633/12 307/630/12 299/615/12
f 299/615/13 307/630/13 305/627/13 297/610/13
f 311/634/14 302/621/14 301/619/14 309/632/14
f 309/632/15 301/619/15 300/617/15 308/631/15
f 297/610/16 305/627/16 306/628/16 298/612/16
f 298/613/17 306/629/17 308/631/17 300/617/17
f 321/653/18 323/658/18 326/664/18 328/668/18 327/666/18 325/662/18 324/660/18 322/655/18
f 319/649/2 315/642/2 313/637/2 314/639/2 316/644/2 317/646/2 318/647/2 320/652/2
f 326/665/10 319/650/10 320/651/10 328/669/10
f 328/670/11 320/652/11 318/648/11 327/667/11
f 319/650/12 326/665/12 323/659/12 315/643/12
f 315/643/13 323/659/13 321/654/13 313/638/13
f 327/667/14 318/648/14 317/646/14 325/663/14
f 325/663/15 317/646/15 316/645/15 324/661/15
f 313/638/16 321/654/16 322/656/16 314/640/16
f 314/641/17 322/657/17 324/661/17 316/645/17
f 331/675/5 333/677/5 329/671/5
f 334/679/3 332/676/3 330/673/3
f 334/680/29 330/674/29 329/672/29 333/678/29
f 337/685/5 339/687/5 335/681/5
f 340/689/3 338/686/3 336/683/3
f 340/690/29 336/684/29 335/682/29 339/688/29
f 343/695/5 341/691/5 345/697/5
f 346/699/3 342/693/3 344/696/3
f 346/700/30 345/698/30 341/692/30 342/694/30
f 349/705/5 347/701/5 351/707/5
f 352/709/3 348/703/3 350/706/3
f 352/710/30 351/708/30 347/702/30 348/704/30
o lever_etx_2_child
v 0.072000 0.094186 0.163460
v 0.072000 0.109460 0.148187
v 0.061200 0.094186 0.163460
v 0.061200 0.109460 0.148187
v 0.072000 -0.025456 0.054000
v 0.072000 -0.000000 0.028544
v 0.061200 -0.025456 0.054000
v 0.061200 -0.000000 0.028544
v 0.072000 0.101823 0.130368
v 0.072000 0.076367 0.155823
v -0.077040 0.089095 0.126895
v -0.077040 0.077640 0.131640
v -0.077040 0.100550 0.131640
v -0.077040 0.072895 0.143095
v -0.077040 0.077640 0.154551
v -0.077040 0.089095 0.159295
v -0.077040 0.105295 0.143095
v -0.077040 0.100550 0.154551
v -0.072000 0.089095 0.126895
v -0.072000 0.077640 0.131640
v -0.072000 0.100550 0.131640
v -0.072000 0.072895 0.143095
v -0.072000 0.077640 0.154551
v -0.072000 0.105295 0.143095
v -0.072000 0.089095 0.159295
v -0.072000 0.100550 0.154551
v -0.085680 0.089095 0.132295
v -0.085680 0.081459 0.135459
v -0.085680 0.096732 0.135459
v -0.085680 0.078295 0.143095
v -0.085680 0.081459 0.150732
v -0.085680 0.089095 0.153895
v -0.085680 0.099895 0.143095
v -0.085680 0.096732 0.150732
v -0.077040 0.089095 0.132295
v -0.077040 0.081459 0.135459
v -0.077040 0.096732 0.135459
v -0.077040 0.078295 0.143095
v -0.077040 0.081459 0.150732
v -0.077040 0.099895 0.143095
v -0.077040 0.089095 0.153895
v -0.077040 0.096732 0.150732
v 0.077040 0.072895 0.143096
v 0.077040 0.077640 0.131640
v 0.077040 0.077640 0.154551
v 0.077040 0.089095 0.126896
v 0.077040 0.100551 0.131640
v 0.077040 0.105295 0.143096
v 0.077040 0.089095 0.159296
v 0.077040 0.100551 0.154551
v 0.072000 0.072895 0.143096
v 0.072000 0.077640 0.131640
v 0.072000 0.077640 0.154551
v 0.072000 0.089095 0.126896
v 0.072000 0.100551 0.131640
v 0.072000 0.089095 0.159296
v 0.072000 0.105295 0.143096
v 0.072000 0.100551 0.154551
v 0.085680 0.078295 0.143096
v 0.085680 0.081459 0.135459
v 0.085680 0.081459 0.150732
v 0.085680 0.089095 0.132296
v 0.085680 0.096732 0.135459
v 0.085680 0.099895 0.143096
v 0.085680 0.089095 0.153896
v 0.085680 0.096732 0.150732
v 0.077040 0.078295 0.143096
v 0.077040 0.081459 0.135459
v 0.077040 0.081459 0.150732
v 0.077040 0.089095 0.132296
v 0.077040 0.096732 0.135459
v 0.077040 0.089095 0.153896
v 0.077040 0.099895 0.143096
v 0.077040 0.096732 0.150732
v 0.072000 0.084004 0.122731
v 0.072000 0.068731 0.138004
v 0.061200 0.084004 0.122731
v 0.061200 0.068731 0.138004
v 0.061200 0.101823 0.130368
v 0.061200 0.076367 0.155824
v 0.072000 0.070003 0.098548
v 0.072000 0.044547 0.124004
v 0.061200 0.070003 0.098548
v 0.061200 0.044547 0.124004
v -0.061200 0.094186 0.163460
v -0.061200 0.109460 0.148187
v -0.072000 0.094186 0.163460
v -0.072000 0.109460 0.148187
v -0.061200 -0.025456 0.054000
v -0.061200 -0.000000 0.028544
v -0.072000 -0.025456 0.054000
v -0.072000 -0.000000 0.028544
v -0.061200 0.101823 0.130368
v -0.061200 0.076367 0.155823
v -0.061200 0.084004 0.122731
v -0.061200 0.068731 0.138004
v -0.072000 0.084004 0.122731
v -0.072000 0.068731 0.138004
v -0.072000 0.101823 0.130368
v -0.072000 0.076367 0.155824
v -0.061200 0.070003 0.098548
v -0.061200 0.044547 0.124004
v -0.072000 0.070003 0.098548
v -0.072000 0.044547 0.124004
v -0.061200 0.072549 0.126549
v -0.061200 0.065695 0.143096
v -0.061200 0.089095 0.119696
v -0.061200 0.072549 0.159642
v -0.061200 0.089095 0.166496
v -0.061200 0.105642 0.159642
v -0.061200 0.105642 0.126549
v -0.061200 0.112495 0.143096
v 0.061200 0.072549 0.126549
v 0.061200 0.065695 0.143096
v 0.061200 0.089095 0.119696
v 0.061200 0.072549 0.159642
v 0.061200 0.089095 0.166496
v 0.061200 0.105642 0.126549
v 0.061200 0.105642 0.159642
v 0.061200 0.112495 0.143096
vn -0.0000 0.7071 -0.7071
vn 1.0000 -0.0000 -0.0000
vn -1.0000 -0.0000 -0.0000
vn -0.0000 -0.7071 0.7071
vn -0.0000 -0.3939 0.9191
vn -0.0000 0.9191 -0.3939
vn -0.0000 0.9239 0.3827
vn -0.0000 0.3827 0.9239
vn -0.0000 0.9239 -0.3827
vn -0.0000 0.3827 -0.9239
vn -0.0000 -0.3827 0.9239
vn -0.0000 -0.9239 0.3827
vn -0.0000 -0.3827 -0.9239
vn -0.0000 -0.9239 -0.3827
vn -0.0000 -0.9191 0.3939
vn -0.0000 0.3939 -0.9191
vn -0.0000 -0.5010 0.8654
vn -0.0000 0.8654 -0.5010
vn -0.0000 0.7071 0.7071
vn -0.0000 1.0000 -0.0000
vn -0.0000 -0.0000 -1.0000
vn -0.0000 -0.7071 -0.7071
vn -0.0000 -0.0000 1.0000
vn -0.0000 -1.0000 -0.0000
vt 0.129285 0.173631
vt 0.130075 0.156902
vt 0.129295 0.169023
vt 0.130075 0.166082
vt 0.129285 0.169041
vt 0.138475 0.169023
vt 0.129285 0.169041
vt 0.130075 0.166082
vt 0.129295 0.173613
vt 0.130075 0.156902
vt 0.129285 0.173631
vt 0.138475 0.173613
vt 0.198921 0.153842
vt 0.199711 0.173631
vt 0.199711 0.169041
vt 0.198921 0.169142
vt 0.198921 0.169142
vt 0.199711 0.169041
vt 0.199711 0.173631
vt 0.198921 0.153842
vt 0.137725 0.169142
vt 0.137524 0.169041
vt 0.137524 0.173631
vt 0.137725 0.153842
vt 0.129527 0.201172
vt 0.123987 0.201172
vt 0.127629 0.196590
vt 0.123987 0.196590
vt 0.123987 0.205754
vt 0.127629 0.205754
vt 0.123987 0.205754
vt 0.123047 0.194692
vt 0.123987 0.201172
vt 0.118465 0.196590
vt 0.123987 0.196590
vt 0.116567 0.201172
vt 0.123987 0.201172
vt 0.123047 0.207652
vt 0.123987 0.201172
vt 0.118465 0.205754
vt 0.123987 0.196590
vt 0.123987 0.205754
vt 0.126003 0.201172
vt 0.126003 0.196590
vt 0.126003 0.205754
vt 0.126003 0.205754
vt 0.126003 0.201172
vt 0.126003 0.196590
vt 0.126003 0.201172
vt 0.126003 0.201172
vt 0.126003 0.196590
vt 0.126003 0.205754
vt 0.127367 0.201172
vt 0.120531 0.201172
vt 0.126102 0.198117
vt 0.120531 0.198117
vt 0.120531 0.204227
vt 0.126102 0.204227
vt 0.120531 0.204227
vt 0.123047 0.196852
vt 0.120531 0.201172
vt 0.119992 0.198117
vt 0.120531 0.198117
vt 0.118727 0.201172
vt 0.120531 0.201172
vt 0.123047 0.205492
vt 0.120531 0.201172
vt 0.119992 0.204227
vt 0.120531 0.198117
vt 0.120531 0.204227
vt 0.127367 0.201172
vt 0.123987 0.201172
vt 0.126102 0.198117
vt 0.123987 0.198117
vt 0.123987 0.204227
vt 0.126102 0.204227
vt 0.123987 0.204227
vt 0.123047 0.196852
vt 0.123987 0.201172
vt 0.119992 0.198117
vt 0.123987 0.198117
vt 0.123047 0.205492
vt 0.123987 0.201172
vt 0.118727 0.201172
vt 0.123987 0.201172
vt 0.119992 0.204227
vt 0.123987 0.198117
vt 0.123987 0.204227
vt 0.129527 0.201172
vt 0.123987 0.201172
vt 0.127629 0.196590
vt 0.123987 0.196590
vt 0.123987 0.205754
vt 0.127629 0.205754
vt 0.123987 0.205754
vt 0.123047 0.194692
vt 0.123987 0.201172
vt 0.118465 0.196590
vt 0.123987 0.196590
vt 0.116567 0.201172
vt 0.123987 0.201172
vt 0.123047 0.207652
vt 0.123987 0.201172
vt 0.118465 0.205754
vt 0.123987 0.196590
vt 0.123987 0.205754
vt 0.126003 0.201172
vt 0.126003 0.196590
vt 0.126003 0.205754
vt 0.126003 0.205754
vt 0.126003 0.201172
vt 0.126003 0.196590
vt 0.126003 0.201172
vt 0.126003 0.201172
vt 0.126003 0.196590
vt 0.126003 0.205754
vt 0.127367 0.201172
vt 0.120531 0.201172
vt 0.126102 0.198117
vt 0.120531 0.198117
vt 0.120531 0.204227
vt 0.126102 0.204227
vt 0.120531 0.204227
vt 0.123047 0.196852
vt 0.120531 0.201172
vt 0.119992 0.198117
vt 0.120531 0.198117
vt 0.118727 0.201172
vt 0.120531 0.201172
vt 0.123047 0.205492
vt 0.120531 0.201172
vt 0.119992 0.204227
vt 0.120531 0.198117
vt 0.120531 0.204227
vt 0.127367 0.201172
vt 0.123987 0.201172
vt 0.126102 0.198117
vt 0.123987 0.198117
vt 0.123987 0.204227
vt 0.126102 0.204227
vt 0.123987 0.204227
vt 0.123047 0.196852
vt 0.123987 0.201172
vt 0.119992 0.198117
vt 0.123987 0.198117
vt 0.123047 0.205492
vt 0.123987 0.201172
vt 0.118727 0.201172
vt 0.123987 0.201172
vt 0.119992 0.204227
vt 0.123987 0.198117
vt 0.123987 0.204227
vt 0.145374 0.166082
vt 0.145763 0.169041
vt 0.145763 0.173631
vt 0.145374 0.156902
vt 0.145374 0.156902
vt 0.145763 0.173631
vt 0.145763 0.169041
vt 0.145374 0.166082
vt 0.137725 0.153842
vt 0.137524 0.173631
vt 0.137524 0.169041
vt 0.137725 0.169142
vt 0.156849 0.169142
vt 0.157638 0.169041
vt 0.157638 0.173631
vt 0.156849 0.153842
vt 0.156849 0.153842
vt 0.157638 0.173631
vt 0.157638 0.169041
vt 0.156849 0.169142
vt 0.129285 0.173631
vt 0.130075 0.156902
vt 0.129295 0.169023
vt 0.130075 0.166082
vt 0.129285 0.169041
vt 0.138475 0.169023
vt 0.129285 0.169041
vt 0.130075 0.166082
vt 0.129295 0.173613
vt 0.130075 0.156902
vt 0.129285 0.173631
vt 0.138475 0.173613
vt 0.198921 0.153842
vt 0.199711 0.173631
vt 0.199711 0.169041
vt 0.198921 0.169142
vt 0.198921 0.169142
vt 0.199711 0.169041
vt 0.199711 0.173631
vt 0.198921 0.153842
vt 0.137725 0.169142
vt 0.137524 0.169041
vt 0.137524 0.173631
vt 0.137725 0.153842
vt 0.145374 0.166082
vt 0.145763 0.169041
vt 0.145763 0.173631
vt 0.145374 0.156902
vt 0.145374 0.156902
vt 0.145763 0.173631
vt 0.145763 0.169041
vt 0.145374 0.166082
vt 0.137725 0.153842
vt 0.137524 0.173631
vt 0.137524 0.169041
vt 0.137725 0.169142
vt 0.156849 0.169142
vt 0.157638 0.169041
vt 0.157638 0.173631
vt 0.156849 0.153842
vt 0.156849 0.153842
vt 0.157638 0.173631
vt 0.157638 0.169041
vt 0.156849 0.169142
vt 0.085206 0.127314
vt 0.066406 0.128906
vt 0.078125 0.128906
vt 0.090593 0.127314
vt 0.072266 0.128906
vt 0.081397 0.131124
vt 0.072266 0.128906
vt 0.094402 0.131124
vt 0.078125 0.128906
vt 0.066406 0.128906
vt 0.094402 0.136511
vt 0.072266 0.128906
vt 0.090593 0.140320
vt 0.078125 0.128906
vt 0.066406 0.128906
vt 0.081397 0.136511
vt 0.066406 0.128906
vt 0.078125 0.128906
vt 0.085206 0.140320
vt 0.072266 0.128906
vt 0.085203 0.127314
vt 0.066406 0.171875
vt 0.078125 0.171875
vt 0.081394 0.131124
vt 0.072266 0.171875
vt 0.090590 0.127314
vt 0.072266 0.171875
vt 0.081394 0.136511
vt 0.078125 0.171875
vt 0.066406 0.171875
vt 0.085203 0.140320
vt 0.072266 0.171875
vt 0.094399 0.131124
vt 0.066406 0.171875
vt 0.078125 0.171875
vt 0.090590 0.140320
vt 0.078125 0.171875
vt 0.066406 0.171875
vt 0.094399 0.136511
vt 0.072266 0.171875
s 1
usemtl electronics_etx_part_1
f 435/880/31 433/876/31 358/725/31 360/729/31
f 433/875/32 434/878/32 357/723/32 358/726/32
f 436/882/33 435/879/33 360/730/33 359/727/33
f 434/877/34 436/881/34 359/728/34 357/724/34
f 353/711/35 355/717/35 432/873/35 362/733/35
f 355/718/33 356/720/33 431/871/33 432/874/33
f 354/714/32 353/712/32 362/734/32 361/731/32
f 356/721/36 354/715/36 361/732/36 431/872/36
f 369/748/33 365/740/33 363/735/33 364/737/33 366/742/33 367/744/33 368/746/33 370/750/33
f 376/759/37 369/749/37 370/751/37 378/761/37
f 378/762/38 370/752/38 368/747/38 377/760/38
f 369/749/39 376/759/39 373/756/39 365/741/39
f 365/741/40 373/756/40 371/753/40 363/736/40
f 377/760/41 368/747/41 367/745/41 375/758/41
f 375/758/42 367/745/42 366/743/42 374/757/42
f 363/736/43 371/753/43 372/754/43 364/738/43
f 364/739/44 372/755/44 374/757/44 366/743/44
f 387/781/32 389/786/32 392/792/32 394/796/32 393/794/32 391/790/32 390/788/32 388/783/32
f 385/776/33 381/768/33 379/763/33 380/765/33 382/770/33 383/772/33 384/774/33 386/778/33
f 392/793/37 385/777/37 386/779/37 394/797/37
f 394/798/38 386/780/38 384/775/38 393/795/38
f 385/777/39 392/793/39 389/787/39 381/769/39
f 381/769/40 389/787/40 387/782/40 379/764/40
f 393/795/41 384/775/41 383/773/41 391/791/41
f 391/791/42 383/773/42 382/771/42 390/789/42
f 379/764/43 387/782/43 388/784/43 380/766/43
f 380/767/44 388/785/44 390/789/44 382/771/44
f 401/812/32 397/804/32 395/799/32 396/801/32 398/806/32 399/808/32 400/810/32 402/814/32
f 408/823/38 401/813/38 402/815/38 410/825/38
f 410/826/37 402/816/37 400/811/37 409/824/37
f 401/813/41 408/823/41 405/820/41 397/805/41
f 397/805/42 405/820/42 403/817/42 395/800/42
f 409/824/39 400/811/39 399/809/39 407/822/39
f 407/822/40 399/809/40 398/807/40 406/821/40
f 395/800/44 403/817/44 404/818/44 396/802/44
f 396/803/43 404/819/43 406/821/43 398/807/43
f 419/845/33 421/850/33 424/856/33 426/860/33 425/858/33 423/854/33 422/852/33 420/847/33
f 417/840/32 413/832/32 411/827/32 412/829/32 414/834/32 415/836/32 416/838/32 418/842/32
f 424/857/38 417/841/38 418/843/38 426/861/38
f 426/862/37 418/844/37 416/839/37 425/859/37
f 417/841/41 424/857/41 421/851/41 413/833/41
f 413/833/42 421/851/42 419/846/42 411/828/42
f 425/859/39 416/839/39 415/837/39 423/855/39
f 423/855/40 415/837/40 414/835/40 422/853/40
f 411/828/44 419/846/44 420/848/44 412/830/44
f 412/831/43 420/849/43 422/853/43 414/835/43
f 362/733/45 432/873/45 430/869/45 428/865/45
f 432/874/33 431/871/33 429/867/33 430/870/33
f 361/731/32 362/734/32 428/866/32 427/863/32
f 431/872/46 361/732/46 427/864/46 429/868/46
f 428/865/47 430/869/47 436/881/47 434/877/47
f 430/870/33 429/867/33 435/879/33 436/882/33
f 427/863/32 428/866/32 434/878/32 433/875/32
f 429/868/48 427/864/48 433/876/48 435/880/48
f 353/713/49 354/716/49 356/722/49 355/719/49
f 455/924/31 453/920/31 442/897/31 444/901/31
f 453/919/32 454/922/32 441/895/32 442/898/32
f 456/926/33 455/923/33 444/902/33 443/899/33
f 454/921/34 456/925/34 443/900/34 441/896/34
f 437/883/35 439/889/35 452/917/35 446/905/35
f 439/890/33 440/892/33 451/915/33 452/918/33
f 438/886/32 437/884/32 446/906/32 445/903/32
f 440/893/36 438/887/36 445/904/36 451/916/36
f 446/905/45 452/917/45 450/913/45 448/909/45
f 452/918/33 451/915/33 449/911/33 450/914/33
f 445/903/32 446/906/32 448/910/32 447/907/32
f 451/916/46 445/904/46 447/908/46 449/912/46
f 448/909/47 450/913/47 456/925/47 454/921/47
f 450/914/33 449/911/33 455/923/33 456/926/33
f 447/907/32 448/910/32 454/922/32 453/919/32
f 449/912/48 447/908/48 453/920/48 455/924/48
f 437/885/49 438/888/49 440/894/49 439/891/49
f 465/947/32 467/952/32 470/959/32 472/965/32 471/962/32 469/957/32 468/954/32 466/950/32
f 463/942/33 459/932/33 457/927/33 458/930/33 460/934/33 461/937/33 462/939/33 464/945/33
f 470/960/31 463/943/31 464/946/50 472/966/50
f 472/966/50 464/946/50 462/940/49 471/963/49
f 463/944/31 470/961/31 467/953/51 459/933/51
f 459/933/51 467/953/51 465/948/52 457/928/52
f 471/964/49 462/941/49 461/938/53 469/958/53
f 469/958/53 461/938/53 460/935/34 468/955/34
f 457/929/52 465/949/52 466/951/54 458/931/54
f 458/931/54 466/951/54 468/956/34 460/936/34
