# Blender 3.4.0
# www.blender.org
mtllib screen_etx_1_partial.mtl
o screen_etx_1_partial
v -0.189000 -0.151200 -0.000000
v -0.189000 0.151200 -0.000000
v 0.189000 -0.151200 -0.000000
v 0.189000 0.151200 -0.000000
v 0.189000 0.151200 0.147600
v -0.189000 0.151200 0.147600
v -0.189000 -0.151200 0.147600
v -0.153000 -0.115200 0.147600
v -0.153000 0.115200 0.147600
v 0.153000 -0.115200 0.147600
v 0.153000 0.115200 0.147600
v 0.189000 -0.151200 0.147600
v -0.136800 -0.099000 0.129600
v -0.136800 0.099000 0.129600
v 0.136800 0.099000 0.129600
v 0.136800 -0.099000 0.129600
v 0.037799 -0.133200 0.163800
v 0.026999 -0.133200 0.163800
v 0.037799 -0.187200 0.127800
v 0.026999 -0.187200 0.127800
v 0.037799 -0.187200 0.001800
v 0.026999 -0.187200 0.001800
v 0.037799 -0.133200 0.001800
v 0.026999 -0.133200 0.001800
v 0.037799 -0.151200 0.163800
v 0.026999 -0.151200 0.163800
v 0.098999 -0.133200 0.163800
v 0.088199 -0.133200 0.163800
v 0.098999 -0.187200 0.127800
v 0.088199 -0.187200 0.127800
v 0.098999 -0.187200 0.001800
v 0.088199 -0.187200 0.001800
v 0.098999 -0.133200 0.001800
v 0.088199 -0.133200 0.001800
v 0.098999 -0.151200 0.163800
v 0.088199 -0.151200 0.163800
v 0.037799 0.133201 0.163800
v 0.026999 0.133201 0.163800
v 0.037799 0.187201 0.127800
v 0.026999 0.187201 0.127800
v 0.037799 0.187201 0.001800
v 0.026999 0.187201 0.001800
v 0.037799 0.133201 0.001800
v 0.026999 0.133201 0.001800
v 0.037799 0.151201 0.163800
v 0.026999 0.151201 0.163800
v 0.098999 0.133201 0.163800
v 0.088199 0.133201 0.163800
v 0.098999 0.187201 0.127800
v 0.088199 0.187201 0.127800
v 0.098999 0.187201 0.001800
v 0.088199 0.187201 0.001800
v 0.098999 0.133201 0.001800
v 0.088199 0.133201 0.001800
v 0.098999 0.151201 0.163800
v 0.088199 0.151201 0.163800
v -0.088200 -0.133200 0.163800
v -0.099000 -0.133200 0.163800
v -0.088200 -0.187200 0.127800
v -0.099000 -0.187200 0.127800
v -0.088200 -0.187200 0.001800
v -0.099000 -0.187200 0.001800
v -0.088200 -0.133200 0.001800
v -0.099000 -0.133200 0.001800
v -0.088200 -0.151200 0.163800
v -0.099000 -0.151200 0.163800
v -0.027001 -0.133200 0.163800
v -0.037801 -0.133200 0.163800
v -0.027001 -0.187200 0.127800
v -0.037801 -0.187200 0.127800
v -0.027001 -0.187200 0.001800
v -0.037801 -0.187200 0.001800
v -0.027001 -0.133200 0.001800
v -0.037801 -0.133200 0.001800
v -0.027001 -0.151200 0.163800
v -0.037801 -0.151200 0.163800
v -0.088200 0.133201 0.163800
v -0.099000 0.133201 0.163800
v -0.088200 0.187201 0.127800
v -0.099000 0.187201 0.127800
v -0.088200 0.187201 0.001800
v -0.099000 0.187201 0.001800
v -0.088200 0.133201 0.001800
v -0.099000 0.133201 0.001800
v -0.088200 0.151201 0.163800
v -0.099000 0.151201 0.163800
v -0.027001 0.133201 0.163800
v -0.037801 0.133201 0.163800
v -0.027001 0.187201 0.127800
v -0.037801 0.187201 0.127800
v -0.027001 0.187201 0.001800
v -0.037801 0.187201 0.001800
v -0.027001 0.133201 0.001800
v -0.037801 0.133201 0.001800
v -0.027001 0.151201 0.163800
v -0.037801 0.151201 0.163800
v 0.188997 -0.081000 0.099000
v 0.188997 -0.063000 0.099000
v 0.188997 -0.081000 0.079200
v 0.188997 -0.063000 0.079200
v 0.206997 -0.081000 0.099000
v 0.206997 -0.063000 0.099000
v 0.206997 -0.081000 0.079200
v 0.206997 -0.063000 0.079200
v 0.226089 -0.081000 0.091092
v 0.226089 -0.063000 0.091092
v 0.213361 -0.081000 0.076564
v 0.213361 -0.063000 0.076564
v 0.233997 -0.081000 0.070199
v 0.233997 -0.063000 0.070199
v 0.215997 -0.081000 0.070199
v 0.215997 -0.063000 0.070199
v 0.188997 0.063000 0.099000
v 0.188997 0.081000 0.099000
v 0.188997 0.063000 0.079200
v 0.188997 0.081000 0.079200
v 0.206997 0.063000 0.099000
v 0.206997 0.081000 0.099000
v 0.206997 0.063000 0.079200
v 0.206997 0.081000 0.079200
v 0.226089 0.063000 0.091092
v 0.226089 0.081000 0.091092
v 0.213361 0.063000 0.076564
v 0.213361 0.081000 0.076564
v 0.233997 0.063000 0.070199
v 0.233997 0.081000 0.070199
v 0.215997 0.063000 0.070199
v 0.215997 0.081000 0.070199
v 0.188997 0.099000 0.099000
v 0.188997 0.117000 0.099000
v 0.188997 0.099000 0.079200
v 0.188997 0.117000 0.079200
v 0.206997 0.099000 0.099000
v 0.206997 0.117000 0.099000
v 0.206997 0.099000 0.079200
v 0.206997 0.117000 0.079200
v 0.226089 0.099000 0.091092
v 0.226089 0.117000 0.091092
v 0.213361 0.099000 0.076564
v 0.213361 0.117000 0.076564
v 0.233997 0.099000 0.070199
v 0.233997 0.117000 0.070199
v 0.215997 0.099000 0.070199
v 0.215997 0.117000 0.070199
v 0.188997 -0.117000 0.099000
v 0.188997 -0.099000 0.099000
v 0.188997 -0.117000 0.079200
v 0.188997 -0.099000 0.079200
v 0.206997 -0.117000 0.099000
v 0.206997 -0.099000 0.099000
v 0.206997 -0.117000 0.079200
v 0.206997 -0.099000 0.079200
v 0.226089 -0.117000 0.091092
v 0.226089 -0.099000 0.091092
v 0.213361 -0.117000 0.076564
v 0.213361 -0.099000 0.076564
v 0.233997 -0.117000 0.070199
v 0.233997 -0.099000 0.070199
v 0.215997 -0.117000 0.070199
v 0.215997 -0.099000 0.070199
v 0.233997 -0.081000 -0.000001
v 0.233997 -0.063000 -0.000001
v 0.215997 -0.081000 -0.000001
v 0.215997 -0.063000 -0.000001
v 0.233997 0.063000 -0.000001
v 0.233997 0.081000 -0.000001
v 0.215997 0.063000 -0.000001
v 0.215997 0.081000 -0.000001
v 0.233997 0.099000 -0.000001
v 0.233997 0.117000 -0.000001
v 0.215997 0.099000 -0.000001
v 0.215997 0.117000 -0.000001
v 0.233997 -0.117000 -0.000001
v 0.233997 -0.099000 -0.000001
v 0.215997 -0.117000 -0.000001
v 0.215997 -0.099000 -0.000001
v -0.188997 -0.081000 0.099000
v -0.188997 -0.063000 0.099000
v -0.188997 -0.081000 0.079200
v -0.188997 -0.063000 0.079200
v -0.206997 -0.081000 0.099000
v -0.206997 -0.063000 0.099000
v -0.206997 -0.081000 0.079200
v -0.206997 -0.063000 0.079200
v -0.226089 -0.081000 0.091092
v -0.226089 -0.063000 0.091092
v -0.213361 -0.081000 0.076564
v -0.213361 -0.063000 0.076564
v -0.233997 -0.081000 0.070199
v -0.233997 -0.063000 0.070199
v -0.215996 -0.081000 0.070199
v -0.215996 -0.063000 0.070199
v -0.188997 0.063000 0.099000
v -0.188997 0.081000 0.099000
v -0.188997 0.063000 0.079200
v -0.188997 0.081000 0.079200
v -0.206997 0.063000 0.099000
v -0.206997 0.081000 0.099000
v -0.206997 0.063000 0.079200
v -0.206997 0.081000 0.079200
v -0.226089 0.063000 0.091092
v -0.226089 0.081000 0.091092
v -0.213361 0.063000 0.076564
v -0.213361 0.081000 0.076564
v -0.233997 0.063000 0.070199
v -0.233997 0.081000 0.070199
v -0.215996 0.063000 0.070199
v -0.215996 0.081000 0.070199
v -0.188997 0.099000 0.099000
v -0.188997 0.117000 0.099000
v -0.188997 0.099000 0.079200
v -0.188997 0.117000 0.079200
v -0.206997 0.099000 0.099000
v -0.206997 0.117000 0.099000
v -0.206997 0.099000 0.079200
v -0.206997 0.117000 0.079200
v -0.226089 0.099000 0.091092
v -0.226089 0.117000 0.091092
v -0.213361 0.099000 0.076564
v -0.213361 0.117000 0.076564
v -0.233997 0.099000 0.070199
v -0.233997 0.117000 0.070199
v -0.215996 0.099000 0.070199
v -0.215996 0.117000 0.070199
v -0.188997 -0.117000 0.099000
v -0.188997 -0.099000 0.099000
v -0.188997 -0.117000 0.079200
v -0.188997 -0.099000 0.079200
v -0.206997 -0.117000 0.099000
v -0.206997 -0.099000 0.099000
v -0.206997 -0.117000 0.079200
v -0.206997 -0.099000 0.079200
v -0.226089 -0.117000 0.091092
v -0.226089 -0.099000 0.091092
v -0.213361 -0.117000 0.076564
v -0.213361 -0.099000 0.076564
v -0.233997 -0.117000 0.070199
v -0.233997 -0.099000 0.070199
v -0.215996 -0.117000 0.070199
v -0.215996 -0.099000 0.070199
v -0.233997 -0.063000 -0.000001
v -0.233997 0.063000 -0.000001
v -0.215996 0.063000 -0.000001
v -0.233997 0.099000 -0.000001
v -0.233997 0.117000 -0.000001
v -0.215996 0.099000 -0.000001
v -0.233997 -0.117000 -0.000001
v -0.233997 -0.099000 -0.000001
v -0.215996 -0.117000 -0.000001
v -0.215996 -0.099000 -0.000001
v -0.233997 -0.081000 0.000001
v -0.215997 -0.081000 0.000001
v -0.215997 -0.063000 0.000001
v -0.233997 0.081000 0.000001
v -0.215997 0.081000 0.000001
v -0.215997 0.117000 0.000001
v 0.164127 -0.126326 0.151416
v 0.161280 -0.133199 0.151416
v 0.171000 -0.123479 0.151416
v 0.164127 -0.140072 0.151416
v 0.171000 -0.142919 0.151416
v 0.177873 -0.140072 0.151416
v 0.177873 -0.126326 0.151416
v 0.180720 -0.133199 0.151416
v 0.164127 -0.126326 0.147528
v 0.161280 -0.133199 0.147528
v 0.171000 -0.123479 0.147528
v 0.164127 -0.140072 0.147528
v 0.171000 -0.142919 0.147528
v 0.177873 -0.126326 0.147528
v 0.177873 -0.140072 0.147528
v 0.180720 -0.133199 0.147528
v 0.164127 0.140074 0.151416
v 0.161280 0.133201 0.151416
v 0.171000 0.142921 0.151416
v 0.164127 0.126328 0.151416
v 0.171000 0.123481 0.151416
v 0.177873 0.126328 0.151416
v 0.177873 0.140074 0.151416
v 0.180720 0.133201 0.151416
v 0.164127 0.140074 0.147528
v 0.161280 0.133201 0.147528
v 0.171000 0.142921 0.147528
v 0.164127 0.126328 0.147528
v 0.171000 0.123481 0.147528
v 0.177873 0.140074 0.147528
v 0.177873 0.126328 0.147528
v 0.180720 0.133201 0.147528
v -0.177873 -0.126326 0.151416
v -0.180720 -0.133199 0.151416
v -0.171000 -0.123479 0.151416
v -0.177873 -0.140072 0.151416
v -0.171000 -0.142919 0.151416
v -0.164127 -0.140072 0.151416
v -0.164127 -0.126326 0.151416
v -0.161280 -0.133199 0.151416
v -0.177873 -0.126326 0.147528
v -0.180720 -0.133199 0.147528
v -0.171000 -0.123479 0.147528
v -0.177873 -0.140072 0.147528
v -0.171000 -0.142919 0.147528
v -0.164127 -0.126326 0.147528
v -0.164127 -0.140072 0.147528
v -0.161280 -0.133199 0.147528
v -0.177873 0.140074 0.151416
v -0.180720 0.133201 0.151416
v -0.171000 0.142921 0.151416
v -0.177873 0.126328 0.151416
v -0.171000 0.123481 0.151416
v -0.164127 0.126328 0.151416
v -0.164127 0.140074 0.151416
v -0.161280 0.133201 0.151416
v -0.177873 0.140074 0.147528
v -0.180720 0.133201 0.147528
v -0.171000 0.142921 0.147528
v -0.177873 0.126328 0.147528
v -0.171000 0.123481 0.147528
v -0.164127 0.140074 0.147528
v -0.164127 0.126328 0.147528
v -0.161280 0.133201 0.147528
vn 1.0000 -0.0000 -0.0000
vn -0.0000 -1.0000 -0.0000
vn -1.0000 -0.0000 -0.0000
vn -0.0000 1.0000 -0.0000
vn -0.0000 -0.7433 0.6690
vn -0.0000 -0.0000 1.0000
vn -0.7433 -0.0000 0.6690
vn -0.0000 0.7433 0.6690
vn 0.7433 -0.0000 0.6690
vn -0.0000 -0.7071 0.7071
vn -0.0000 0.7071 0.7071
vn -0.0000 -0.0000 -1.0000
vn 0.9352 -0.0000 0.3540
vn -0.3827 -0.0000 -0.9239
vn 0.3827 -0.0000 0.9239
vn -0.9239 -0.0000 -0.3826
vn -0.9352 -0.0000 0.3540
vn 0.3827 -0.0000 -0.9239
vn -0.3827 -0.0000 0.9239
vn 0.9239 -0.0000 -0.3826
vn 0.5490 0.5490 0.6303
vn -0.0000 0.7764 0.6303
vn -0.5490 0.5490 0.6303
vn -0.7764 -0.0000 0.6303
vn -0.5490 -0.5490 0.6303
vn -0.0000 -0.7764 0.6303
vn 0.5490 -0.5490 0.6303
vn 0.7764 -0.0000 0.6303
vn 0.7071 0.7071 -0.0000
vn 0.7071 -0.7071 -0.0000
vn -0.7071 0.7071 -0.0000
vn -0.7071 -0.7071 -0.0000
vt 0.333984 0.258996
vt 0.240234 0.287031
vt 0.333984 0.287031
vt 0.216797 0.258996
vt 0.240234 0.241004
vt 0.216797 0.258996
vt 0.333984 0.241004
vt 0.333984 0.258996
vt 0.333984 0.287109
vt 0.333984 0.212891
vt 0.333984 0.240926
vt 0.216797 0.212891
vt 0.212891 0.212891
vt 0.333984 0.212891
vt 0.240234 0.240926
vt 0.212891 0.113281
vt 0.224609 0.125000
vt 0.228437 0.200107
vt 0.321729 0.196467
vt 0.228437 0.200107
vt 0.224609 0.201172
vt 0.321729 0.128702
vt 0.322266 0.125000
vt 0.321729 0.196497
vt 0.318438 0.200107
vt 0.318438 0.200107
vt 0.322266 0.201172
vt 0.321729 0.128733
vt 0.240234 0.287109
vt 0.216797 0.212891
vt 0.333984 0.113281
vt 0.232422 0.132812
vt 0.233202 0.194813
vt 0.316435 0.191702
vt 0.233202 0.194813
vt 0.232422 0.193359
vt 0.316435 0.133467
vt 0.313673 0.194813
vt 0.314453 0.193359
vt 0.316435 0.133497
vt 0.314453 0.132812
vt 0.316435 0.191733
vt 0.313673 0.194813
vt 0.857422 0.967773
vt 0.857422 0.938476
vt 0.857422 0.971679
vt 0.857422 0.938476
vt 0.857422 0.967773
vt 0.878906 0.952148
vt 0.878906 0.967773
vt 0.857422 0.971679
vt 0.878906 0.952148
vt 0.878906 0.971679
vt 0.905274 0.967773
vt 0.878263 1.000000
vt 0.905274 0.971680
vt 0.878263 1.000000
vt 0.918945 0.967773
vt 0.856923 1.000000
vt 0.857422 1.000000
vt 0.918945 0.971680
vt 0.857422 1.000000
vt 0.856923 1.000000
vt 0.865234 0.938476
vt 0.865234 0.967773
vt 0.865234 0.938476
vt 0.865234 0.971679
vt 0.857422 0.967773
vt 0.857422 0.938476
vt 0.857422 0.971679
vt 0.857422 0.938476
vt 0.857422 0.967773
vt 0.878906 0.952148
vt 0.878906 0.967773
vt 0.857422 0.971679
vt 0.878906 0.952148
vt 0.878906 0.971679
vt 0.905274 0.967773
vt 0.878263 1.000000
vt 0.905274 0.971680
vt 0.878263 1.000000
vt 0.918945 0.967773
vt 0.856923 1.000000
vt 0.857422 1.000000
vt 0.918945 0.971680
vt 0.857422 1.000000
vt 0.856923 1.000000
vt 0.865234 0.938476
vt 0.865234 0.967773
vt 0.865234 0.938476
vt 0.865234 0.971679
vt 0.857422 0.967773
vt 0.857422 0.938476
vt 0.857422 0.971679
vt 0.857422 0.938476
vt 0.857422 0.967773
vt 0.878906 0.952148
vt 0.878906 0.967773
vt 0.857422 0.971679
vt 0.878906 0.952148
vt 0.878906 0.971679
vt 0.905274 0.967773
vt 0.878263 1.000000
vt 0.905274 0.971679
vt 0.878263 1.000000
vt 0.918945 0.967773
vt 0.856923 1.000000
vt 0.857422 1.000000
vt 0.918945 0.971679
vt 0.857422 1.000000
vt 0.856923 1.000000
vt 0.865234 0.938476
vt 0.865234 0.967773
vt 0.865234 0.938476
vt 0.865234 0.971679
vt 0.857422 0.967773
vt 0.857422 0.938476
vt 0.857422 0.971679
vt 0.857422 0.938476
vt 0.857422 0.967773
vt 0.878906 0.952148
vt 0.878906 0.967773
vt 0.857422 0.971679
vt 0.878906 0.952148
vt 0.878906 0.971679
vt 0.905274 0.967773
vt 0.878263 1.000000
vt 0.905274 0.971679
vt 0.878263 1.000000
vt 0.918945 0.967773
vt 0.856923 1.000000
vt 0.857422 1.000000
vt 0.918945 0.971680
vt 0.857422 1.000000
vt 0.856923 1.000000
vt 0.865234 0.938476
vt 0.865234 0.967773
vt 0.865234 0.938476
vt 0.865234 0.971679
vt 0.857422 0.967773
vt 0.857422 0.938476
vt 0.857422 0.971679
vt 0.857422 0.938476
vt 0.857422 0.967773
vt 0.878906 0.952148
vt 0.878906 0.967773
vt 0.857422 0.971679
vt 0.878906 0.952148
vt 0.878906 0.971679
vt 0.905274 0.967773
vt 0.878263 1.000000
vt 0.905274 0.971680
vt 0.878263 1.000000
vt 0.918945 0.967773
vt 0.856923 1.000000
vt 0.857422 1.000000
vt 0.918945 0.971680
vt 0.857422 1.000000
vt 0.856923 1.000000
vt 0.865234 0.938476
vt 0.865234 0.967773
vt 0.865234 0.938476
vt 0.865234 0.971679
vt 0.857422 0.967773
vt 0.857422 0.938476
vt 0.857422 0.971679
vt 0.857422 0.938476
vt 0.857422 0.967773
vt 0.878906 0.952148
vt 0.878906 0.967773
vt 0.857422 0.971679
vt 0.878906 0.952148
vt 0.878906 0.971679
vt 0.905274 0.967773
vt 0.878263 1.000000
vt 0.905274 0.971680
vt 0.878263 1.000000
vt 0.918945 0.967773
vt 0.856923 1.000000
vt 0.857422 1.000000
vt 0.918945 0.971680
vt 0.857422 1.000000
vt 0.856923 1.000000
vt 0.865234 0.938476
vt 0.865234 0.967773
vt 0.865234 0.938476
vt 0.865234 0.971679
vt 0.857422 0.967773
vt 0.857422 0.938476
vt 0.857422 0.971679
vt 0.857422 0.938476
vt 0.857422 0.967773
vt 0.878906 0.952148
vt 0.878906 0.967773
vt 0.857422 0.971679
vt 0.878906 0.952148
vt 0.878906 0.971679
vt 0.905274 0.967773
vt 0.878263 1.000000
vt 0.905274 0.971679
vt 0.878263 1.000000
vt 0.918945 0.967773
vt 0.856923 1.000000
vt 0.857422 1.000000
vt 0.918945 0.971679
vt 0.857422 1.000000
vt 0.856923 1.000000
vt 0.865234 0.938476
vt 0.865234 0.967773
vt 0.865234 0.938476
vt 0.865234 0.971679
vt 0.857422 0.967773
vt 0.857422 0.938476
vt 0.857422 0.971679
vt 0.857422 0.938476
vt 0.857422 0.967773
vt 0.878906 0.952148
vt 0.878906 0.967773
vt 0.857422 0.971679
vt 0.878906 0.952148
vt 0.878906 0.971679
vt 0.905274 0.967773
vt 0.878263 1.000000
vt 0.905274 0.971679
vt 0.878263 1.000000
vt 0.918945 0.967773
vt 0.856923 1.000000
vt 0.857422 1.000000
vt 0.918945 0.971680
vt 0.857422 1.000000
vt 0.856923 1.000000
vt 0.865234 0.938476
vt 0.865234 0.967773
vt 0.865234 0.938476
vt 0.865234 0.971679
vt 0.914974 0.990994
vt 0.860807 0.971554
vt 0.914974 0.984514
vt 0.860807 0.971554
vt 0.914974 0.990994
vt 0.869141 0.971554
vt 0.914974 0.984514
vt 0.869141 0.971554
vt 0.906641 0.990994
vt 0.860807 0.980194
vt 0.860807 0.980194
vt 0.906641 0.984514
vt 0.906641 0.990994
vt 0.869141 0.980194
vt 0.869141 0.980194
vt 0.906641 0.984514
vt 0.892057 0.984514
vt 0.898307 0.990994
vt 0.864974 0.988834
vt 0.892057 0.990994
vt 0.898307 0.984514
vt 0.864974 0.988834
vt 0.904557 0.990994
vt 0.871224 0.982354
vt 0.898307 0.984514
vt 0.904557 0.984514
vt 0.871224 0.982354
vt 0.898307 0.990994
vt 0.886849 0.984514
vt 0.873307 0.990994
vt 0.949219 1.000000
vt 0.949219 0.994141
vt 0.886849 0.990994
vt 0.873307 0.990994
vt 0.949219 1.000000
vt 0.873307 0.984514
vt 0.886849 0.984514
vt 0.949219 0.994141
vt 0.873307 0.984514
vt 0.886849 0.990994
vt 0.949219 1.000000
vt 0.949219 0.994141
vt 0.914974 0.990994
vt 0.860807 0.971554
vt 0.914974 0.984514
vt 0.860807 0.971554
vt 0.914974 0.990994
vt 0.869141 0.971554
vt 0.914974 0.984514
vt 0.869141 0.971554
vt 0.906641 0.990994
vt 0.860807 0.980194
vt 0.860807 0.980194
vt 0.906641 0.984514
vt 0.906641 0.990994
vt 0.869141 0.980194
vt 0.869141 0.980194
vt 0.906641 0.984514
vt 0.892057 0.984514
vt 0.898307 0.990994
vt 0.864974 0.988834
vt 0.892057 0.990994
vt 0.898307 0.984514
vt 0.864974 0.988834
vt 0.904557 0.990994
vt 0.871224 0.982354
vt 0.898307 0.984514
vt 0.904557 0.984514
vt 0.871224 0.982354
vt 0.898307 0.990994
vt 0.886849 0.984514
vt 0.873307 0.990994
vt 0.949219 1.000000
vt 0.949219 0.994141
vt 0.886849 0.990994
vt 0.873307 0.990994
vt 0.949219 1.000000
vt 0.873307 0.984514
vt 0.886849 0.984514
vt 0.949219 0.994141
vt 0.873307 0.984514
vt 0.886849 0.990994
vt 0.949219 1.000000
vt 0.949219 0.994141
vt 0.914974 0.990994
vt 0.860807 0.971554
vt 0.914974 0.984514
vt 0.860807 0.971554
vt 0.914974 0.990994
vt 0.869141 0.971554
vt 0.914974 0.984514
vt 0.869141 0.971554
vt 0.906641 0.990994
vt 0.860807 0.980194
vt 0.860807 0.980194
vt 0.906641 0.984514
vt 0.906641 0.990994
vt 0.869141 0.980194
vt 0.869141 0.980194
vt 0.906641 0.984514
vt 0.892057 0.984514
vt 0.898307 0.990994
vt 0.864974 0.988834
vt 0.892057 0.990994
vt 0.898307 0.984514
vt 0.864974 0.988834
vt 0.904557 0.990994
vt 0.871224 0.982354
vt 0.898307 0.984514
vt 0.904557 0.984514
vt 0.871224 0.982354
vt 0.898307 0.990994
vt 0.886849 0.984514
vt 0.873307 0.990994
vt 0.949219 1.000000
vt 0.949219 0.994141
vt 0.886849 0.990994
vt 0.873307 0.990994
vt 0.949219 1.000000
vt 0.873307 0.984514
vt 0.886849 0.984514
vt 0.949219 0.994141
vt 0.873307 0.984514
vt 0.886849 0.990994
vt 0.949219 1.000000
vt 0.949219 0.994141
vt 0.914974 0.990994
vt 0.860807 0.971554
vt 0.914974 0.984514
vt 0.860807 0.971554
vt 0.914974 0.990994
vt 0.869141 0.971554
vt 0.914974 0.984514
vt 0.869141 0.971554
vt 0.906641 0.990994
vt 0.860807 0.980194
vt 0.860807 0.980194
vt 0.906641 0.984514
vt 0.906641 0.990994
vt 0.869141 0.980194
vt 0.869141 0.980194
vt 0.906641 0.984514
vt 0.892057 0.984514
vt 0.898307 0.990994
vt 0.864974 0.988834
vt 0.892057 0.990994
vt 0.898307 0.984514
vt 0.864974 0.988834
vt 0.904557 0.990994
vt 0.871224 0.982354
vt 0.898307 0.984514
vt 0.904557 0.984514
vt 0.871224 0.982354
vt 0.898307 0.990994
vt 0.886849 0.984514
vt 0.873307 0.990994
vt 0.949219 1.000000
vt 0.949219 0.994141
vt 0.886849 0.990994
vt 0.873307 0.990994
vt 0.949219 1.000000
vt 0.873307 0.984514
vt 0.886849 0.984514
vt 0.949219 0.994141
vt 0.873307 0.984514
vt 0.886849 0.990994
vt 0.949219 1.000000
vt 0.949219 0.994141
vt 0.974609 1.000000
vt 0.974609 0.994141
vt 0.974609 1.000000
vt 0.974609 0.994141
vt 0.974609 1.000000
vt 0.974609 0.994141
vt 0.974609 1.000000
vt 0.974609 0.994141
vt 0.974609 1.000000
vt 0.974609 0.994141
vt 0.974609 1.000000
vt 0.974609 0.994141
vt 0.974609 1.000000
vt 0.974609 0.994141
vt 0.974609 1.000000
vt 0.974609 0.994141
vt 0.974609 1.000000
vt 0.974609 0.994141
vt 0.974609 1.000000
vt 0.974609 0.994141
vt 0.974609 1.000000
vt 0.974609 0.994141
vt 0.974609 1.000000
vt 0.974609 0.994141
vt 0.914974 0.990994
vt 0.860807 0.971554
vt 0.914974 0.984514
vt 0.860807 0.971554
vt 0.914974 0.990994
vt 0.869141 0.971554
vt 0.914974 0.984514
vt 0.869141 0.971554
vt 0.906641 0.990994
vt 0.860807 0.980194
vt 0.860807 0.980194
vt 0.906641 0.984514
vt 0.906641 0.990994
vt 0.869141 0.980194
vt 0.869141 0.980194
vt 0.906641 0.984514
vt 0.892057 0.984514
vt 0.898307 0.990994
vt 0.864974 0.988834
vt 0.892057 0.990994
vt 0.898307 0.984514
vt 0.864974 0.988834
vt 0.904557 0.990994
vt 0.871224 0.982354
vt 0.898307 0.984514
vt 0.904557 0.984514
vt 0.871224 0.982354
vt 0.898307 0.990994
vt 0.886849 0.984514
vt 0.873307 0.990994
vt 0.949219 1.000000
vt 0.949219 0.994141
vt 0.886849 0.990994
vt 0.873307 0.990994
vt 0.949219 1.000000
vt 0.873307 0.984514
vt 0.886849 0.984514
vt 0.949219 0.994141
vt 0.873307 0.984514
vt 0.886849 0.990994
vt 0.949219 1.000000
vt 0.949219 0.994141
vt 0.914974 0.990994
vt 0.860807 0.971554
vt 0.914974 0.984514
vt 0.860807 0.971554
vt 0.914974 0.990994
vt 0.869141 0.971554
vt 0.914974 0.984514
vt 0.869141 0.971554
vt 0.906641 0.990994
vt 0.860807 0.980194
vt 0.860807 0.980194
vt 0.906641 0.984514
vt 0.906641 0.990994
vt 0.869141 0.980194
vt 0.869141 0.980194
vt 0.906641 0.984514
vt 0.892057 0.984514
vt 0.898307 0.990994
vt 0.864974 0.988834
vt 0.892057 0.990994
vt 0.898307 0.984514
vt 0.864974 0.988834
vt 0.904557 0.990994
vt 0.871224 0.982354
vt 0.898307 0.984514
vt 0.904557 0.984514
vt 0.871224 0.982354
vt 0.898307 0.990994
vt 0.886849 0.984514
vt 0.873307 0.990994
vt 0.949219 1.000000
vt 0.949219 0.994141
vt 0.886849 0.990994
vt 0.873307 0.990994
vt 0.949219 1.000000
vt 0.873307 0.984514
vt 0.886849 0.984514
vt 0.949219 0.994141
vt 0.873307 0.984514
vt 0.886849 0.990994
vt 0.949219 1.000000
vt 0.949219 0.994141
vt 0.914974 0.990994
vt 0.860807 0.971554
vt 0.914974 0.984514
vt 0.860807 0.971554
vt 0.914974 0.990994
vt 0.869141 0.971554
vt 0.914974 0.984514
vt 0.869141 0.971554
vt 0.906641 0.990994
vt 0.860807 0.980194
vt 0.860807 0.980194
vt 0.906641 0.984514
vt 0.906641 0.990994
vt 0.869141 0.980194
vt 0.869141 0.980194
vt 0.906641 0.984514
vt 0.892057 0.984514
vt 0.898307 0.990994
vt 0.864974 0.988834
vt 0.892057 0.990994
vt 0.898307 0.984514
vt 0.864974 0.988834
vt 0.904557 0.990994
vt 0.871224 0.982354
vt 0.898307 0.984514
vt 0.904557 0.984514
vt 0.871224 0.982354
vt 0.898307 0.990994
vt 0.886849 0.984514
vt 0.873307 0.990994
vt 0.949219 1.000000
vt 0.949219 0.994141
vt 0.886849 0.990994
vt 0.873307 0.990994
vt 0.949219 1.000000
vt 0.873307 0.984514
vt 0.886849 0.984514
vt 0.949219 0.994141
vt 0.873307 0.984514
vt 0.886849 0.990994
vt 0.949219 1.000000
vt 0.949219 0.994141
vt 0.914974 0.990994
vt 0.860807 0.971554
vt 0.914974 0.984514
vt 0.860807 0.971554
vt 0.914974 0.990994
vt 0.869141 0.971554
vt 0.914974 0.984514
vt 0.869141 0.971554
vt 0.906641 0.990994
vt 0.860807 0.980194
vt 0.860807 0.980194
vt 0.906641 0.984514
vt 0.906641 0.990994
vt 0.869141 0.980194
vt 0.869141 0.980194
vt 0.906641 0.984514
vt 0.892057 0.984514
vt 0.898307 0.990994
vt 0.864974 0.988834
vt 0.892057 0.990994
vt 0.898307 0.984514
vt 0.864974 0.988834
vt 0.904557 0.990994
vt 0.871224 0.982354
vt 0.898307 0.984514
vt 0.904557 0.984514
vt 0.871224 0.982354
vt 0.898307 0.990994
vt 0.886849 0.984514
vt 0.873307 0.990994
vt 0.949219 1.000000
vt 0.949219 0.994141
vt 0.886849 0.990994
vt 0.873307 0.990994
vt 0.949219 1.000000
vt 0.873307 0.984514
vt 0.886849 0.984514
vt 0.949219 0.994141
vt 0.873307 0.984514
vt 0.886849 0.990994
vt 0.949219 1.000000
vt 0.949219 0.994141
vt 0.974609 1.000000
vt 0.974609 1.000000
vt 0.974609 0.994141
vt 0.974609 0.994141
vt 0.974609 1.000000
vt 0.974609 0.994141
vt 0.974609 1.000000
vt 0.974609 0.994141
vt 0.974609 1.000000
vt 0.974609 0.994141
vt 0.974609 1.000000
vt 0.974609 0.994141
vt 0.974609 1.000000
vt 0.974609 0.994141
vt 0.974609 1.000000
vt 0.974609 0.994141
vt 0.974609 0.994141
vt 0.974609 1.000000
vt 0.974609 0.994141
vt 0.974609 1.000000
vt 0.974609 1.000000
vt 0.974609 0.994141
vt 0.974609 1.000000
vt 0.974609 0.994141
vt 0.450919 0.220703
vt 0.453549 0.220703
vt 0.448705 0.215357
vt 0.453549 0.215357
vt 0.453549 0.226049
vt 0.448705 0.226049
vt 0.453549 0.226049
vt 0.443359 0.213143
vt 0.453549 0.220703
vt 0.438014 0.215357
vt 0.453549 0.215357
vt 0.435799 0.220703
vt 0.453549 0.220703
vt 0.443359 0.228263
vt 0.453549 0.220703
vt 0.438014 0.226049
vt 0.453549 0.215357
vt 0.453549 0.226049
vt 0.456573 0.220703
vt 0.456573 0.215357
vt 0.456573 0.226049
vt 0.456573 0.226049
vt 0.456573 0.220703
vt 0.456573 0.215357
vt 0.456573 0.220703
vt 0.456573 0.220703
vt 0.456573 0.215357
vt 0.456573 0.226049
vt 0.450919 0.220703
vt 0.453549 0.220703
vt 0.448705 0.215357
vt 0.453549 0.215357
vt 0.453549 0.226049
vt 0.448705 0.226049
vt 0.453549 0.226049
vt 0.443359 0.213143
vt 0.453549 0.220703
vt 0.438014 0.215357
vt 0.453549 0.215357
vt 0.435799 0.220703
vt 0.453549 0.220703
vt 0.443359 0.228263
vt 0.453549 0.220703
vt 0.438014 0.226049
vt 0.453549 0.215357
vt 0.453549 0.226049
vt 0.456573 0.220703
vt 0.456573 0.215357
vt 0.456573 0.226049
vt 0.456573 0.226049
vt 0.456573 0.220703
vt 0.456573 0.215357
vt 0.456573 0.220703
vt 0.456573 0.220703
vt 0.456573 0.215357
vt 0.456573 0.226049
vt 0.450919 0.220703
vt 0.453549 0.220703
vt 0.448705 0.215357
vt 0.453549 0.215357
vt 0.453549 0.226049
vt 0.448705 0.226049
vt 0.453549 0.226049
vt 0.443359 0.213143
vt 0.453549 0.220703
vt 0.438014 0.215357
vt 0.453549 0.215357
vt 0.435799 0.220703
vt 0.453549 0.220703
vt 0.443359 0.228263
vt 0.453549 0.220703
vt 0.438014 0.226049
vt 0.453549 0.215357
vt 0.453549 0.226049
vt 0.456573 0.220703
vt 0.456573 0.215357
vt 0.456573 0.226049
vt 0.456573 0.226049
vt 0.456573 0.220703
vt 0.456573 0.215357
vt 0.456573 0.220703
vt 0.456573 0.220703
vt 0.456573 0.215357
vt 0.456573 0.226049
vt 0.450919 0.220703
vt 0.453549 0.220703
vt 0.448705 0.215357
vt 0.453549 0.215357
vt 0.453549 0.226049
vt 0.448705 0.226049
vt 0.453549 0.226049
vt 0.443359 0.213143
vt 0.453549 0.220703
vt 0.438014 0.215357
vt 0.453549 0.215357
vt 0.435799 0.220703
vt 0.453549 0.220703
vt 0.443359 0.228263
vt 0.453549 0.220703
vt 0.438014 0.226049
vt 0.453549 0.215357
vt 0.453549 0.226049
vt 0.456573 0.220703
vt 0.456573 0.215357
vt 0.456573 0.226049
vt 0.456573 0.226049
vt 0.456573 0.220703
vt 0.456573 0.215357
vt 0.456573 0.220703
vt 0.456573 0.220703
vt 0.456573 0.215357
vt 0.456573 0.226049
s 0
usemtl electronics_etx_part_1
f 5/9/1 12/29/1 3/5/1 4/7/1
f 12/30/2 7/14/2 1/1/2 3/6/2
f 7/15/3 6/11/3 2/3/3 1/2/3
f 2/4/4 6/12/4 5/10/4 4/8/4
f 14/35/5 15/38/5 11/26/5 9/20/5
f 8/17/6 9/21/6 6/13/6 7/16/6
f 11/27/6 10/23/6 12/31/6 5/10/6
f 10/23/6 8/17/6 7/16/6 12/31/6
f 9/21/6 11/27/6 5/10/6 6/13/6
f 16/41/6 15/39/6 14/36/6 13/32/6
f 15/40/7 16/42/7 10/24/7 11/28/7
f 16/43/8 13/33/8 8/18/8 10/25/8
f 13/34/9 14/37/9 9/22/9 8/19/9
f 17/44/4 23/58/4 24/61/4 18/46/4
f 21/54/2 19/48/2 20/51/2 22/56/2
f 25/65/6 17/44/6 18/46/6 26/67/6
f 23/59/1 25/64/1 19/49/1 21/55/1
f 24/62/3 26/66/3 18/47/3
f 22/57/3 20/52/3 26/66/3 24/63/3
f 23/60/1 17/45/1 25/64/1
f 19/50/10 25/65/10 26/67/10 20/53/10
f 27/68/4 33/82/4 34/85/4 28/70/4
f 31/78/2 29/72/2 30/75/2 32/80/2
f 35/89/6 27/68/6 28/70/6 36/91/6
f 33/83/1 35/88/1 29/73/1 31/79/1
f 34/86/3 36/90/3 28/71/3
f 32/81/3 30/76/3 36/90/3 34/87/3
f 33/84/1 27/69/1 35/88/1
f 29/74/10 35/89/10 36/91/10 30/77/10
f 37/92/2 38/94/2 44/109/2 43/106/2
f 41/102/4 42/104/4 40/99/4 39/96/4
f 45/113/6 46/115/6 38/94/6 37/92/6
f 43/107/1 41/103/1 39/97/1 45/112/1
f 44/110/3 38/95/3 46/114/3
f 42/105/3 44/111/3 46/114/3 40/100/3
f 43/108/1 45/112/1 37/93/1
f 39/98/11 40/101/11 46/115/11 45/113/11
f 47/116/2 48/118/2 54/133/2 53/130/2
f 51/126/4 52/128/4 50/123/4 49/120/4
f 55/137/6 56/139/6 48/118/6 47/116/6
f 53/131/1 51/127/1 49/121/1 55/136/1
f 54/134/3 48/119/3 56/138/3
f 52/129/3 54/135/3 56/138/3 50/124/3
f 53/132/1 55/136/1 47/117/1
f 49/122/11 50/125/11 56/139/11 55/137/11
f 57/140/4 63/154/4 64/157/4 58/142/4
f 61/150/2 59/144/2 60/147/2 62/152/2
f 65/161/6 57/140/6 58/142/6 66/163/6
f 63/155/1 65/160/1 59/145/1 61/151/1
f 64/158/3 66/162/3 58/143/3
f 62/153/3 60/148/3 66/162/3 64/159/3
f 63/156/1 57/141/1 65/160/1
f 59/146/10 65/161/10 66/163/10 60/149/10
f 67/164/4 73/178/4 74/181/4 68/166/4
f 71/174/2 69/168/2 70/171/2 72/176/2
f 75/185/6 67/164/6 68/166/6 76/187/6
f 73/179/1 75/184/1 69/169/1 71/175/1
f 74/182/3 76/186/3 68/167/3
f 72/177/3 70/172/3 76/186/3 74/183/3
f 73/180/1 67/165/1 75/184/1
f 69/170/10 75/185/10 76/187/10 70/173/10
f 77/188/2 78/190/2 84/205/2 83/202/2
f 81/198/4 82/200/4 80/195/4 79/192/4
f 85/209/6 86/211/6 78/190/6 77/188/6
f 83/203/1 81/199/1 79/193/1 85/208/1
f 84/206/3 78/191/3 86/210/3
f 82/201/3 84/207/3 86/210/3 80/196/3
f 83/204/1 85/208/1 77/189/1
f 79/194/11 80/197/11 86/211/11 85/209/11
f 87/212/2 88/214/2 94/229/2 93/226/2
f 91/222/4 92/224/4 90/219/4 89/216/4
f 95/233/6 96/235/6 88/214/6 87/212/6
f 93/227/1 91/223/1 89/217/1 95/232/1
f 94/230/3 88/215/3 96/234/3
f 92/225/3 94/231/3 96/234/3 90/220/3
f 93/228/1 95/232/1 87/213/1
f 89/218/11 90/221/11 96/235/11 95/233/11
f 99/240/12 100/242/12 104/251/12 103/248/12
f 104/250/4 102/246/4 106/257/4 108/262/4
f 101/244/6 102/247/6 98/238/6 97/236/6
f 99/241/2 103/249/2 101/245/2 97/237/2
f 104/250/4 100/243/4 98/239/4 102/246/4
f 106/255/13 105/252/13 109/264/13 110/268/13
f 103/248/14 104/251/14 108/261/14 107/258/14
f 102/247/15 101/244/15 105/253/15 106/256/15
f 101/245/2 103/249/2 107/259/2 105/254/2
f 105/254/2 107/259/2 111/271/2 109/265/2
f 108/262/4 106/257/4 110/269/4 112/274/4
f 107/260/16 108/263/16 112/275/16 111/272/16
f 115/282/12 116/284/12 120/293/12 119/290/12
f 120/292/4 118/288/4 122/299/4 124/304/4
f 117/286/6 118/289/6 114/280/6 113/278/6
f 115/283/2 119/291/2 117/287/2 113/279/2
f 120/292/4 116/285/4 114/281/4 118/288/4
f 122/297/13 121/294/13 125/306/13 126/310/13
f 119/290/14 120/293/14 124/303/14 123/300/14
f 118/289/15 117/286/15 121/295/15 122/298/15
f 117/287/2 119/291/2 123/301/2 121/296/2
f 121/296/2 123/301/2 127/313/2 125/307/2
f 124/304/4 122/299/4 126/311/4 128/316/4
f 123/302/16 124/305/16 128/317/16 127/314/16
f 131/324/12 132/326/12 136/335/12 135/332/12
f 136/334/4 134/330/4 138/341/4 140/346/4
f 133/328/6 134/331/6 130/322/6 129/320/6
f 131/325/2 135/333/2 133/329/2 129/321/2
f 136/334/4 132/327/4 130/323/4 134/330/4
f 138/339/13 137/336/13 141/348/13 142/352/13
f 135/332/14 136/335/14 140/345/14 139/342/14
f 134/331/15 133/328/15 137/337/15 138/340/15
f 133/329/2 135/333/2 139/343/2 137/338/2
f 137/338/2 139/343/2 143/355/2 141/349/2
f 140/346/4 138/341/4 142/353/4 144/358/4
f 139/344/16 140/347/16 144/359/16 143/356/16
f 147/366/12 148/368/12 152/377/12 151/374/12
f 152/376/4 150/372/4 154/383/4 156/388/4
f 149/370/6 150/373/6 146/364/6 145/362/6
f 147/367/2 151/375/2 149/371/2 145/363/2
f 152/376/4 148/369/4 146/365/4 150/372/4
f 154/381/13 153/378/13 157/390/13 158/394/13
f 151/374/14 152/377/14 156/387/14 155/384/14
f 150/373/15 149/370/15 153/379/15 154/382/15
f 149/371/2 151/375/2 155/385/2 153/380/2
f 153/380/2 155/385/2 159/397/2 157/391/2
f 156/388/4 154/383/4 158/395/4 160/400/4
f 155/386/16 156/389/16 160/401/16 159/398/16
f 159/399/3 160/402/3 176/426/3 175/425/3
f 127/315/3 128/318/3 168/414/3 167/413/3
f 157/392/2 159/399/2 175/425/2 173/422/2
f 125/308/2 127/315/2 167/413/2 165/410/2
f 160/403/4 158/396/4 174/424/4 176/427/4
f 111/273/3 112/276/3 164/408/3 163/407/3
f 128/319/4 126/312/4 166/412/4 168/415/4
f 158/396/1 157/393/1 173/423/1 174/424/1
f 143/357/3 144/360/3 172/420/3 171/419/3
f 109/266/2 111/273/2 163/407/2 161/404/2
f 126/312/1 125/309/1 165/411/1 166/412/1
f 141/350/2 143/357/2 171/419/2 169/416/2
f 112/277/4 110/270/4 162/406/4 164/409/4
f 110/270/1 109/267/1 161/405/1 162/406/1
f 144/361/4 142/354/4 170/418/4 172/421/4
f 142/354/1 141/351/1 169/417/1 170/418/1
f 179/432/12 183/440/12 184/443/12 180/434/12
f 184/442/4 188/454/4 186/449/4 182/438/4
f 181/436/6 177/428/6 178/430/6 182/439/6
f 179/433/2 177/429/2 181/437/2 183/441/2
f 184/442/4 182/438/4 178/431/4 180/435/4
f 186/447/17 190/460/17 189/456/17 185/444/17
f 183/440/18 187/450/18 188/453/18 184/443/18
f 182/439/19 186/448/19 185/445/19 181/436/19
f 181/437/2 185/446/2 187/451/2 183/441/2
f 185/446/2 189/457/2 191/463/2 187/451/2
f 188/454/4 192/466/4 190/461/4 186/449/4
f 187/452/20 191/464/20 192/467/20 188/455/20
f 195/474/12 199/482/12 200/485/12 196/476/12
f 200/484/4 204/496/4 202/491/4 198/480/4
f 197/478/6 193/470/6 194/472/6 198/481/6
f 195/475/2 193/471/2 197/479/2 199/483/2
f 200/484/4 198/480/4 194/473/4 196/477/4
f 202/489/17 206/502/17 205/498/17 201/486/17
f 199/482/18 203/492/18 204/495/18 200/485/18
f 198/481/19 202/490/19 201/487/19 197/478/19
f 197/479/2 201/488/2 203/493/2 199/483/2
f 201/488/2 205/499/2 207/505/2 203/493/2
f 204/496/4 208/508/4 206/503/4 202/491/4
f 203/494/20 207/506/20 208/509/20 204/497/20
f 211/516/12 215/524/12 216/527/12 212/518/12
f 216/526/4 220/538/4 218/533/4 214/522/4
f 213/520/6 209/512/6 210/514/6 214/523/6
f 211/517/2 209/513/2 213/521/2 215/525/2
f 216/526/4 214/522/4 210/515/4 212/519/4
f 218/531/17 222/544/17 221/540/17 217/528/17
f 215/524/18 219/534/18 220/537/18 216/527/18
f 214/523/19 218/532/19 217/529/19 213/520/19
f 213/521/2 217/530/2 219/535/2 215/525/2
f 217/530/2 221/541/2 223/547/2 219/535/2
f 220/538/4 224/550/4 222/545/4 218/533/4
f 219/536/20 223/548/20 224/551/20 220/539/20
f 227/558/12 231/566/12 232/569/12 228/560/12
f 232/568/4 236/580/4 234/575/4 230/564/4
f 229/562/6 225/554/6 226/556/6 230/565/6
f 227/559/2 225/555/2 229/563/2 231/567/2
f 232/568/4 230/564/4 226/557/4 228/561/4
f 234/573/17 238/586/17 237/582/17 233/570/17
f 231/566/18 235/576/18 236/579/18 232/569/18
f 230/565/19 234/574/19 233/571/19 229/562/19
f 229/563/2 233/572/2 235/577/2 231/567/2
f 233/572/2 237/583/2 239/589/2 235/577/2
f 236/580/4 240/592/4 238/587/4 234/575/4
f 235/578/20 239/590/20 240/593/20 236/581/20
f 239/591/1 249/607/1 250/608/1 240/594/1
f 207/507/1 243/599/1 255/616/1 208/510/1
f 237/584/2 247/604/2 249/607/2 239/591/2
f 205/500/2 242/597/2 243/599/2 207/507/2
f 240/595/4 250/609/4 248/606/4 238/588/4
f 191/465/1 252/612/1 253/613/1 192/468/1
f 208/511/4 255/617/4 254/615/4 206/504/4
f 238/588/3 248/606/3 247/605/3 237/585/3
f 223/549/1 246/603/1 256/618/1 224/552/1
f 189/458/2 251/610/2 252/612/2 191/465/2
f 206/504/3 254/615/3 242/598/3 205/501/3
f 221/542/2 244/600/2 246/603/2 223/549/2
f 192/469/4 253/614/4 241/596/4 190/462/4
f 190/462/3 241/596/3 251/611/3 189/459/3
f 224/553/4 256/619/4 245/602/4 222/546/4
f 222/546/3 245/602/3 244/601/3 221/543/3
s 1
f 263/633/21 259/625/22 257/620/23 258/622/24 260/627/25 261/629/26 262/631/27 264/635/28
f 270/644/29 263/634/21 264/636/28 272/646/1
f 272/647/1 264/637/28 262/632/27 271/645/30
f 263/634/21 270/644/29 267/641/4 259/626/22
f 259/626/22 267/641/4 265/638/31 257/621/23
f 271/645/30 262/632/27 261/630/26 269/643/2
f 269/643/2 261/630/26 260/628/25 268/642/32
f 257/621/23 265/638/31 266/639/3 258/623/24
f 258/624/24 266/640/3 268/642/32 260/628/25
f 279/661/21 275/653/22 273/648/23 274/650/24 276/655/25 277/657/26 278/659/27 280/663/28
f 286/672/29 279/662/21 280/664/28 288/674/1
f 288/675/1 280/665/28 278/660/27 287/673/30
f 279/662/21 286/672/29 283/669/4 275/654/22
f 275/654/22 283/669/4 281/666/31 273/649/23
f 287/673/30 278/660/27 277/658/26 285/671/2
f 285/671/2 277/658/26 276/656/25 284/670/32
f 273/649/23 281/666/31 282/667/3 274/651/24
f 274/652/24 282/668/3 284/670/32 276/656/25
f 295/689/21 291/681/22 289/676/23 290/678/24 292/683/25 293/685/26 294/687/27 296/691/28
f 302/700/29 295/690/21 296/692/28 304/702/1
f 304/703/1 296/693/28 294/688/27 303/701/30
f 295/690/21 302/700/29 299/697/4 291/682/22
f 291/682/22 299/697/4 297/694/31 289/677/23
f 303/701/30 294/688/27 293/686/26 301/699/2
f 301/699/2 293/686/26 292/684/25 300/698/32
f 289/677/23 297/694/31 298/695/3 290/679/24
f 290/680/24 298/696/3 300/698/32 292/684/25
f 311/717/21 307/709/22 305/704/23 306/706/24 308/711/25 309/713/26 310/715/27 312/719/28
f 318/728/29 311/718/21 312/720/28 320/730/1
f 320/731/1 312/721/28 310/716/27 319/729/30
f 311/718/21 318/728/29 315/725/4 307/710/22
f 307/710/22 315/725/4 313/722/31 305/705/23
f 319/729/30 310/716/27 309/714/26 317/727/2
f 317/727/2 309/714/26 308/712/25 316/726/32
f 305/705/23 313/722/31 314/723/3 306/707/24
f 306/708/24 314/724/3 316/726/32 308/712/25
o screen_etx_1_partial_round_screen
v -0.136800 -0.099000 0.129600
v -0.136800 0.099000 0.129600
v 0.136800 0.099000 0.129600
v 0.136800 -0.099000 0.129600
v -0.111683 -0.073883 0.145926
v -0.037800 0.000000 0.168600
v -0.075594 -0.037794 0.161959
v -0.111683 0.073883 0.145926
v -0.075594 0.037794 0.161959
v 0.111683 0.073883 0.145926
v 0.037800 0.000000 0.168600
v 0.075594 0.037794 0.161959
v 0.111683 -0.073883 0.145926
v 0.075594 -0.037794 0.161959
vn 0.2728 -0.2728 0.9226
vn -0.2728 -0.2728 0.9226
vn -0.2953 -0.2953 0.9086
vn 0.2953 -0.2953 0.9086
vn -0.2728 0.2728 0.9226
vn 0.2728 0.2728 0.9226
vn 0.2953 0.2953 0.9086
vn -0.2953 0.2953 0.9086
vn -0.0437 -0.0000 0.9990
vn -0.1798 0.1798 0.9671
vn -0.1798 -0.1798 0.9671
vn 0.0437 -0.0000 0.9990
vn 0.1798 -0.1798 0.9671
vn 0.1798 0.1798 0.9671
vt 0.232422 0.132812
vt 0.232422 0.193359
vt 0.314453 0.193359
vt 0.314453 0.132812
vt 0.239953 0.140493
vt 0.262104 0.163086
vt 0.250592 0.151344
vt 0.239953 0.185679
vt 0.250592 0.174827
vt 0.306922 0.185679
vt 0.284771 0.163086
vt 0.296283 0.174827
vt 0.306922 0.140493
vt 0.296283 0.151344
s 1
usemtl electronics_etx_part_1_screen
f 333/744/33 325/736/34 321/732/35 324/735/36
f 328/739/37 330/741/38 323/734/39 322/733/40
f 330/741/38 333/744/33 324/735/36 323/734/39
f 326/737/41 329/740/42 327/738/43
f 327/738/43 329/740/42 328/739/37 325/736/34
f 331/742/44 334/745/45 332/743/46
f 332/743/46 334/745/45 333/744/33 330/741/38
f 325/736/34 333/744/33 334/745/45 327/738/43
f 327/738/43 334/745/45 331/742/44 326/737/41
f 330/741/38 328/739/37 329/740/42 332/743/46
f 332/743/46 329/740/42 326/737/41 331/742/44
f 325/736/34 328/739/37 322/733/40 321/732/35
