#
# Date: 2026-07-10
# Source: https://www.controllerarts.com/
# Author: hello@controllerarts.com
# License: Proprietary License. No AI/ML training permitted. No redistribution.
#
mtllib SK_Great_White_Shark.mtl
o Torso
v -0.441535 0.255246 0.096277
v -0.600399 -0.346188 0.131777
v 0.000000 -0.625256 0.134557
v 0.000000 0.541721 0.129884
v 0.000000 0.517045 1.233690
v -0.513314 0.174124 1.335389
v -0.618740 -0.260216 1.308138
v 0.000001 -0.575354 1.457372
v 0.000001 -0.051336 1.393728
v 0.441535 0.255246 0.096277
v 0.600399 -0.346188 0.131777
v 0.513315 0.174124 1.335389
v 0.618742 -0.260216 1.308138
v -0.000000 -0.045381 -0.379265
vn -0.9708 0.2377 -0.0325
vn -0.5454 0.8379 0.0233
vn -0.4214 -0.9062 0.0342
vn -0.5528 0.8331 0.0186
vn -0.9667 0.2530 -0.0394
vn -0.4641 -0.8839 0.0574
vn -0.1753 0.1187 0.9773
vn -0.1265 -0.0315 0.9915
vn 0.9708 0.2377 -0.0325
vn 0.5454 0.8379 0.0233
vn 0.4214 -0.9062 0.0342
vn 0.5528 0.8331 0.0186
vn 0.9667 0.2530 -0.0394
vn 0.4641 -0.8839 0.0574
vn 0.1753 0.1187 0.9773
vn 0.1265 -0.0315 0.9915
vn 0.0096 0.2710 0.9625
vn -0.0096 0.2710 0.9625
vn 0.3450 0.6149 -0.7091
vn 0.6810 0.1374 -0.7192
vn 0.2915 -0.6344 -0.7159
vn -0.6810 0.1374 -0.7192
vn -0.3450 0.6149 -0.7091
vn -0.2915 -0.6344 -0.7159
vt 0.804688 0.804688
vt 1.000000 0.804688
vt 1.000000 0.906250
vt 0.804688 1.000000
vt 0.804688 0.906250
vt 0.804688 0.703125
vt 1.000000 0.703125
vt 1.000000 1.000000
vt 0.687500 0.531250
vt 0.593750 0.468750
vt 0.687500 0.468750
vt 0.593750 0.609375
vt 0.687500 0.609375
s 0
usemtl M_Great_White_Shark
f 2/1/1 7/2/1 6/3/1
f 4/4/2 1/5/2 6/3/2
f 2/1/3 3/6/3 8/7/3
f 5/8/4 4/4/4 6/3/4
f 1/5/5 2/1/5 6/3/5
f 7/2/6 2/1/6 8/7/6
f 9/9/7 7/10/7 8/11/7
f 9/9/8 6/12/8 7/10/8
f 11/1/9 12/3/9 13/2/9
f 4/4/10 12/3/10 10/5/10
f 11/1/11 8/7/11 3/6/11
f 5/8/12 12/3/12 4/4/12
f 10/5/13 12/3/13 11/1/13
f 13/2/14 8/7/14 11/1/14
f 9/9/15 8/11/15 13/10/15
f 12/12/16 9/9/16 13/10/16
f 9/9/17 5/13/17 6/12/17
f 12/12/18 5/13/18 9/9/18
f 4/13/19 10/12/19 14/9/19
f 14/9/20 10/12/20 11/10/20
f 14/9/21 11/10/21 3/11/21
f 2/10/22 1/12/22 14/9/22
f 1/12/23 4/13/23 14/9/23
f 2/10/24 14/9/24 3/11/24
o TeethTop
v 0.000001 -0.012769 2.559477
v 0.000001 -0.267160 2.411189
v -0.524318 -0.164703 1.530728
v -0.427581 -0.012768 2.280008
v -0.522814 -0.299862 1.506947
v -0.447521 -0.286827 2.123418
v 0.524319 -0.164703 1.530727
v 0.427583 -0.012769 2.237984
v 0.522815 -0.299863 1.506947
v 0.447522 -0.286827 2.123418
vn -0.9919 -0.0110 0.1263
vn -0.4862 -0.4229 0.7647
vn 0.9917 0.0012 0.1287
vn 0.5270 -0.3625 0.7687
vt 0.593750 0.468750
vt 0.593750 0.703125
vt 0.437500 0.703125
vt 0.437500 0.468750
s 0
usemtl M_Great_White_Shark
f 18/14/25 17/15/25 19/16/25 20/17/25
f 15/15/26 18/14/26 20/17/26 16/16/26
f 22/14/27 24/17/27 23/16/27 21/15/27
f 15/15/28 16/16/28 24/17/28 22/14/28
o TailStart
v -0.262908 0.203401 -0.755322
v -0.429467 -0.284391 -0.624539
v -0.000000 0.427731 -0.596455
v -0.000000 -0.527497 -0.626206
v -0.000001 -0.057791 -1.885265
v -0.194717 0.177952 -1.887222
v -0.000001 0.308540 -1.887814
v -0.000000 -0.049883 -0.045829
v 0.262907 0.203401 -0.755323
v 0.429467 -0.284391 -0.624539
v 0.194716 0.177952 -1.887222
v -0.176972 -0.178718 -1.246533
v -0.126963 -0.016020 -1.678528
v -0.228175 -0.264095 -1.483351
v -0.183632 -0.142791 -1.670671
v -0.237877 -0.254808 -1.741191
v 0.176971 -0.178718 -1.246534
v 0.126962 -0.016020 -1.678528
v 0.228173 -0.264095 -1.483351
v 0.183631 -0.142791 -1.670671
v 0.237875 -0.254808 -1.741191
v -0.000001 0.177864 -2.103024
vn -0.5555 0.8280 -0.0764
vn -0.4695 -0.8273 -0.3086
vn -0.9495 0.3070 -0.0641
vn -0.7200 -0.5976 -0.3527
vn -0.6285 0.7758 -0.0553
vn -0.7210 0.5234 0.4540
vn -0.8073 0.3936 0.4397
vn -0.3986 -0.7082 0.5828
vn -0.4984 0.7411 -0.4500
vn 0.5555 0.8280 -0.0764
vn 0.4695 -0.8273 -0.3086
vn 0.9495 0.3070 -0.0641
vn 0.7200 -0.5976 -0.3527
vn 0.6285 0.7758 -0.0553
vn 0.7210 0.5234 0.4540
vn 0.8073 0.3936 0.4397
vn 0.3986 -0.7082 0.5828
vn 0.6314 -0.5263 -0.5695
vn -0.9107 0.4101 0.0490
vn 0.9107 0.4101 0.0490
vn 0.4984 0.7411 -0.4500
vn -0.6314 -0.5263 -0.5695
vt 0.632812 1.000000
vt 0.335938 1.000000
vt 0.335938 0.906250
vt 0.632812 0.804688
vt 0.335938 0.703125
vt 0.632812 0.703125
vt 0.632812 0.906250
vt 0.687500 0.531250
vt 0.687500 0.609375
vt 0.593750 0.609375
vt 0.593750 0.468750
vt 0.687500 0.468750
vt 0.367188 0.226562
vt 0.367188 0.093750
vt 0.273438 -0.000000
vt 0.492188 0.226562
vt 0.273438 0.226562
s 0
usemtl M_Great_White_Shark
f 27/18/29 31/19/29 30/20/29
f 26/21/30 29/22/30 28/23/30
f 26/21/31 25/24/31 30/20/31
f 26/21/32 30/20/32 29/22/32
f 25/24/33 27/18/33 30/20/33
f 32/25/34 27/26/34 25/27/34
f 32/25/35 25/27/35 26/28/35
f 28/29/36 32/25/36 26/28/36
f 30/28/37 31/27/37 46/26/37
f 27/18/38 35/20/38 31/19/38
f 34/21/39 28/23/39 29/22/39
f 34/21/40 35/20/40 33/24/40
f 34/21/41 29/22/41 35/20/41
f 33/24/42 35/20/42 27/18/42
f 32/25/43 33/27/43 27/26/43
f 32/25/44 34/28/44 33/27/44
f 28/29/45 34/28/45 32/25/45
f 35/28/46 29/29/46 46/26/46
f 39/30/47 38/31/47 36/32/47
f 39/30/47 40/33/47 38/31/47
f 41/32/48 43/31/48 44/30/48
f 44/30/48 43/31/48 45/33/48
f 31/27/49 35/28/49 46/26/49
f 29/29/50 30/28/50 46/26/50
f 37/34/47 39/30/47 36/32/47
f 42/34/48 41/32/48 44/30/48
o TailEnd
v -0.194717 0.177952 -1.893454
v -0.000001 0.308540 -1.894046
v -0.056226 0.212603 -3.131184
v -0.000001 0.229135 -3.131687
v -0.000001 -0.057791 -1.891497
v -0.000001 0.204783 -3.270997
v -0.000001 0.157981 -3.129524
v 0.194716 0.177952 -1.893454
v 0.056224 0.212603 -3.131184
v -0.000001 0.174463 -2.708296
v -0.000001 0.167504 -3.310356
v -0.000001 0.631479 -3.043659
v -0.000001 -0.225967 -2.962276
v -0.000001 -0.505158 -3.624209
v -0.000002 0.994512 -3.862167
v -0.000001 0.309183 -1.727610
v -0.000001 0.293265 -2.076298
v -0.000001 0.377454 -1.798331
v -0.000001 0.344615 -1.990593
v -0.000001 0.421545 -1.901975
v -0.066590 0.051115 -2.118012
v -0.045579 0.055482 -2.336096
v -0.096629 -0.014095 -2.212854
v -0.078326 0.003479 -2.307879
v -0.104652 -0.042946 -2.317034
v 0.066588 0.051115 -2.118012
v 0.045577 0.055482 -2.336096
v 0.096627 -0.014095 -2.212854
v 0.078324 0.003479 -2.307879
v 0.104650 -0.042946 -2.317034
v -0.000001 0.178015 -1.708121
vn -0.2821 0.9574 -0.0614
vn -0.7664 -0.6339 -0.1035
vn -0.6743 -0.7011 -0.2319
vn -0.2796 0.9458 -0.1653
vn -0.6895 -0.7135 -0.1244
vn -0.5567 0.8298 -0.0391
vn -0.6006 -0.4908 0.6312
vn 0.2821 0.9574 -0.0614
vn 0.7664 -0.6339 -0.1035
vn 0.6743 -0.7011 -0.2319
vn 0.2796 0.9458 -0.1653
vn 0.6895 -0.7135 -0.1244
vn 0.5567 0.8298 -0.0391
vn 0.4800 0.7180 0.5041
vn -1.0000 -0.0000 -0.0000
vn -0.8613 0.5028 -0.0729
vn 0.8613 0.5028 -0.0729
vn 0.6006 -0.4908 0.6312
vn -0.4800 0.7180 0.5041
vt 0.335938 1.000000
vt 0.000000 1.000000
vt 0.000000 0.851562
vt 0.335938 0.703125
vt 0.335938 0.851562
vt 0.406250 0.703125
vt 0.406250 0.554688
vt 0.335938 0.554688
vt 0.000000 0.703125
vt 0.593750 0.609375
vt 0.593750 0.468750
vt 0.687500 0.468750
vt 0.687500 0.609375
vt 0.000000 0.226562
vt 0.273438 -0.000000
vt 0.273438 0.226562
vt 0.273438 0.507812
vt 0.000000 -0.000000
vt 0.000000 0.507812
vt 0.398438 -0.000000
vt 0.492188 0.156250
vt 0.492188 -0.000000
vt 0.382812 -0.000000
vt 0.382812 0.101562
vt 0.492188 0.226562
s 0
usemtl M_Great_White_Shark
f 48/35/51 50/36/51 49/37/51
f 51/38/52 47/39/52 49/37/52
f 53/40/53 49/41/53 52/38/53
f 49/41/54 50/42/54 52/38/54
f 53/43/55 51/38/55 49/37/55
f 47/39/56 48/35/56 49/37/56
f 47/44/57 51/45/57 77/46/57
f 48/35/58 55/37/58 50/36/58
f 51/38/59 55/37/59 54/39/59
f 53/40/60 52/38/60 55/41/60
f 55/41/61 52/38/61 50/42/61
f 53/43/62 55/37/62 51/38/62
f 54/39/63 55/37/63 48/35/63
f 54/44/64 48/47/64 77/46/64
f 57/48/65 59/49/65 56/50/65
f 57/48/65 56/50/65 58/51/65
f 57/48/65 60/52/65 59/49/65
f 57/48/65 58/51/65 61/53/65
f 62/49/65 64/54/65 65/55/65
f 65/55/65 64/54/65 66/56/65
f 68/56/66 70/57/66 69/58/66
f 70/57/66 71/49/66 69/58/66
f 73/56/67 72/59/67 74/58/67
f 75/57/67 74/58/67 76/49/67
f 51/45/68 54/44/68 77/46/68
f 48/47/69 47/44/69 77/46/69
f 67/59/66 68/56/66 69/58/66
f 75/57/67 73/56/67 74/58/67
f 63/59/65 62/49/65 65/55/65
o PectoralFin_R
v -0.445802 -0.178304 0.969515
v -0.378234 -0.144877 0.359156
v -1.156732 -0.472144 0.669190
v -1.105117 -0.446606 0.203465
v -1.674583 -0.748848 -0.065648
vn -0.3848 0.9230 0.0080
vn -0.4676 0.8839 -0.0033
vn -0.3848 0.9230 0.0079
vt 0.000000 0.507812
vt 0.156250 0.507812
vt 0.273438 0.703125
vt 0.273438 0.507812
vt 0.000000 0.703125
s 0
usemtl M_Great_White_Shark
f 79/60/70 81/61/70 80/62/70
f 81/61/71 82/63/71 80/62/71
f 78/64/72 79/60/72 80/62/72
o PectoralFin_L
v 0.445802 -0.178304 0.969515
v 0.378234 -0.144877 0.359155
v 1.156733 -0.472144 0.669189
v 1.105117 -0.446606 0.203464
v 1.674582 -0.748848 -0.065649
vn 0.3848 0.9230 0.0079
vn 0.4676 0.8839 -0.0033
vn 0.3848 0.9230 0.0080
vt 0.000000 0.507812
vt 0.000000 0.703125
vt 0.273438 0.703125
vt 0.156250 0.507812
vt 0.273438 0.507812
s 0
usemtl M_Great_White_Shark
f 84/65/73 83/66/73 85/67/73
f 86/68/74 85/67/74 87/69/74
f 86/68/75 84/65/75 85/67/75
o Jaw
v -0.459776 -0.344444 1.307277
v 0.000000 -0.578807 1.377172
v -0.406965 -0.416873 2.074643
v 0.000001 -0.474679 2.147907
v -0.000000 -0.010463 1.313020
v -0.509462 -0.278469 1.363870
v 0.000001 -0.365387 2.294275
v -0.462170 -0.353241 2.151888
v 0.000001 -0.566140 1.820420
v 0.459777 -0.344444 1.307277
v 0.406966 -0.416873 2.074643
v 0.509462 -0.278469 1.363870
v 0.462171 -0.353241 2.151887
v 0.000001 -0.401193 2.203861
v -0.510017 -0.242123 1.397313
v 0.000001 -0.296010 2.350399
v -0.419578 -0.323929 1.303517
v -0.429389 -0.390143 2.041867
v -0.463239 -0.271532 2.160481
v 0.510018 -0.242123 1.397313
v 0.419579 -0.323929 1.303517
v 0.429390 -0.390144 2.041867
v 0.463241 -0.271532 2.160480
vn -0.4571 -0.8891 0.0254
vn -0.2681 0.9345 0.2341
vn -0.7817 -0.6236 -0.0087
vn -0.2048 -0.7981 0.5666
vn -0.3772 -0.9241 -0.0613
vn -0.1821 -0.9470 0.2645
vn 0.4571 -0.8891 0.0254
vn 0.2681 0.9345 0.2341
vn 0.7817 -0.6236 -0.0087
vn 0.2048 -0.7981 0.5666
vn 0.3772 -0.9241 -0.0613
vn 0.1821 -0.9470 0.2645
vn -0.2671 -0.7530 0.6014
vn -0.8554 -0.5178 -0.0119
vn 0.2671 -0.7530 0.6014
vn 0.8554 -0.5178 -0.0119
vn 0.3255 0.4623 -0.8248
vn 0.0935 -0.1117 -0.9893
vn -0.3255 0.4623 -0.8248
vn -0.0935 -0.1117 -0.9893
vt 0.554688 0.210938
vt 0.554688 0.117188
vt 0.703125 0.117188
vt 0.656250 0.609375
vt 0.835938 0.609375
vt 0.835938 0.703125
vt 0.656250 0.703125
vt 0.789062 0.210938
vt 0.835938 0.234375
vt 0.554688 0.234375
vt 0.789062 0.117188
vt 0.835938 0.117188
vt 0.554688 0.023438
vt 0.789062 0.023438
vt 0.554688 0.007812
vt 0.835938 0.007812
vt 0.593750 0.703125
vt 0.437500 0.703125
vt 0.437500 0.468750
vt 0.593750 0.468750
vt 0.593750 0.609375
s 0
usemtl M_Great_White_Shark
f 88/70/76 89/71/76 96/72/76
f 93/73/77 95/74/77 94/75/77 92/76/77
f 90/77/78 95/78/78 93/79/78 88/70/78
f 91/80/79 94/81/79 95/78/79 90/77/79
f 90/77/80 88/70/80 96/72/80
f 91/80/81 90/77/81 96/72/81
f 97/82/82 96/72/82 89/71/82
f 99/73/83 92/76/83 94/75/83 100/74/83
f 98/83/84 97/82/84 99/84/84 100/85/84
f 91/80/85 98/83/85 100/85/85 94/81/85
f 98/83/86 96/72/86 97/82/86
f 91/80/87 96/72/87 98/83/87
f 101/86/88 103/87/88 106/88/88 105/89/88
f 106/88/89 102/87/89 104/86/89 105/89/89
f 101/86/90 109/89/90 110/88/90 103/87/90
f 110/88/91 109/89/91 108/86/91 107/87/91
f 92/76/92 99/73/92 97/90/92
f 92/76/93 89/86/93 88/90/93
f 93/73/94 92/76/94 88/90/94
f 89/86/95 92/76/95 97/90/95
o Head
v -0.535694 0.181620 1.337606
v -0.429332 0.234255 2.485845
v 0.000001 0.533989 1.231473
v 0.000001 0.322166 2.443547
v 0.000001 -0.144057 2.625233
v 0.000000 0.123075 2.964187
v -0.555876 -0.331863 1.544250
v 0.000001 -0.227073 2.375961
v -0.477080 -0.242593 2.227304
v 0.000000 -0.051336 0.656196
v -0.645716 -0.277159 1.309167
v 0.535694 0.181620 1.337606
v 0.429332 0.234255 2.485845
v 0.555877 -0.331863 1.544250
v 0.477082 -0.242593 2.227303
v 0.645717 -0.277160 1.309167
v -0.480292 0.199113 2.256931
v -0.457079 0.200981 2.382818
v -0.479749 0.071103 2.258731
v -0.456536 0.072972 2.384618
v 0.480292 0.199113 2.256931
v 0.457079 0.200981 2.382818
v 0.479749 0.071103 2.258731
v 0.456536 0.072972 2.384618
vn -0.0674 -0.9466 0.3153
vn -0.1542 0.9229 0.3529
vn 0.0795 -0.9638 -0.2547
vn -0.3338 -0.7404 0.5835
vn -0.9705 0.2278 0.0795
vn 0.3216 -0.9420 -0.0963
vn -0.7482 -0.2568 0.6118
vn -0.9181 -0.2728 0.2874
vn -0.5478 0.8365 0.0124
vn -0.9932 0.0402 0.1093
vn -0.5160 0.6004 -0.6109
vn -0.7306 0.2154 -0.6480
vn 0.0674 -0.9466 0.3153
vn 0.1542 0.9229 0.3529
vn -0.0795 -0.9638 -0.2547
vn 0.3338 -0.7404 0.5835
vn 0.9705 0.2278 0.0795
vn 0.0084 -0.9914 0.1305
vn 0.7482 -0.2568 0.6118
vn 0.9181 -0.2728 0.2874
vn 0.1817 0.9687 0.1693
vn 0.9932 0.0402 0.1093
vn 0.5160 0.6004 -0.6109
vn 0.7306 0.2154 -0.6480
vn -0.0084 -0.9914 0.1305
vn -0.3216 -0.9420 -0.0963
vn -0.1817 0.9687 0.1693
vn -0.9834 -0.0016 0.1814
vn 0.5478 0.8365 0.0124
vn 0.9834 -0.0016 0.1814
vt 1.000000 0.351562
vt 0.929688 0.351562
vt 1.000000 0.234375
vt 0.453125 0.351562
vt 0.593750 0.351562
vt 0.578125 0.468750
vt 0.593750 0.703125
vt 0.710938 0.609375
vt 0.593750 0.609375
vt 0.835938 0.351562
vt 0.835938 0.234375
vt 0.835938 -0.000000
vt 0.929688 -0.000000
vt 0.835938 0.703125
vt 1.000000 0.062500
vt 0.835938 0.468750
vt 0.593750 0.531250
vt 0.687500 0.531250
vt 0.687500 0.609375
vt 1.000000 0.468750
vt 0.578125 0.234375
vt 0.929688 0.703125
vt 0.835938 0.609375
vt 1.000000 0.640625
vt 0.593750 0.468750
vt 0.687500 0.468750
s 0
usemtl M_Great_White_Shark
f 118/91/96 115/92/96 119/93/96
f 116/94/97 114/95/97 112/96/97
f 120/97/98 117/98/98 121/99/98
f 115/92/99 116/100/99 119/93/99
f 112/101/100 111/102/100 121/103/100
f 118/104/101 117/98/101 120/97/101
f 116/100/102 112/101/102 119/93/102
f 112/101/103 121/103/103 117/105/103
f 113/100/104 111/106/104 112/96/104
f 119/93/105 112/101/105 117/105/105
f 111/99/106 113/107/106 120/108/106
f 121/109/107 111/99/107 120/108/107
f 118/91/108 125/110/108 115/92/108
f 116/94/109 123/111/109 114/95/109
f 120/97/110 126/99/110 124/98/110
f 115/92/111 125/110/111 116/100/111
f 123/106/112 126/112/112 122/104/112
f 118/104/113 124/98/113 125/113/113
f 116/100/114 125/110/114 123/106/114
f 123/106/115 124/114/115 126/112/115
f 113/100/116 114/95/116 123/111/116
f 125/110/117 124/114/117 123/106/117
f 122/115/118 120/108/118 113/107/118
f 126/116/119 120/108/119 122/115/119
f 118/104/120 119/113/120 117/98/120
f 118/104/121 120/97/121 124/98/121
f 114/95/122 113/100/122 112/96/122
f 129/106/123 130/113/123 128/109/123
f 122/101/124 113/100/124 123/111/124
f 127/116/123 129/106/123 128/109/123
f 133/109/125 132/106/125 134/113/125
f 131/116/125 132/106/125 133/109/125
o Abdomen
v -0.430753 0.247993 0.096745
v -0.585737 -0.338754 0.131378
v 0.000000 0.527472 0.129531
v 0.000000 -0.611007 0.134090
v -0.000000 -0.543856 -0.624407
v -0.443765 -0.292190 -0.622829
v -0.271660 0.211841 -0.757967
v -0.000000 0.443639 -0.593811
v -0.121979 -0.005426 -1.080841
v 0.430753 0.247993 0.096744
v 0.585737 -0.338754 0.131377
v 0.443765 -0.292190 -0.622830
v 0.271660 0.211841 -0.757967
v 0.000000 0.493437 0.157113
v -0.000000 0.381680 -0.655045
v -0.000000 0.858909 -0.056708
v -0.000000 0.636357 -0.507286
v -0.000000 1.178189 -0.544041
v 0.000000 -0.043447 0.658919
vn -0.6141 0.7840 -0.0909
vn -0.9524 0.2405 -0.1874
vn -0.4198 -0.9041 -0.0800
vn -0.5321 0.8359 -0.1344
vn -0.9464 0.2800 -0.1609
vn -0.4885 -0.8604 -0.1451
vn -0.2587 0.7416 -0.6190
vn -0.8516 0.1567 -0.5002
vn -0.3699 -0.6481 -0.6657
vn -0.3039 -0.6468 0.6995
vn 0.3039 -0.6468 0.6995
vn 0.6141 0.7840 -0.0909
vn 0.9524 0.2405 -0.1874
vn 0.4198 -0.9041 -0.0800
vn 0.5321 0.8359 -0.1344
vn 0.9464 0.2800 -0.1609
vn 0.4885 -0.8604 -0.1451
vn 0.1801 0.7003 -0.6908
vn 0.6316 0.0078 -0.7753
vn 0.3247 -0.5677 -0.7565
vn 0.4450 0.6089 0.6567
vn 0.7125 0.2274 0.6638
vn -1.0000 -0.0000 -0.0000
vn -0.4450 0.6089 0.6567
vn -0.7125 0.2274 0.6638
vt 0.804688 1.000000
vt 0.632812 1.000000
vt 0.632812 0.906250
vt 0.804688 0.804688
vt 0.804688 0.906250
vt 0.632812 0.703125
vt 0.804688 0.703125
vt 0.632812 0.804688
vt 0.593750 0.609375
vt 0.687500 0.609375
vt 0.687500 0.531250
vt 0.593750 0.468750
vt 0.687500 0.468750
vt 0.273438 0.226562
vt 0.273438 0.421875
vt 0.421875 0.375000
vt 0.273438 0.601562
vt 0.523438 0.226562
s 0
usemtl M_Great_White_Shark
f 137/117/126 142/118/126 141/119/126
f 136/120/127 135/121/127 141/119/127
f 139/122/128 138/123/128 136/120/128
f 135/121/129 137/117/129 141/119/129
f 140/124/130 136/120/130 141/119/130
f 140/124/131 139/122/131 136/120/131
f 141/125/132 142/126/132 143/127/132
f 140/128/133 141/125/133 143/127/133
f 139/129/134 140/128/134 143/127/134
f 136/128/135 138/129/135 153/127/135
f 138/129/136 145/128/136 153/127/136
f 137/117/137 147/119/137 142/118/137
f 145/120/138 147/119/138 144/121/138
f 139/122/139 145/120/139 138/123/139
f 144/121/140 147/119/140 137/117/140
f 146/124/141 147/119/141 145/120/141
f 146/124/142 145/120/142 139/122/142
f 147/125/143 143/127/143 142/126/143
f 146/128/144 143/127/144 147/125/144
f 139/129/145 143/127/145 146/128/145
f 144/125/146 137/126/146 153/127/146
f 145/128/147 144/125/147 153/127/147
f 148/130/148 150/131/148 151/132/148
f 151/132/148 150/131/148 152/133/148
f 137/126/149 135/125/149 153/127/149
f 135/125/150 136/128/150 153/127/150
f 149/134/148 148/130/148 151/132/148
