# Blender 4.2.3 LTS
# www.blender.org
mtllib FireExtinguisher.mtl
o FireExtinguisher
v -0.005687 -0.000000 -0.212379
v 0.001757 1.251827 -0.212812
v 0.221034 -0.000000 -0.059948
v 0.222942 1.251827 -0.052112
v 0.145809 0.000000 0.202568
v 0.138457 1.251827 0.207906
v -0.127404 0.000000 0.212380
v -0.134942 1.251827 0.207906
v -0.221034 -0.000000 -0.044072
v -0.219427 1.251827 -0.052112
v 0.058834 1.325770 -0.015267
v 0.001757 1.325770 -0.056736
v 0.037032 1.325770 0.051830
v -0.033518 1.325770 0.051830
v -0.055319 1.325770 -0.015267
v -0.055319 1.475385 -0.015267
v -0.033518 1.468193 0.051830
v 0.037032 1.468193 0.051830
v 0.001757 1.449628 -0.056736
v 0.058834 1.475385 -0.015267
v -0.055412 1.466472 0.067892
v 0.001757 1.407321 0.336347
v 0.042009 1.358023 0.287049
v -0.038495 1.358023 0.287049
v 0.075477 1.419626 -0.062349
v 0.135488 1.430208 -0.062349
v 0.089011 1.342869 -0.005722
v 0.149022 1.353450 -0.005722
v 0.083842 1.372188 0.085904
v 0.143852 1.382769 0.085904
v 0.067112 1.467065 0.085904
v 0.127123 1.477647 0.085904
v 0.061942 1.496384 -0.005722
v 0.121953 1.506966 -0.005722
v 0.077864 1.406086 -0.005843
v 0.078479 1.402602 0.040288
v 0.071050 1.444731 0.022667
v 0.001757 1.451379 0.051829
v 0.036777 1.390724 0.051830
v -0.033262 1.390724 0.051830
v 0.055771 1.404139 -0.005843
v 0.046508 1.441544 0.022667
v 0.040783 1.398746 0.040288
v 0.001757 0.000000 0.347343
v 0.082262 0.000000 0.207906
v -0.078747 0.000000 0.207906
v 0.001757 1.099963 0.432857
v 0.042009 1.123808 0.367343
v -0.038495 1.123808 0.367343
v 0.001757 0.421777 0.277624
v 0.042009 0.421776 0.207906
v -0.038495 0.421776 0.207906
v 0.058927 1.466472 0.067892
v 0.058834 1.568274 -0.015267
v -0.055319 1.568274 -0.015267
v -0.055412 1.558228 0.078453
v 0.058927 1.558228 0.078453
vn -0.0201 -0.0002 -0.9998
vn -0.0105 0.4598 -0.8880
vn 0.8380 0.4692 -0.2786
vn 0.9446 0.0005 -0.3282
vn 0.5218 0.4809 0.7046
vn 0.6042 0.0002 0.7968
vn -0.5050 0.4806 0.7169
vn -0.5710 -0.0005 0.8209
vn -0.8446 0.4686 -0.2589
vn -0.3778 0.9135 -0.1508
vn -0.0000 0.9037 -0.4281
vn -0.9571 -0.0007 -0.2898
vn -0.0000 -1.0000 -0.0000
vn 0.3778 0.9135 -0.1508
vn 0.2290 0.9288 0.2913
vn -0.2290 0.9288 0.2913
vn 0.5878 -0.0000 0.8090
vn 0.9511 -0.0000 -0.3090
vn 0.9696 -0.0000 -0.2446
vn 0.6060 -0.0000 0.7954
vn -0.9511 -0.0000 -0.3090
vn -0.5878 -0.0000 0.8090
vn -0.6060 -0.0000 0.7954
vn -0.9696 -0.0000 -0.2446
vn -0.0000 -0.0000 -1.0000
vn -0.0000 0.9914 0.1310
vn -0.0000 0.7381 0.6747
vn 0.9767 -0.1611 -0.1421
vn 0.9065 -0.4175 -0.0621
vn -0.9767 -0.1611 -0.1421
vn -0.9065 -0.4176 -0.0621
vn -0.9358 0.0159 -0.3522
vn -0.0000 -0.0073 1.0000
vn 0.1651 -0.9366 -0.3090
vn 0.1021 -0.5789 0.8090
vn -0.1021 0.5789 0.8090
vn 0.9848 0.1736 -0.0000
vn -0.1652 0.9366 -0.3090
vn -0.9848 -0.1737 -0.0000
vn -0.1059 0.9502 0.2930
vn -0.1098 0.9863 0.1228
vn 0.0363 -0.4535 -0.8905
vn 0.0411 -0.5003 -0.8649
vn 0.0536 -0.6117 0.7893
vn 0.0454 -0.5311 0.8461
vn -0.0000 0.1631 0.9866
vn -0.0000 -0.0334 0.9994
vn -0.9920 0.1252 -0.0174
vn -0.8631 0.0824 0.4983
vn 0.8631 0.0824 0.4983
vn 0.9920 0.1252 -0.0174
vn 0.9358 0.0159 -0.3522
vn -0.0000 -0.6686 -0.7436
vn -0.0000 -0.7807 0.6249
vn -0.0000 -0.1143 0.9934
vt 0.671875 0.742188
vt 0.000000 0.742188
vt 0.000000 0.593750
vt 0.671875 0.593750
vt 0.000000 0.445312
vt 0.671875 0.445312
vt 0.000000 0.296875
vt 0.671875 0.296875
vt 0.234375 0.804688
vt 0.234375 0.929688
vt 0.171875 0.882812
vt 0.171875 0.843750
vt 0.000000 0.148438
vt 0.671875 0.148438
vt 0.000000 0.000000
vt 0.671875 0.000000
vt 0.476562 0.875000
vt 0.398438 0.960938
vt 0.304688 0.921875
vt 0.304688 0.804688
vt 0.414062 0.781250
vt 0.062500 0.781250
vt 0.187500 0.757812
vt 0.156250 0.828125
vt 0.117188 0.835938
vt 0.117188 0.984375
vt 0.015625 0.906250
vt 0.101562 0.867188
vt 0.132812 0.898438
vt 0.828125 0.335938
vt 0.828125 0.296875
vt 0.914062 0.296875
vt 0.914062 0.335938
vt 0.828125 0.414062
vt 0.828125 0.375000
vt 0.914062 0.375000
vt 0.914062 0.414062
vt 0.828125 0.257812
vt 0.898438 0.257812
vt 0.828125 0.453125
vt 0.898438 0.453125
vt 0.710938 0.007812
vt 0.710938 0.148438
vt 0.742188 0.125000
vt 0.734375 0.007812
vt 0.765625 0.125000
vt 0.757812 0.007812
vt 0.679688 0.125000
vt 0.671875 0.257812
vt 0.710938 0.273438
vt 0.679688 0.007812
vt 0.914062 0.468750
vt 0.945312 0.468750
vt 0.945312 0.515625
vt 0.914062 0.515625
vt 0.914062 0.257812
vt 0.945312 0.257812
vt 0.945312 0.312500
vt 0.914062 0.312500
vt 0.945312 0.359375
vt 0.914062 0.359375
vt 0.796875 0.046875
vt 0.914062 0.000000
vt 0.984375 0.101562
vt 0.914062 0.210938
vt 0.796875 0.171875
vt 0.945312 0.414062
vt 0.703125 0.593750
vt 0.718750 0.562500
vt 0.742188 0.570312
vt 0.750000 0.593750
vt 0.718750 0.609375
vt 0.710938 0.445312
vt 0.726562 0.445312
vt 0.726562 0.468750
vt 0.710938 0.468750
vt 0.710938 0.406250
vt 0.726562 0.406250
vt 0.726562 0.429688
vt 0.710938 0.429688
vt 0.726562 0.945312
vt 0.703125 0.984375
vt 0.679688 0.945312
vt 0.750000 0.906250
vt 0.734375 0.671875
vt 0.687500 0.671875
vt 0.664062 0.898438
vt 0.828125 0.890625
vt 0.781250 0.671875
vt 0.757812 0.250000
vt 0.781250 0.242188
vt 0.812500 0.664062
vt 0.898438 0.664062
vt 0.898438 0.617188
vt 0.960938 0.617188
vt 0.960938 0.664062
vt 0.937500 0.562500
vt 0.937500 0.554688
vt 0.945312 0.554688
vt 0.945312 0.562500
s 1
f 1/1/1 2/2/2 4/3/3 3/4/4
f 3/4/4 4/3/3 6/5/5 5/6/6
f 5/6/6 6/5/5 8/7/7 7/8/8
f 2/9/2 10/10/9 15/11/10 12/12/11
f 7/8/8 8/7/7 10/13/9 9/14/12
f 9/14/12 10/13/9 2/15/2 1/16/1
f 1/17/13 3/18/13 5/19/13 7/20/13 9/21/13
f 4/22/3 2/23/2 12/24/11 11/25/14
f 8/26/7 6/27/5 13/28/15 14/29/16
f 10/10/9 8/26/7 14/29/16 15/11/10
f 6/27/5 4/22/3 11/25/14 13/28/15
f 13/30/17 11/31/18 20/32/19 18/33/20
f 15/34/21 14/35/22 17/36/23 16/37/24
f 11/31/18 12/38/25 19/39/25 20/32/19
f 14/35/22 13/30/17 18/33/20 17/36/23
f 12/40/25 15/34/21 16/37/24 19/41/25
f 38/42/26 22/43/27 23/44/28 39/45/29
f 23/44/28 24/46/30 40/47/31 39/45/29
f 22/43/27 24/48/30 49/49/32 47/50/33
f 40/51/31 24/48/30 22/43/27 38/42/26
f 25/52/25 26/53/25 28/54/34 27/55/34
f 27/56/34 28/57/34 30/58/35 29/59/35
f 29/59/35 30/58/35 32/60/36 31/61/36
f 30/62/37 28/63/37 26/64/37 34/65/37 32/66/37
f 31/61/36 32/60/36 34/67/38 33/37/38
f 33/37/38 34/67/38 26/53/25 25/52/25
f 33/68/39 25/69/39 27/70/39 29/71/39 31/72/39
f 42/73/40 37/74/41 35/75/42 41/76/43
f 41/77/43 35/78/42 36/79/44 43/80/45
f 43/80/45 36/79/44 37/74/41 42/73/40
f 45/81/13 44/82/13 46/83/13
f 44/84/46 50/85/47 52/86/48 46/87/49
f 45/88/50 51/89/51 50/85/47 44/84/46
f 47/50/33 49/49/32 52/86/48 50/85/47
f 24/46/30 23/44/28 48/90/52 49/91/32
f 23/44/28 22/43/27 47/50/33 48/90/52
f 49/91/32 48/90/52 51/89/51 52/92/48
f 48/90/52 47/50/33 50/85/47 51/89/51
f 16/93/53 55/94/25 54/95/25 20/96/53
f 53/97/54 21/98/54 16/99/53 20/100/53
f 21/94/54 53/95/54 57/96/55 56/93/55
o Handle
v 0.164288 1.533063 -0.110332
v 0.164288 1.402282 -0.153700
v 0.058834 1.533063 -0.110332
v 0.058834 1.402282 -0.153700
v -0.055319 1.496384 -0.033590
v -0.055319 1.637300 -0.033590
v 0.194702 1.496384 -0.033590
v 0.194702 1.637300 -0.033590
v -0.053670 1.475385 -0.015267
v 0.055183 1.475385 -0.015267
v -0.055412 1.515089 -0.385695
v -0.055412 1.466472 0.067892
v -0.055412 1.606861 -0.375271
v -0.055412 1.558244 0.078316
v -0.053670 1.517512 -0.015267
v 0.055183 1.517512 -0.015243
v -0.053670 1.328033 -0.351156
v 0.055183 1.328033 -0.351156
v 0.058927 1.466472 0.067892
v 0.058927 1.558244 0.078316
v 0.058927 1.515089 -0.385695
v 0.058927 1.606861 -0.375271
v -0.055319 1.299232 -0.348197
v 0.058834 1.299232 -0.348197
v 0.055183 1.270431 -0.345237
v -0.053670 1.270431 -0.345237
v -0.055412 1.560850 -0.380395
v 0.058927 1.560850 -0.380395
vn -0.0000 -0.3148 0.9492
vn -0.0000 -0.0000 1.0000
vn 0.7057 0.7045 0.0755
vn 1.0000 -0.0000 -0.0000
vn 0.5781 0.6362 -0.5109
vn -1.0000 -0.0000 -0.0000
vn -0.7057 0.7045 0.0755
vn -0.5781 0.6362 -0.5109
vn -0.8044 -0.5047 0.3135
vn -0.5501 -0.7389 -0.3891
vn 0.8044 -0.5046 0.3134
vn 0.5414 -0.7306 -0.4160
vn -0.0000 -0.1022 -0.9948
vn -0.0000 0.1107 -0.9939
vt 0.570312 0.843750
vt 0.664062 0.843750
vt 0.664062 0.742188
vt 0.570312 0.742188
vt 0.570312 0.960938
vt 0.570312 0.781250
vt 0.476562 0.781250
vt 0.476562 0.960938
vt 0.882812 0.921875
vt 0.835938 0.921875
vt 0.835938 0.664062
vt 0.882812 0.664062
vt 0.742188 0.992188
vt 0.742188 0.921875
vt 1.000000 0.921875
vt 1.000000 0.992188
vt 0.882812 0.906250
vt 0.906250 0.921875
vt 0.906250 0.679688
vt 0.828125 0.664062
vt 0.898438 0.664062
vt 0.898438 0.453125
vt 0.828125 0.453125
vt 0.890625 0.726562
vt 0.882812 0.726562
vt 0.882812 0.679688
vt 0.890625 0.679688
vt 0.976562 0.500000
vt 1.000000 0.500000
vt 1.000000 0.429688
vt 0.976562 0.429688
s 1
usemtl Material.003
f 58/101/56 60/102/56 61/103/56 59/104/56
f 65/105/57 63/106/57 62/107/57 64/108/57
f 77/109/58 76/110/59 78/111/59 79/112/60
f 69/110/61 71/109/62 70/112/63 68/111/61
f 71/113/62 77/114/58 79/115/60 70/116/63
f 66/117/64 72/118/61 74/119/61 83/112/65
f 67/120/66 66/121/64 83/122/65 82/123/67
f 73/118/59 67/117/66 82/112/67 75/119/59
f 83/124/65 80/125/68 81/126/68 82/127/67
f 84/128/69 70/129/63 79/130/60 85/131/69
